<svg version="1.1" xmlns="http://www.w3.org/2000/svg" style="display: block;" viewBox="0 0 2048 2048" width="1024" height="1024" preserveAspectRatio="none" xmlns:c2pa="http://c2pa.org/manifest"><metadata><c2pa:manifest>AAAzs2p1bWIAAAAeanVtZGMycGEAEQAQgAAAqgA4m3EDYzJwYQAAADONanVtYgAAAEdqdW1kYzJtYQARABCAAACqADibcQN1cm46YzJwYToxOTU4NzI3Yy02NmIzLTQxNmQtYjFmNi0xZTEzYWM2ODk0ZTIAAAAB4mp1bWIAAAApanVtZGMyYXMAEQAQgAAAqgA4m3EDYzJwYS5hc3NlcnRpb25zAAAAAO1qdW1iAAAAQWp1bWRjYm9yABEAEIAAAKoAOJtxE2MycGEuYWN0aW9ucy52MgAAAAAYYzJzaD87sD4V1JGm8Gmv3Fg3vzAAAACkY2JvcqFnYWN0aW9uc4GjZmFjdGlvbmxjMnBhLmNyZWF0ZWRxZGlnaXRhbFNvdXJjZVR5cGV4Rmh0dHA6Ly9jdi5pcHRjLm9yZy9uZXdzY29kZXMvZGlnaXRhbHNvdXJjZXR5cGUvdHJhaW5lZEFsZ29yaXRobWljTWVkaWFrZGVzY3JpcHRpb252Q3JlYXRlZCBieSBSZWNyYWZ0IEFJLgAAAMRqdW1iAAAAQGp1bWRjYm9yABEAEIAAAKoAOJtxE2MycGEuaGFzaC5kYXRhAAAAABhjMnNolDXVAirw6TJ6o3uJvSdJGAAAAHxjYm9ypWpleGNsdXNpb25zgaJlc3RhcnQY22ZsZW5ndGgZRPBkbmFtZW5qdW1iZiBtYW5pZmVzdGNhbGdmc2hhMjU2ZGhhc2hYIPiFPvDz5QeEYeQN6ZG/LquqeGXeOJdnARZYkFz3PtoCY3BhZEkAAAAAAAAAAAAAAAI0anVtYgAAACdqdW1kYzJjbAARABCAAACqADibcQNjMnBhLmNsYWltLnYyAAAAAgVjYm9ypmppbnN0YW5jZUlEeCx4bXA6aWlkOmU3OTE3OTU0LTY3MjgtNGI4ZS05ODBkLTg0ZjY0ZTc3Yjc2Y3RjbGFpbV9nZW5lcmF0b3JfaW5mb6NkbmFtZWpyZWNyYWZ0LmFpZ3ZlcnNpb254KDgxY2U4MmUyYzVjM2NiZmJlOGM2ZmJlMTc5ZDVmOGQ5MWM0MDljZTF3b3JnLmNvbnRlbnRhdXRoLmMycGFfcnNmMC45MC43aXNpZ25hdHVyZXhNc2VsZiNqdW1iZj0vYzJwYS91cm46YzJwYToxOTU4NzI3Yy02NmIzLTQxNmQtYjFmNi0xZTEzYWM2ODk0ZTIvYzJwYS5zaWduYXR1cmVyY3JlYXRlZF9hc3NlcnRpb25zgqJjdXJseCpzZWxmI2p1bWJmPWMycGEuYXNzZXJ0aW9ucy9jMnBhLmFjdGlvbnMudjJkaGFzaFgg8zh9GEPRfVZowCsAF2DHeU9Vzr3PBDE5pdPL3brZAj6iY3VybHgpc2VsZiNqdW1iZj1jMnBhLmFzc2VydGlvbnMvYzJwYS5oYXNoLmRhdGFkaGFzaFggmEhSA3t92zmes6Y6WyAj9EoXunsDkI1WPNXagQhbkSFoZGM6dGl0bGV4GlJlY3JhZnQgQUkgR2VuZXJhdGVkIEltYWdlY2FsZ2ZzaGEyNTYAAC8oanVtYgAAAChqdW1kYzJjcwARABCAAACqADibcQNjMnBhLnNpZ25hdHVyZQAAAC74Y2JvctKEWQPsogEmGCGCWQH0MIIB8DCCAZWgAwIBAgIUJcFH1Va4pZJDhzepwEtzPPNj2YMwCgYIKoZIzj0EAwIwQTELMAkGA1UEBhMCVVMxEzARBgNVBAoMClJlY3JhZnQgQUkxHTAbBgNVBAMMFFJlY3JhZnQgQzJQQSBSb290IENBMB4XDTI2MDkxMDE2NTIzNFoXDTI3MDkxMDE2NTIzNFowNzELMAkGA1UEBhMCVVMxEzARBgNVBAoMClJlY3JhZnQgQUkxEzARBgNVBAMMCnJlY3JhZnQuYWkwWTATBgcqhkjOPQIBBggqhkjOPQMBBwNCAASoOPdqG3YmNRdGd+dltfh1ikcE/nkLm8YK10H29taFa8iegusHYB1678yl5Bs18hLaV/Fhd+Ni32xAlnHdbimFo3UwczAMBgNVHRMBAf8EAjAAMA4GA1UdDwEB/wQEAwIGwDATBgNVHSUEDDAKBggrBgEFBQcDBDAdBgNVHQ4EFgQUgVwhvbEXPSSgCubOfUHxCtuoVAQwHwYDVR0jBBgwFoAUc9yF+sfWlRHeWv2Iucaec5jwdAgwCgYIKoZIzj0EAwIDSQAwRgIhAJltDpQN+vbXITLxb+8BNwSL6/5WktO4Sevkb0VXjtfWAiEAqhoz7z/sN32NxdnnZsQVTeu3P7CgGtJdXFx283fp08RZAewwggHoMIIBjaADAgECAhQAydo/NKOQWWu/4V5FktVQHX7jTDAKBggqhkjOPQQDAjBBMQswCQYDVQQGEwJVUzETMBEGA1UECgwKUmVjcmFmdCBBSTEdMBsGA1UEAwwUUmVjcmFmdCBDMlBBIFJvb3QgQ0EwHhcNMjYwOTEwMTY1MjM0WhcNMzYwOTA3MTY1MjM0WjBBMQswCQYDVQQGEwJVUzETMBEGA1UECgwKUmVjcmFmdCBBSTEdMBsGA1UEAwwUUmVjcmFmdCBDMlBBIFJvb3QgQ0EwWTATBgcqhkjOPQIBBggqhkjOPQMBBwNCAAQbQ+eF6fkpnHhTwrMxSBLh/JhROWkzsC8L8jN1r1Rlf8oECvzEFk3WujloPtNs3PLADriqR5rGtd+8giFuiTLno2MwYTAfBgNVHSMEGDAWgBRz3IX6x9aVEd5a/Yi5xp5zmPB0CDAPBgNVHRMBAf8EBTADAQH/MA4GA1UdDwEB/wQEAwIBhjAdBgNVHQ4EFgQUc9yF+sfWlRHeWv2Iucaec5jwdAgwCgYIKoZIzj0EAwIDSQAwRgIhAND2Z+xryBRnMbxk8eAzMcAq8bzl0rfA9Y2z7q5QoEUeAiEA6ZbI3e47h5clRZaARSOOotKXsK/YQMWC3vj91d3bmlOhY3BhZFkqtAAAAAAAAAAAAAAAAAAAAAAAAAAAAAAAAAAAAAAAAAAAAAAAAAAAAAAAAAAAAAAAAAAAAAAAAAAAAAAAAAAAAAAAAAAAAAAAAAAAAAAAAAAAAAAAAAAAAAAAAAAAAAAAAAAAAAAAAAAAAAAAAAAAAAAAAAAAAAAAAAAAAAAAAAAAAAAAAAAAAAAAAAAAAAAAAAAAAAAAAAAAAAAAAAAAAAAAAAAAAAAAAAAAAAAAAAAAAAAAAAAAAAAAAAAAAAAAAAAAAAAAAAAAAAAAAAAAAAAAAAAAAAAAAAAAAAAAAAAAAAAAAAAAAAAAAAAAAAAAAAAAAAAAAAAAAAAAAAAAAAAAAAAAAAAAAAAAAAAAAAAAAAAAAAAAAAAAAAAAAAAAAAAAAAAAAAAAAAAAAAAAAAAAAAAAAAAAAAAAAAAAAAAAAAAAAAAAAAAAAAAAAAAAAAAAAAAAAAAAAAAAAAAAAAAAAAAAAAAAAAAAAAAAAAAAAAAAAAAAAAAAAAAAAAAAAAAAAAAAAAAAAAAAAAAAAAAAAAAAAAAAAAAAAAAAAAAAAAAAAAAAAAAAAAAAAAAAAAAAAAAAAAAAAAAAAAAAAAAAAAAAAAAAAAAAAAAAAAAAAAAAAAAAAAAAAAAAAAAAAAAAAAAAAAAAAAAAAAAAAAAAAAAAAAAAAAAAAAAAAAAAAAAAAAAAAAAAAAAAAAAAAAAAAAAAAAAAAAAAAAAAAAAAAAAAAAAAAAAAAAAAAAAAAAAAAAAAAAAAAAAAAAAAAAAAAAAAAAAAAAAAAAAAAAAAAAAAAAAAAAAAAAAAAAAAAAAAAAAAAAAAAAAAAAAAAAAAAAAAAAAAAAAAAAAAAAAAAAAAAAAAAAAAAAAAAAAAAAAAAAAAAAAAAAAAAAAAAAAAAAAAAAAAAAAAAAAAAAAAAAAAAAAAAAAAAAAAAAAAAAAAAAAAAAAAAAAAAAAAAAAAAAAAAAAAAAAAAAAAAAAAAAAAAAAAAAAAAAAAAAAAAAAAAAAAAAAAAAAAAAAAAAAAAAAAAAAAAAAAAAAAAAAAAAAAAAAAAAAAAAAAAAAAAAAAAAAAAAAAAAAAAAAAAAAAAAAAAAAAAAAAAAAAAAAAAAAAAAAAAAAAAAAAAAAAAAAAAAAAAAAAAAAAAAAAAAAAAAAAAAAAAAAAAAAAAAAAAAAAAAAAAAAAAAAAAAAAAAAAAAAAAAAAAAAAAAAAAAAAAAAAAAAAAAAAAAAAAAAAAAAAAAAAAAAAAAAAAAAAAAAAAAAAAAAAAAAAAAAAAAAAAAAAAAAAAAAAAAAAAAAAAAAAAAAAAAAAAAAAAAAAAAAAAAAAAAAAAAAAAAAAAAAAAAAAAAAAAAAAAAAAAAAAAAAAAAAAAAAAAAAAAAAAAAAAAAAAAAAAAAAAAAAAAAAAAAAAAAAAAAAAAAAAAAAAAAAAAAAAAAAAAAAAAAAAAAAAAAAAAAAAAAAAAAAAAAAAAAAAAAAAAAAAAAAAAAAAAAAAAAAAAAAAAAAAAAAAAAAAAAAAAAAAAAAAAAAAAAAAAAAAAAAAAAAAAAAAAAAAAAAAAAAAAAAAAAAAAAAAAAAAAAAAAAAAAAAAAAAAAAAAAAAAAAAAAAAAAAAAAAAAAAAAAAAAAAAAAAAAAAAAAAAAAAAAAAAAAAAAAAAAAAAAAAAAAAAAAAAAAAAAAAAAAAAAAAAAAAAAAAAAAAAAAAAAAAAAAAAAAAAAAAAAAAAAAAAAAAAAAAAAAAAAAAAAAAAAAAAAAAAAAAAAAAAAAAAAAAAAAAAAAAAAAAAAAAAAAAAAAAAAAAAAAAAAAAAAAAAAAAAAAAAAAAAAAAAAAAAAAAAAAAAAAAAAAAAAAAAAAAAAAAAAAAAAAAAAAAAAAAAAAAAAAAAAAAAAAAAAAAAAAAAAAAAAAAAAAAAAAAAAAAAAAAAAAAAAAAAAAAAAAAAAAAAAAAAAAAAAAAAAAAAAAAAAAAAAAAAAAAAAAAAAAAAAAAAAAAAAAAAAAAAAAAAAAAAAAAAAAAAAAAAAAAAAAAAAAAAAAAAAAAAAAAAAAAAAAAAAAAAAAAAAAAAAAAAAAAAAAAAAAAAAAAAAAAAAAAAAAAAAAAAAAAAAAAAAAAAAAAAAAAAAAAAAAAAAAAAAAAAAAAAAAAAAAAAAAAAAAAAAAAAAAAAAAAAAAAAAAAAAAAAAAAAAAAAAAAAAAAAAAAAAAAAAAAAAAAAAAAAAAAAAAAAAAAAAAAAAAAAAAAAAAAAAAAAAAAAAAAAAAAAAAAAAAAAAAAAAAAAAAAAAAAAAAAAAAAAAAAAAAAAAAAAAAAAAAAAAAAAAAAAAAAAAAAAAAAAAAAAAAAAAAAAAAAAAAAAAAAAAAAAAAAAAAAAAAAAAAAAAAAAAAAAAAAAAAAAAAAAAAAAAAAAAAAAAAAAAAAAAAAAAAAAAAAAAAAAAAAAAAAAAAAAAAAAAAAAAAAAAAAAAAAAAAAAAAAAAAAAAAAAAAAAAAAAAAAAAAAAAAAAAAAAAAAAAAAAAAAAAAAAAAAAAAAAAAAAAAAAAAAAAAAAAAAAAAAAAAAAAAAAAAAAAAAAAAAAAAAAAAAAAAAAAAAAAAAAAAAAAAAAAAAAAAAAAAAAAAAAAAAAAAAAAAAAAAAAAAAAAAAAAAAAAAAAAAAAAAAAAAAAAAAAAAAAAAAAAAAAAAAAAAAAAAAAAAAAAAAAAAAAAAAAAAAAAAAAAAAAAAAAAAAAAAAAAAAAAAAAAAAAAAAAAAAAAAAAAAAAAAAAAAAAAAAAAAAAAAAAAAAAAAAAAAAAAAAAAAAAAAAAAAAAAAAAAAAAAAAAAAAAAAAAAAAAAAAAAAAAAAAAAAAAAAAAAAAAAAAAAAAAAAAAAAAAAAAAAAAAAAAAAAAAAAAAAAAAAAAAAAAAAAAAAAAAAAAAAAAAAAAAAAAAAAAAAAAAAAAAAAAAAAAAAAAAAAAAAAAAAAAAAAAAAAAAAAAAAAAAAAAAAAAAAAAAAAAAAAAAAAAAAAAAAAAAAAAAAAAAAAAAAAAAAAAAAAAAAAAAAAAAAAAAAAAAAAAAAAAAAAAAAAAAAAAAAAAAAAAAAAAAAAAAAAAAAAAAAAAAAAAAAAAAAAAAAAAAAAAAAAAAAAAAAAAAAAAAAAAAAAAAAAAAAAAAAAAAAAAAAAAAAAAAAAAAAAAAAAAAAAAAAAAAAAAAAAAAAAAAAAAAAAAAAAAAAAAAAAAAAAAAAAAAAAAAAAAAAAAAAAAAAAAAAAAAAAAAAAAAAAAAAAAAAAAAAAAAAAAAAAAAAAAAAAAAAAAAAAAAAAAAAAAAAAAAAAAAAAAAAAAAAAAAAAAAAAAAAAAAAAAAAAAAAAAAAAAAAAAAAAAAAAAAAAAAAAAAAAAAAAAAAAAAAAAAAAAAAAAAAAAAAAAAAAAAAAAAAAAAAAAAAAAAAAAAAAAAAAAAAAAAAAAAAAAAAAAAAAAAAAAAAAAAAAAAAAAAAAAAAAAAAAAAAAAAAAAAAAAAAAAAAAAAAAAAAAAAAAAAAAAAAAAAAAAAAAAAAAAAAAAAAAAAAAAAAAAAAAAAAAAAAAAAAAAAAAAAAAAAAAAAAAAAAAAAAAAAAAAAAAAAAAAAAAAAAAAAAAAAAAAAAAAAAAAAAAAAAAAAAAAAAAAAAAAAAAAAAAAAAAAAAAAAAAAAAAAAAAAAAAAAAAAAAAAAAAAAAAAAAAAAAAAAAAAAAAAAAAAAAAAAAAAAAAAAAAAAAAAAAAAAAAAAAAAAAAAAAAAAAAAAAAAAAAAAAAAAAAAAAAAAAAAAAAAAAAAAAAAAAAAAAAAAAAAAAAAAAAAAAAAAAAAAAAAAAAAAAAAAAAAAAAAAAAAAAAAAAAAAAAAAAAAAAAAAAAAAAAAAAAAAAAAAAAAAAAAAAAAAAAAAAAAAAAAAAAAAAAAAAAAAAAAAAAAAAAAAAAAAAAAAAAAAAAAAAAAAAAAAAAAAAAAAAAAAAAAAAAAAAAAAAAAAAAAAAAAAAAAAAAAAAAAAAAAAAAAAAAAAAAAAAAAAAAAAAAAAAAAAAAAAAAAAAAAAAAAAAAAAAAAAAAAAAAAAAAAAAAAAAAAAAAAAAAAAAAAAAAAAAAAAAAAAAAAAAAAAAAAAAAAAAAAAAAAAAAAAAAAAAAAAAAAAAAAAAAAAAAAAAAAAAAAAAAAAAAAAAAAAAAAAAAAAAAAAAAAAAAAAAAAAAAAAAAAAAAAAAAAAAAAAAAAAAAAAAAAAAAAAAAAAAAAAAAAAAAAAAAAAAAAAAAAAAAAAAAAAAAAAAAAAAAAAAAAAAAAAAAAAAAAAAAAAAAAAAAAAAAAAAAAAAAAAAAAAAAAAAAAAAAAAAAAAAAAAAAAAAAAAAAAAAAAAAAAAAAAAAAAAAAAAAAAAAAAAAAAAAAAAAAAAAAAAAAAAAAAAAAAAAAAAAAAAAAAAAAAAAAAAAAAAAAAAAAAAAAAAAAAAAAAAAAAAAAAAAAAAAAAAAAAAAAAAAAAAAAAAAAAAAAAAAAAAAAAAAAAAAAAAAAAAAAAAAAAAAAAAAAAAAAAAAAAAAAAAAAAAAAAAAAAAAAAAAAAAAAAAAAAAAAAAAAAAAAAAAAAAAAAAAAAAAAAAAAAAAAAAAAAAAAAAAAAAAAAAAAAAAAAAAAAAAAAAAAAAAAAAAAAAAAAAAAAAAAAAAAAAAAAAAAAAAAAAAAAAAAAAAAAAAAAAAAAAAAAAAAAAAAAAAAAAAAAAAAAAAAAAAAAAAAAAAAAAAAAAAAAAAAAAAAAAAAAAAAAAAAAAAAAAAAAAAAAAAAAAAAAAAAAAAAAAAAAAAAAAAAAAAAAAAAAAAAAAAAAAAAAAAAAAAAAAAAAAAAAAAAAAAAAAAAAAAAAAAAAAAAAAAAAAAAAAAAAAAAAAAAAAAAAAAAAAAAAAAAAAAAAAAAAAAAAAAAAAAAAAAAAAAAAAAAAAAAAAAAAAAAAAAAAAAAAAAAAAAAAAAAAAAAAAAAAAAAAAAAAAAAAAAAAAAAAAAAAAAAAAAAAAAAAAAAAAAAAAAAAAAAAAAAAAAAAAAAAAAAAAAAAAAAAAAAAAAAAAAAAAAAAAAAAAAAAAAAAAAAAAAAAAAAAAAAAAAAAAAAAAAAAAAAAAAAAAAAAAAAAAAAAAAAAAAAAAAAAAAAAAAAAAAAAAAAAAAAAAAAAAAAAAAAAAAAAAAAAAAAAAAAAAAAAAAAAAAAAAAAAAAAAAAAAAAAAAAAAAAAAAAAAAAAAAAAAAAAAAAAAAAAAAAAAAAAAAAAAAAAAAAAAAAAAAAAAAAAAAAAAAAAAAAAAAAAAAAAAAAAAAAAAAAAAAAAAAAAAAAAAAAAAAAAAAAAAAAAAAAAAAAAAAAAAAAAAAAAAAAAAAAAAAAAAAAAAAAAAAAAAAAAAAAAAAAAAAAAAAAAAAAAAAAAAAAAAAAAAAAAAAAAAAAAAAAAAAAAAAAAAAAAAAAAAAAAAAAAAAAAAAAAAAAAAAAAAAAAAAAAAAAAAAAAAAAAAAAAAAAAAAAAAAAAAAAAAAAAAAAAAAAAAAAAAAAAAAAAAAAAAAAAAAAAAAAAAAAAAAAAAAAAAAAAAAAAAAAAAAAAAAAAAAAAAAAAAAAAAAAAAAAAAAAAAAAAAAAAAAAAAAAAAAAAAAAAAAAAAAAAAAAAAAAAAAAAAAAAAAAAAAAAAAAAAAAAAAAAAAAAAAAAAAAAAAAAAAAAAAAAAAAAAAAAAAAAAAAAAAAAAAAAAAAAAAAAAAAAAAAAAAAAAAAAAAAAAAAAAAAAAAAAAAAAAAAAAAAAAAAAAAAAAAAAAAAAAAAAAAAAAAAAAAAAAAAAAAAAAAAAAAAAAAAAAAAAAAAAAAAAAAAAAAAAAAAAAAAAAAAAAAAAAAAAAAAAAAAAAAAAAAAAAAAAAAAAAAAAAAAAAAAAAAAAAAAAAAAAAAAAAAAAAAAAAAAAAAAAAAAAAAAAAAAAAAAAAAAAAAAAAAAAAAAAAAAAAAAAAAAAAAAAAAAAAAAAAAAAAAAAAAAAAAAAAAAAAAAAAAAAAAAAAAAAAAAAAAAAAAAAAAAAAAAAAAAAAAAAAAAAAAAAAAAAAAAAAAAAAAAAAAAAAAAAAAAAAAAAAAAAAAAAAAAAAAAAAAAAAAAAAAAAAAAAAAAAAAAAAAAAAAAAAAAAAAAAAAAAAAAAAAAAAAAAAAAAAAAAAAAAAAAAAAAAAAAAAAAAAAAAAAAAAAAAAAAAAAAAAAAAAAAAAAAAAAAAAAAAAAAAAAAAAAAAAAAAAAAAAAAAAAAAAAAAAAAAAAAAAAAAAAAAAAAAAAAAAAAAAAAAAAAAAAAAAAAAAAAAAAAAAAAAAAAAAAAAAAAAAAAAAAAAAAAAAAAAAAAAAAAAAAAAAAAAAAAAAAAAAAAAAAAAAAAAAAAAAAAAAAAAAAAAAAAAAAAAAAAAAAAAAAAAAAAAAAAAAAAAAAAAAAAAAAAAAAAAAAAAAAAAAAAAAAAAAAAAAAAAAAAAAAAAAAAAAAAAAAAAAAAAAAAAAAAAAAAAAAAAAAAAAAAAAAAAAAAAAAAAAAAAAAAAAAAAAAAAAAAAAAAAAAAAAAAAAAAAAAAAAAAAAAAAAAAAAAAAAAAAAAAAAAAAAAAAAAAAAAAAAAAAAAAAAAAAAAAAAAAAAAAAAAAAAAAAAAAAAAAAAAAAAAAAAAAAAAAAAAAAAAAAAAAAAAAAAAAAAAAAAAAAAAAAAAAAAAAAAAAAAAAAAAAAAAAAAAAAAAAAAAAAAAAAAAAAAAAAAAAAAAAAAAAAAAAAAAAAAAAAAAAAAAAAAAAAAAAAAAAAAAAAAAAAAAAAAAAAAAAAAAAAAAAAAAAAAAAAAAAAAAAAAAAAAAAAAAAAAAAAAAAAAAAAAAAAAAAAAAAAAAAAAAAAAAAAAAAAAAAAAAAAAAAAAAAAAAAAAAAAAAAAAAAAAAAAAAAAAAAAAAAAAAAAAAAAAAAAAAAAAAAAAAAAAAAAAAAAAAAAAAAAAAAAAAAAAAAAAAAAAAAAAAAAAAAAAAAAAAAAAAAAAAAAAAAAAAAAAAAAAAAAAAAAAAAAAAAAAAAAAAAAAAAAAAAAAAAAAAAAAAAAAAAAAAAAAAAAAAAAAAAAAAAAAAAAAAAAAAAAAAAAAAAAAAAAAAAAAAAAAAAAAAAAAAAAAAAAAAAAAAAAAAAAAAAAAAAAAAAAAAAAAAAAAAAAAAAAAAAAAAAAAAAAAAAAAAAAAAAAAAAAAAAAAAAAAAAAAAAAAAAAAAAAAAAAAAAAAAAAAAAAAAAAAAAAAAAAAAAAAAAAAAAAAAAAAAAAAAAAAAAAAAAAAAAAAAAAAAAAAAAAAAAAAAAAAAAAAAAAAAAAAAAAAAAAAAAAAAAAAAAAAAAAAAAAAAAAAAAAAAAAAAAAAAAAAAAAAAAAAAAAAAAAAAAAAAAAAAAAAAAAAAAAAAAAAAAAAAAAAAAAAAAAAAAAAAAAAAAAAAAAAAAAAAAAAAAAAAAAAAAAAAAAAAAAAAAAAAAAAAAAAAAAAAAAAAAAAAAAAAAAAAAAAAAAAAAAAAAAAAAAAAAAAAAAAAAAAAAAAAAAAAAAAAAAAAAAAAAAAAAAAAAAAAAAAAAAAAAAAAAAAAAAAAAAAAAAAAAAAAAAAAAAAAAAAAAAAAAAAAAAAAAAAAAAAAAAAAAAAAAAAAAAAAAAAAAAAAAAAAAAAAAAAAAAAAAAAAAAAAAAAAAAAAAAAAAAAAAAAAAAAAAAAAAAAAAAAAAAAAAAAAAAAAAAAAAAAAAAAAAAAAAAAAAAAAAAAAAAAAAAAAAAAAAAAAAAAAAAAAAAAAAAAAAAAAAAAAAAAAAAAAAAAAAAAAAAAAAAAAAAAAAAAAAAAAAAAAAAAAAAAAAAAAAAAAAAAAAAAAAAAAAAAAAAAAAAAAAAAAAAAAAAAAAAAAAAAAAAAAAAAAAAAAAAAAAAAAAAAAAAAAAAAAAAAAAAAAAAAAAAAAAAAAAAAAAAAAAAAAAAAAAAAAAAAAAAAAAAAAAAAAAAAAAAAAAAAAAAAAAAAAAAAAAAAAAAAAAAAAAAAAAAAAAAAAAAAAAAAAAAAAAAAAAAAAAAAAAAAAAAAAAAAAAAAAAAAAAAAAAAAAAAAAAAAAAAAAAAAAAAAAAAAAAAAAAAAAAAAAAAAAAAAAAAAAAAAAAAAAAAAAAAAAAAAAAAAAAAAAAAAAAAAAAAAAAAAAAAAAAAAAAAAAAAAAAAAAAAAAAAAAAAAAAAAAAAAAAAAAAAAAAAAAAAAAAAAAAAAAAAAAAAAAAAAAAAAAAAAAAAAAAAAAAAAAAAAAAAAAAAAAAAAAAAAAAAAAAAAAAAAAAAAAAAAAAAAAAAAAAAAAAAAAAAAAAAAAAAAAAAAAAAAAAAAAAAAAAAAAAAAAAAAAAAAAAAAAAAAAAAAAAAAAAAAAAAAAAAAAAAAAAAAAAAAAAAAAAAAAAAAAAAAAAAAAAAAAAAAAAAAAAAAAAAAAAAAAAAAAAAAAAAAAAAAAAAAAAAAAAAAAAAAAAAAAAAAAAAAAAAAAAAAAAAAAAAAAAAAAAAAAAAAAAAAAAAAAAAAAAAAAAAAAAAAAAAAAAAAAAAAAAAAAAAAAAAAAAAAAAAAAAAAAAAAAAAAAAAAAAAAAAAAAAAAAAAAAAAAAAAAAAAAAAAAAAAAAAAAAAAAAAAAAAAAAAAAAAAAAAAAAAAAAAAAAAAAAAAAAAAAAAAAAAAAAAAAAAAAAAAAAAAAAAAAAAAAAAAAAAAAAAAAAAAAAAAAAAAAAAAAAAAAAAAAAAAAAAAAAAAAAAAAAAAAAAAAAAAAAAAAAAAAAAAAAAAAAAAAAAAAAAAAAAAAAAAAAAAAAAAAAAAAAAAAAAAAAAAAAAAAAAAAAAAAAAAAAAAAAAAAAAAAAAAAAAAAAAAAAAAAAAAAAAAAAAAAAAAAAAAAAAAAAAAAAAAAAAAAAAAAAAAAAAAAAAAAAAAAAAAAAAAAAAAAAAAAAAAAAAAAAAAAAAAAAAAAAAAAAAAAAAAAAAAAAAAAAAAAAAAAAAAAAAAAAAAAAAAAAAAAAAAAAAAAAAAAAAAAAAAAAAAAAAAAAAAAAAAAAAAAAAAAAAAAAAAAAAAAAAAAAAAAAAAAAAAAAAAAAAAAAAAAAAAAAAAAAAAAAAAAAAAAAAAAAAAAAAAAAAAAAAAAAAAAAAAAAAAAAAAAAAAAAAAAAAAAAAAAAAAAAAAAAAAAAAAAAAAAAAAAAAAAAAAAAAAAAAAAAAAAAAAAAAAAAAAAAAAAAAAAAAAAAAAAAAAAAAAAAAAAAAAAAAAAAAAAAAAAAAAAAAAAAAAAAAAAAAAAAAAAAAAAAAAAAAAAAAAAAAAAAAAAAAAAAAAAAAAAAAAAAAAAAAAAAAAAAAAAAAAAAAAAAAAAAAAAAAAAAAAAAAAAAAAAAAAAAAAAAAAAAAAAAAAAAAAAAAAAAAAAAAAAAAAAAAAAAAAAAAAAAAAAAAAAAAAAAAAAAAAAAAAAAAAAAAAAAAAAAAAAAAAAAAAAAAAAAAAAAAAAAAAAAAAAAAAAAAAAAAAAAAAAAAAAAAAAAAAAAAAAAAAAAAAAAAAAAAAAAAAAAAAAAAAAAAAAAAAAAAAAAAAAAAAAAAAAAAAAAAAAAAAAAAAAAAAAAAAAAAAAAAAAAAAAAAAAAAAAAAAAAAAAAAAAAAAAAAAAAAAAAAAAAAAAAAAAAAAAAAAAAAAAAAAAAAAAAAAAAAAAAAAAAAAAAAAAAAAAAAAAAAAAAAAAAAAAAAAAAAAAAAAAAAAAAAAAAAAAAAAAAAAAAAAAAAAAAAAAAAAAAAAAAAAAAAAAAAAAAAAAAAAAAAAAAAAAAAAAAAAAAAAAAAAAAAAAAAAAAAAAAAAAAAAAAAAAAAAAAAAAAAAAAAAAAAAAAAAAAAAAAAAAAAAAAAAAAAAAAAAAAAAAAAAAAAAAAAAAAAAAAAAAAAAAAAAAAAAAAAAAAAAAAAAAAAAAAAAAAAAAAAAAAAAAAAAAAAAAAAAAAAAAAAAAAAAAAAAAAAAAAAAAAAAAAAAAAAAAAAAAAAAAAAAAAAAAAAAAAAAAAAAAAAAAAAAAAAAAAAAAAAAAAAAAAAAAAAAAAAAAAAAAAAAAAAAAAAAAAAAAAAAAAAAAAAAAAAAAAAAAAAAAAAAAAAAAAAAAAAAAAAAAAAAAAAAAAAAAAAAAAAAAAAAAAAAAAAAAAAAAAAAAAAAAAAAAAAAAAAAAAAAAAAAAAAAAAAAAAAAAAAAAAAAAAAAAAAAAAAAAAAAAAAAAAAAAAAAAAAAAAAAAAAAAAAAAAAAAAAAAAAAAAAAAAAAAAAAAAAAAAAAAAAAAAAAAAAAAAAAAAAAAAAAAAAAAAAAAAAAAAAAAAAAAAAAAAAAAAAAAAAAAAAAAAAAAAAAAAAAAAAAAAAAAAAAAAAAAAAAAAAAAAAAAAAAAAAAAAAAAAAAAAAAAAAAAAAAAAAAAAAAAAAAAAAAAAAAAAAAAAAAAAAAAAAAAAAAAAAAAAAAAAAAAAAAAAAAAAAAAAAAAAAAAAAAAAAAAAAAAAAAAAAAAAAAAAAAAAAAAAAAAAAAAAAAAAAAAAAAAAAAAAAAAAAAAAAAAAAAAAAAAAAAAAAAAAAAAAAAAAAAAAAAAAAAAAAAAAAAAAAAAAAAAAAAAAAAAAAAAAAAAAAAAAAAAAAAAAAAAAAAAAAAAAAAAAAAAAAAAAAAAAAAAAAAAAAAAAAAAAAAAAAAAAAAAAAAAAAAAAAAAAAAAAAAAAAAAAAAAAAAAAAAAAAAAAAAAAAAAAAAAAAAAAAAAAAAAAAAAAAAAAAAAAAAAAAAAAAAAAAAAAAAAAAAAAAAAAAAAAAAAAAAAAAAAAAAAAAAAAAAAAAAAAAAAAAAAAAAAAAAAAAAAAAAAAAAAAAAAAAAAAAAAAAAAAAAAAAAAAAAAAAAAAAAAAAAAAAAAAAAAAAAAAAAAAAAAAAAAAAAAAAAAAAAAAAAAAAAAAAAAAAAAAAAAAAAAAAAAAAAAAAAAAAAAAAAAAAAAAAAAAAAAAAAAAAAAAAAAAAAAAAAAAAAAAAAAAAAAAAAAAAAAAAAAAAAAAAAAAAAAAAAAAAAAAAAAAAAAAAAAAAAAAAAAAAAAAAAAAAAAAAAAAAAAAAAAAAAAAAAAAAAAAAAAAAAAAAAAAAAAAAAAAAAAAAAAAAAAAAAAAAAAAAAAAAAAAAAAAAAAAAAAAAAAAAAAAAAAAAAAAAAAAAAAAAAAAAAAAAAAAAAAAAAAAAAAAAAAAAAAAAAAAAAAAAAAAAAAAAAAAAAAAAAAAAAAAAAAAAAAAAAAAAAAAAAAAAAAAAAAAAAAAAAAAAAAAAAAAAAAAAAAAAAAAAAAAAAAAAAAAAAAAAAAAAAAAAAAAAAAAAAAAAAAAAAAAAAAAAAAAAAAAAAAAAAAAAAAAAAAAAAAAAAAAAAAAAAAAAAAAAAAAAAAAAAAAAAAAAAAAAAAAAAAAAAAAAAAAAAAAAAAAAAAAAAAAAAAAAAAAAAAAAAAAAAAAAAAAAAAAAAAAAAAAAAAAAAAAAAAAAAAAAAAAAAAAAAAAAAAAAAAAAAAAAAAAAAAAAAAAAAAAAAAAAAAAAAAAAAAAAAAAAAAAAAAAAAAAAAAAAAAAAAAAAAAAAAAAAAAAAAAAAAAAAAAAAAAAAAAAAAAAAAAAAAAAAAAAAAAAAAAAAAAAAAAAAAAAAAAAAAAAAAAAAAAAAAAAAAAAAAAAAAAAAAAAAAAAAAAAAAAAAAAAAAAAAAAAAAAAAAAAAAAAAAAAAAAAAAAAAAAAAAAAAAAAAAAAAAAAAAAAAAAAAAAAAAAAAAAAAAAAAAAAAAAAAAAAAAAAAAAAAAAAAAAAAAAAAAAAAAAAAAAAAAAAAAAAAAAAAAAAAAAAAAAAAAAAAAAAAAAAAAAAAAAAAAAAAAAAAAAAAAAAAAAAAAAAAAAAAAAAAAAAAAAAAAAAAAAAAAAAAAAAAAAAAAAAAAAAAAAAAAAAAAAAAAAAAAAAAAAAAAAAAAAAAAAAAAAAAAAAAAAAAAAAAAAAAAAAAAAAAAAAAAAAAAAAAAAAAAAAAAAAAAAAAAAAAAAAAAAAAAAAAAAAAAAAAAAAAAAAAAAAAAAAAAAAAAAAAAAAAAAAAAAAAAAAAAAAAAAAAAAAAAAAAAAAAAAAAAAAAAAAAAAAAAAAAAAAAAAAAAAAAAAAAAAAAAAAAAAAAAAAAAAAAAAAAAAAAAAAAAAAAAAAAAAAAAAAAAAAAAAAAAAAAAAAAAAAAAAAAAAAAAAAAAAAAAAAAAAAAAAAAAAAAAAAAAAAAAAAAAAAAAAAAAAAAAAAAAAAAAAAAAAAAAAAAAAAAAAAAAAAAAAAAAAAAAAAAAAAAAAAAAAAAAAAAAAAAAAAAAAAAAAAAAAAAAAAAAAAAAAAAAAAAAAAAAAAAAAAAAAAAAAAAAAAAAAAAAAAAAAAAAAAAAAAAAAAAAAAAAAAAAAAAAAAAAAAAAAAAAAAAAAAAAAAAAAAAAAAAAAAAAAAAAAAAAAAAAAAAAAAAAAAAAAAAAAAAAAAAAAAAAAAAAAAAAAAAAAAAAAAAAAAAAAAAAAAAAAAAAAAAAAAAAAAAAAAAAAAAAAAAAAAAAAAAAAAAAAAAAAAAAAAAAAAAAAAAAAAAAAAAAAAAAAAAAAAAAAAAAAAAAAAAAAAAAAAAAAAAAAAAAAAAAAAAAAAAAAAAAAAAAAAAAAAAAAAAAAAAAAAAAAAAAAAAAAAAAAAAAAAAAAAAAAAAAAAAAAAAAAAAAAAAAAAAAAAAAAAAAAAAAAAAAAAAAAAAAAAAAAAAAAAAAAAAAAAAAAAAAAAAAAAAAAAAAAAAAAAAAAAAAAAAAAAAAAAAAAAAAAAAAAAAAAAAAAAAAAAAAAAAAAAAAAAAAAAAAAAAAAAAAAAAAAAAAAAAAAAAAAAAAAAAAAAAAAAAAAAAAAAAAAAAAAAAAAAAAAAAAAAAAAAAAAAAAAAAAAAAAAAAAAAAAAAAAAAAAAAAAAAAAAAAAAAAAAAAAAAAAAAAAAAAAAAAAAAAAAAAAAAAAAAAAAAAAAAAAAAAAAAAAAAAAAAAAAAAAAAAAAAAAAAAAAAAAAAAAAAAAAAAAAAAAAAAAAAAAAAAAAAAAAAAAAAAAAAAAAAAAAAAAAAAAAAAAAAAAAAAAAAAAAAAAAAAAAAAAAAAAAAAAAAAAAAAAAAAAAAAAAAAAAAAAAAAAAAAAAAAAAAAAAAAAAAAAAAAAAAAAAAAAAAAAAAAAAAAAAAAAAAAAAAAAAAAAAAAAAAAAAAAAAAAAAAAAAAAAAAAAAAAAAAAAAAAAAAAAAAAAAAAAAAAAAAAAAAAAAAAAAAAAAAAAAAAAAAAAAAAAAAAAAAAAAAAAAAAAAAAAAAAAAAAAAAAAAAAAAAAAAAAAAAAAAAAAAAAAAAAAAAAAAAAAAAAAAAAAAAAAAAAAAAAAAAAAAAAAAAAAAAAAAAAAAAAAAAAAAAAAAAAAAAAAAAAAAAAAAAAAAAAAAAAAAAAAAAAAAAAAAAAAAAAAAAAAAAAAAAAAAAAAAAAAAAAAAAAAAAAAAAAAAAAAAAAAAAAAAAAAAAAAAAAAAAAAAAAAAAAAAAAAAAAAAAAAAAAAAAAAAAAAAAAAAAAAAAAAAAAAAAAAAAAAAAAAAAAAAAAAAAAAAAAAAAAAAAAAAAAAAAAAAAAAAAAAAAAAAAAAAAAAAAAAAAAAAAAAAAAAAAAAAAAAAAAAAAAAAAAAAAAAAAAAAAAAAAAAAAAAAAAAAAAAAAAAAAAAAAAAAAAAAAAAAAAAAAAAAAAAAAAAAAAAAAAAAAAAAAAAAAAAAAAAAAAAAAAAAAAAAAAAAAAAAAAAAAAAAAAAAAAAAAAAAAAAAAAAAAAAAAAAAAAAAAAAAAAAAAAAAAAAAAAAAAAAAAAAAAAAAAAAAAAAAAAAAAAAAAAAAAAAAAAAAAAAAAAAAAAAAAAAAAAAAAAAAAAAAAAAAAAAAAAAAAAAAAAAAAAAAAAAAAAAAAAAAAAAAAAAAAAAAAAAAAAAAAAAAAAAAAAAAAAAAAAAAAAAAAAAAAAAAAAAAAAAAAAAAAAAAAAAAAAAAAAAAAAAAAAAAAAAAAAAAAAAAAAAAAAAAAAAAAAAAAAAAAAAAAAAAAAAAAAAAAAAAAAAAAAAAAAAAAAAAAAAAAAAAAAAAAAAAAAAAAAAAAAAAAAAAAAAAAAAAAAAAAAAAAAAAAAAAAAAAAAAAAAAAAAAAAAAAAAAAAAAAAAAAAAAAAAAAAAAAAAAAAAAAAAAAAAAAAAAAAAAAAAAAAAAAAAAAAAAAAAAAAAAAAAAAAAAAAAAAAAAAAAAAAAAAAAAAAAAAAAAAAAAAAAAAAAAAAAAAAAAAAAAAAAAAAAAAAAAAAAAAAAAAAAAAAAAAAAAAAAAAAAAAAAAAAAAAAAAAAAAAAAAAAAAAAAAAAAAAAAAAAAAAAAAAAAAAAAAAAAAAAAAAAAAAAAAAAAAAAAAAAAAAAAAAAAAAAAAAAAAAAAAAAAAAAAAAAAAAAAAAAAAAAAAAAAAAAAAAAAAPZYQJ9c3mhqw6/TXndrGnLXAcLE4E0x0l/D+QNTERo3PxyTshPGL9EwDPveLBd/y2j8cA0MJWkXHftWvLqWIhB0f98=</c2pa:manifest></metadata>
<defs>
	<linearGradient id="Gradient1" gradientUnits="userSpaceOnUse" x1="1198.22" y1="722.589" x2="1143.99" y2="693.234">
		<stop class="stop0" offset="0" stop-opacity="1" stop-color="rgb(17,42,94)"/>
		<stop class="stop1" offset="1" stop-opacity="1" stop-color="rgb(17,86,185)"/>
	</linearGradient>
</defs>
<path transform="translate(0,0)" fill="rgb(15,19,35)" d="M 0 0 L 2048 0 L 2048 2048 L 0 2048 L 0 0 z"/>
<path transform="translate(0,0)" fill="rgb(15,19,35)" d="M 1268.26 890.258 C 1283.18 826.199 1324.27 809.64 1383.69 793.747 C 1384.54 793.521 1386.37 795.183 1387.05 795.685 C 1389.8 807.652 1333.3 885.64 1330.68 902.676 C 1346.92 918.5 1384.68 934.914 1403.44 946.39 C 1415.01 953.47 1418.81 942.42 1423.19 936.398 C 1431.37 925.174 1471.01 848.612 1478.34 846.641 C 1486.7 849.869 1487.23 870.241 1489.17 878.198 C 1504.84 942.574 1485.71 987.291 1424.94 1017.4 L 1425.33 1020.39 C 1429.89 1019.42 1428.11 1018.9 1431.24 1020.63 C 1436.58 1033.93 1443.91 1060.3 1448.2 1074.43 C 1459 1111.08 1470.24 1147.6 1481.92 1183.99 C 1495.42 1229.43 1509.25 1274.76 1523.41 1320 C 1532.62 1348.53 1541.38 1377.21 1549.68 1406.02 C 1557.35 1431.93 1566.86 1456.36 1567.35 1483.6 L 1565.88 1484.7 C 1564.99 1483.83 1560.69 1459.17 1559.85 1455.08 C 1542.98 1373.15 1422.86 1342.32 1358.73 1387.59 C 1378.07 1394.26 1397.33 1401.14 1416.51 1408.23 C 1460.26 1424.16 1495.7 1436.39 1518.17 1481.32 C 1532.32 1508.97 1534.78 1541.14 1525.01 1570.61 C 1514.62 1601.42 1492.37 1626.82 1463.2 1641.17 C 1401.29 1671.11 1355.24 1638.83 1300.91 1611.55 L 1202.29 1563.16 C 1192.68 1558.37 1151.23 1538.91 1145.86 1534.86 C 1139.22 1522.55 1133.09 1509.87 1126.13 1497.16 C 1124.66 1497.45 1124.64 1497.57 1123.26 1498.37 C 1116.88 1491.47 1104.63 1462.93 1098.59 1453.59 C 1098.02 1451.42 1098.53 1449.65 1096.25 1450.38 C 1085.34 1455.12 1074.2 1460.88 1063.46 1465.33 L 1062.65 1463.56 C 1059.5 1456.53 1049.42 1443.33 1044.85 1435.23 C 1031.13 1410.91 1019.69 1385.37 1010.68 1358.94 C 1004.07 1338.86 999.764 1314.44 997.108 1293.52 C 996.651 1289.92 996.324 1283.89 994.68 1281.03 L 993.087 1278.33 C 1005.63 1272.6 1018.39 1268.71 1031.51 1264.63 L 1040.87 1246.23 C 1033 1233.71 1028.99 1223.1 1019.93 1210.18 C 1018.74 1208.46 1018.33 1208.01 1017.5 1206.18 C 1020.35 1198.63 1017.14 1122.22 1019.15 1106.73 C 1019.68 1102 1019.34 1090.57 1019.34 1085.07 L 1019.43 1041.45 C 1019.52 1009.5 1021.07 962.036 1018.94 931.177 L 1022.43 930.76 L 1032.71 930.478 C 1035.81 930.3 1038.91 930.048 1041.99 929.721 C 1087.64 924.615 1117.63 902.387 1145.47 867.605 C 1149.95 860.608 1154.96 853.282 1157.09 845.249 C 1165.97 847.346 1200.64 862.761 1210.78 866.945 C 1220.24 870.85 1257.51 885.235 1264.55 889.482 L 1265.3 891.104 C 1266.51 890.482 1266.76 890.546 1268.26 890.258 z"/>
<path transform="translate(0,0)" fill="rgb(56,66,212)" d="M 1273.69 1356.36 C 1300.94 1367.58 1329.73 1376.64 1357.28 1387.33 L 1358.73 1387.59 C 1378.07 1394.26 1397.33 1401.14 1416.51 1408.23 C 1460.26 1424.16 1495.7 1436.39 1518.17 1481.32 C 1532.32 1508.97 1534.78 1541.14 1525.01 1570.61 C 1514.62 1601.42 1492.37 1626.82 1463.2 1641.17 C 1401.29 1671.11 1355.24 1638.83 1300.91 1611.55 L 1202.29 1563.16 C 1192.68 1558.37 1151.23 1538.91 1145.86 1534.86 C 1139.22 1522.55 1133.09 1509.87 1126.13 1497.16 C 1127.51 1495.14 1160.98 1466.2 1165.52 1462.26 C 1193.52 1437.91 1219.72 1414.48 1244.97 1387.08 C 1255.13 1376.05 1263.82 1369.49 1273.69 1356.36 z"/>
<path transform="translate(0,0)" fill="rgb(225,216,206)" d="M 1196.35 1134.78 C 1198.5 1134.66 1197.83 1134.41 1199.64 1135.16 C 1187.31 1161.17 1173.3 1186.36 1159.96 1211.85 C 1157.5 1216.55 1154.88 1221.2 1152.78 1226.07 C 1184.31 1218.75 1215.76 1211.04 1247.1 1202.95 C 1260.5 1187.57 1274.3 1169.35 1286.74 1153.12 L 1288.17 1156.09 C 1311.96 1208.45 1303.97 1244.83 1249.23 1273.49 C 1245.42 1275.49 1238.36 1277.49 1235.76 1280.4 L 1236.17 1281.62 C 1251.92 1284.06 1285.96 1251.86 1295.41 1238.94 C 1302.77 1261.73 1302.18 1283.99 1288.52 1304.25 L 1290.56 1306.84 C 1290.37 1319.58 1283.19 1335.43 1276.69 1346.18 C 1241.95 1403.57 1159.72 1425.29 1098.68 1440.51 C 1077.25 1409.48 1012.94 1326.66 1025.93 1284.88 C 1029.11 1274.65 1059.17 1215.94 1064.86 1208.54 C 1084.9 1182.46 1164.16 1139.39 1196.35 1134.78 z"/>
<path transform="translate(0,0)" fill="rgb(2,3,7)" d="M 1196.35 1134.78 C 1198.5 1134.66 1197.83 1134.41 1199.64 1135.16 C 1187.31 1161.17 1173.3 1186.36 1159.96 1211.85 C 1157.5 1216.55 1154.88 1221.2 1152.78 1226.07 C 1184.31 1218.75 1215.76 1211.04 1247.1 1202.95 C 1260.5 1187.57 1274.3 1169.35 1286.74 1153.12 L 1288.17 1156.09 C 1276.55 1171.45 1264.53 1186.5 1252.12 1201.24 C 1257.75 1199.83 1265.99 1197.06 1271.23 1199.52 C 1267.41 1201.35 1229.83 1210.25 1223.62 1211.73 C 1190.26 1219.65 1157 1228.68 1123.69 1236.59 C 1135.74 1226.2 1141.89 1220.63 1156.02 1212.88 C 1161.63 1204.36 1167.98 1191.07 1172.79 1181.68 C 1180.84 1166.15 1188.7 1150.51 1196.35 1134.78 z"/>
<path transform="translate(0,0)" fill="rgb(2,3,7)" d="M 1288.52 1304.25 L 1290.56 1306.84 C 1276.07 1323.06 1256.33 1337.77 1234.03 1344.66 C 1233.71 1344.76 1232.95 1343.96 1232.99 1343.7 C 1233.67 1339.22 1246.08 1337.63 1249.53 1334.52 C 1265.2 1326.41 1277.42 1318.2 1288.52 1304.25 z"/>
<path transform="translate(0,0)" fill="rgb(19,119,253)" d="M 1268.26 890.258 C 1283.18 826.199 1324.27 809.64 1383.69 793.747 C 1384.54 793.521 1386.37 795.183 1387.05 795.685 C 1389.8 807.652 1333.3 885.64 1330.68 902.676 C 1346.92 918.5 1384.68 934.914 1403.44 946.39 C 1415.01 953.47 1418.81 942.42 1423.19 936.398 C 1431.37 925.174 1471.01 848.612 1478.34 846.641 C 1486.7 849.869 1487.23 870.241 1489.17 878.198 C 1504.84 942.574 1485.71 987.291 1424.94 1017.4 L 1425.33 1020.39 C 1405.88 1026.41 1394.94 1028.66 1379.31 1042.21 L 1378.06 1039.26 C 1383.87 1034.29 1387.62 1032 1394.15 1027.91 C 1376.35 1028.31 1362.88 1027.98 1345.8 1021.92 C 1317.13 1011.75 1290.66 990.245 1277.35 962.643 L 1274.88 956.913 L 1276.44 954.235 C 1272.84 945.612 1270.31 935.252 1268.53 926.092 C 1267.2 926.409 1266.44 926.595 1265.15 926.811 C 1264.01 912.256 1263.05 906.104 1265.3 891.104 C 1266.51 890.482 1266.76 890.546 1268.26 890.258 z"/>
<path transform="translate(0,0)" fill="rgb(2,3,7)" d="M 1274.88 956.913 L 1276.44 954.235 C 1304.54 1014.33 1362.66 1037.85 1424.94 1017.4 L 1425.33 1020.39 C 1405.88 1026.41 1394.94 1028.66 1379.31 1042.21 L 1378.06 1039.26 C 1383.87 1034.29 1387.62 1032 1394.15 1027.91 C 1376.35 1028.31 1362.88 1027.98 1345.8 1021.92 C 1317.13 1011.75 1290.66 990.245 1277.35 962.643 L 1274.88 956.913 z"/>
<path transform="translate(0,0)" fill="rgb(2,3,7)" d="M 1265.3 891.104 C 1266.51 890.482 1266.76 890.546 1268.26 890.258 C 1266.67 906.749 1266.47 909.211 1268.53 926.092 C 1267.2 926.409 1266.44 926.595 1265.15 926.811 C 1264.01 912.256 1263.05 906.104 1265.3 891.104 z"/>
<path transform="translate(0,0)" fill="rgb(19,119,253)" d="M 1274.88 956.913 L 1277.35 962.643 C 1290.66 990.245 1317.13 1011.75 1345.8 1021.92 C 1362.88 1027.98 1376.35 1028.31 1394.15 1027.91 C 1387.62 1032 1383.87 1034.29 1378.06 1039.26 C 1364.11 1053.29 1343.2 1080.46 1330.42 1096.49 C 1319.27 1110.47 1295.74 1138.76 1286.74 1153.12 C 1274.3 1169.35 1260.5 1187.57 1247.1 1202.95 C 1215.76 1211.04 1184.31 1218.75 1152.78 1226.07 C 1154.88 1221.2 1157.5 1216.55 1159.96 1211.85 C 1173.3 1186.36 1187.31 1161.17 1199.64 1135.16 C 1205.56 1126.03 1216.95 1101.08 1222.77 1090.04 C 1234.32 1068.67 1245.63 1047.18 1256.7 1025.56 C 1271.25 997.193 1274.04 994.995 1273.76 961.945 C 1273.87 960.916 1274.61 958.073 1274.88 956.913 z"/>
<path transform="translate(0,0)" fill="rgb(56,66,212)" d="M 1425.33 1020.39 C 1429.89 1019.42 1428.11 1018.9 1431.24 1020.63 C 1436.58 1033.93 1443.91 1060.3 1448.2 1074.43 C 1459 1111.08 1470.24 1147.6 1481.92 1183.99 L 1479.08 1185.13 C 1418.01 1166.37 1375.92 1123.82 1364.31 1060.33 C 1368.25 1053.19 1373.67 1047.99 1379.31 1042.21 C 1394.94 1028.66 1405.88 1026.41 1425.33 1020.39 z"/>
<path transform="translate(0,0)" fill="rgb(56,66,212)" d="M 1157.09 845.249 C 1165.97 847.346 1200.64 862.761 1210.78 866.945 C 1220.24 870.85 1257.51 885.235 1264.55 889.482 L 1265.3 891.104 C 1263.05 906.104 1264.01 912.256 1265.15 926.811 C 1261.15 926.309 1241.02 910.625 1234.26 907.357 C 1222.38 901.611 1210.65 896.642 1198.59 891.353 L 1145.47 867.605 C 1149.95 860.608 1154.96 853.282 1157.09 845.249 z"/>
<path transform="translate(0,0)" fill="rgb(56,66,212)" d="M 1357.28 1387.33 C 1356.18 1367.46 1356.54 1124.6 1357.83 1120.94 L 1359.1 1120.94 C 1361.31 1125.92 1360.73 1355.27 1360.27 1382.45 C 1383.51 1372.46 1403.06 1364.88 1428.74 1364.08 C 1481.02 1362.46 1526.49 1384.51 1553.18 1429.38 C 1542.61 1390.75 1530.58 1353.66 1518.78 1315.53 L 1479.08 1185.13 L 1481.92 1183.99 C 1495.42 1229.43 1509.25 1274.76 1523.41 1320 C 1532.62 1348.53 1541.38 1377.21 1549.68 1406.02 C 1557.35 1431.93 1566.86 1456.36 1567.35 1483.6 L 1565.88 1484.7 C 1564.99 1483.83 1560.69 1459.17 1559.85 1455.08 C 1542.98 1373.15 1422.86 1342.32 1358.73 1387.59 L 1357.28 1387.33 z"/>
<path transform="translate(0,0)" fill="rgb(56,66,212)" d="M 1018.94 931.177 L 1022.43 930.76 L 1022.1 1110.49 C 1022.1 1123.25 1023.44 1199.74 1020.9 1207.14 L 1019.93 1210.18 C 1018.74 1208.46 1018.33 1208.01 1017.5 1206.18 C 1020.35 1198.63 1017.14 1122.22 1019.15 1106.73 C 1019.68 1102 1019.34 1090.57 1019.34 1085.07 L 1019.43 1041.45 C 1019.52 1009.5 1021.07 962.036 1018.94 931.177 z"/>
<path transform="translate(0,0)" fill="rgb(14,18,45)" d="M 1019.15 1106.73 C 1021.16 1127.07 1018.75 1157.34 1019.73 1178.52 C 1020.13 1187.07 1018.58 1199.35 1020.9 1207.14 L 1019.93 1210.18 C 1018.74 1208.46 1018.33 1208.01 1017.5 1206.18 C 1020.35 1198.63 1017.14 1122.22 1019.15 1106.73 z"/>
<path transform="translate(0,0)" fill="rgb(56,66,212)" d="M 1149.18 968.677 C 1186.05 963.146 1220.44 988.501 1226.06 1025.36 C 1231.67 1062.21 1206.4 1096.66 1169.55 1102.37 C 1132.59 1108.09 1098 1082.71 1092.37 1045.73 C 1086.73 1008.75 1112.19 974.227 1149.18 968.677 z"/>
<path transform="translate(0,0)" fill="rgb(225,216,206)" d="M 1150.69 989.651 C 1176.07 984.691 1200.66 1001.25 1205.61 1026.64 C 1210.56 1052.02 1193.98 1076.61 1168.59 1081.54 C 1143.23 1086.46 1118.67 1069.9 1113.72 1044.54 C 1108.78 1019.18 1125.33 994.607 1150.69 989.651 z"/>
<path transform="translate(0,0)" fill="rgb(249,123,40)" d="M 1154.32 1004.28 C 1171.46 1001.07 1187.98 1012.29 1191.31 1029.42 C 1194.63 1046.54 1183.51 1063.13 1166.41 1066.57 C 1149.15 1070.03 1132.37 1058.79 1129.02 1041.51 C 1125.66 1024.23 1137.02 1007.52 1154.32 1004.28 z"/>
<path transform="translate(0,0)" fill="rgb(15,19,35)" d="M 1154.29 1019.5 C 1160.34 1017.49 1167 1018.91 1171.7 1023.23 C 1176.39 1027.54 1178.38 1034.06 1176.89 1040.26 C 1175.39 1046.46 1170.66 1051.36 1164.51 1053.06 C 1155.34 1055.6 1145.81 1050.37 1143.04 1041.26 C 1140.27 1032.16 1145.26 1022.5 1154.29 1019.5 z"/>
<path transform="translate(0,0)" fill="rgb(15,19,35)" d="M 725.649 737.273 C 749.72 779.425 775.995 820.888 800.501 862.839 C 803.47 867.923 806.948 873.743 810.245 878.54 L 812.421 877.324 C 814.159 875.211 891.667 844.286 894.541 844.074 C 896.191 840.977 899.601 826.771 900.822 822.342 C 905.054 806.993 908.929 791.901 913.756 776.685 L 918.547 778.616 C 935.67 825.674 969.602 849.804 1018.02 858.003 C 1017.92 878.61 1016.79 910.632 1018.17 930.265 L 1018.94 931.177 C 1021.07 962.036 1019.52 1009.5 1019.43 1041.45 L 1019.34 1085.07 C 1019.34 1090.57 1019.68 1102 1019.15 1106.73 C 1017.14 1122.22 1020.35 1198.63 1017.5 1206.18 C 1018.33 1208.01 1018.74 1208.46 1019.93 1210.18 C 1028.99 1223.1 1033 1233.71 1040.87 1246.23 L 1031.51 1264.63 C 1018.39 1268.71 1005.63 1272.6 993.087 1278.33 L 994.68 1281.03 C 938.606 1299.54 883.855 1321.83 827.838 1340.5 C 820.131 1343.07 812.556 1346.07 804.978 1348.99 L 737.645 1372.62 C 732.296 1374.45 708.967 1381.97 705.621 1383.85 L 703.465 1384.14 C 699.839 1385.48 696.456 1386.83 692.696 1387.78 L 690.129 1389.4 C 615.311 1347.76 517.416 1368.35 488.481 1455.6 C 486.83 1460.58 483.415 1483.2 482.009 1484.98 L 480.878 1483.94 C 478.246 1461.18 523.26 1328.14 533.073 1297.31 L 568.112 1186.72 C 572.993 1174.36 580.134 1148.82 584.615 1134.95 C 597.725 1095.1 610.353 1055.09 622.498 1014.93 L 623.887 1014.92 L 626.153 1018.35 L 630.002 1017.83 C 624.857 1011.33 604.794 976.027 599.312 966.846 L 531.197 852.6 C 538.042 848.494 551.554 839.856 558.52 837.59 C 559.154 837.008 560.194 836.12 560.733 835.431 C 571.446 830.319 599.606 813.019 609.745 806.22 C 611.146 805.621 611.253 805.514 612.621 805.18 C 618.75 799.873 684.103 761.961 691.598 758.836 L 693.712 757.053 C 704.424 750.567 715.07 743.974 725.649 737.273 z"/>
<path transform="translate(0,0)" fill="rgb(15,19,35)" d="M 913.756 776.685 L 918.547 778.616 C 935.67 825.674 969.602 849.804 1018.02 858.003 C 1017.92 878.61 1016.79 910.632 1018.17 930.265 L 1018.94 931.177 C 1021.07 962.036 1019.52 1009.5 1019.43 1041.45 L 1019.34 1085.07 C 1019.34 1090.57 1019.68 1102 1019.15 1106.73 C 1017.14 1122.22 1020.35 1198.63 1017.5 1206.18 C 1015.18 1203.16 1012.75 1200.26 1010.05 1197.57 C 992.859 1180.51 918.857 1131.64 894.778 1132.34 C 884.709 1132.63 876.824 1137.14 870.136 1144.42 L 868.756 1141.39 C 865.97 1138.09 860.133 1127.68 857.517 1123.71 C 846.218 1106.52 835.149 1085.04 822.033 1069.37 C 836.362 1036.91 849.785 1001.3 863.202 968.171 C 860.244 963.317 850.476 945.992 847.427 943.267 L 845.159 943.484 L 844.408 942.682 L 846.157 940.667 C 844.863 935.808 828.726 909.984 824.934 903.182 L 827.107 901.886 C 823.717 895.09 816.848 883.731 812.421 877.324 C 814.159 875.211 891.667 844.286 894.541 844.074 C 896.191 840.977 899.601 826.771 900.822 822.342 C 905.054 806.993 908.929 791.901 913.756 776.685 z"/>
<path transform="translate(0,0)" fill="rgb(249,123,40)" d="M 913.756 776.685 L 918.547 778.616 C 935.67 825.674 969.602 849.804 1018.02 858.003 C 1017.92 878.61 1016.79 910.632 1018.17 930.265 C 970.771 926.843 931.452 906.02 905.121 865.974 C 901.664 859.393 896.233 853.505 894.94 845.976 L 894.541 844.074 C 896.191 840.977 899.601 826.771 900.822 822.342 C 905.054 806.993 908.929 791.901 913.756 776.685 z"/>
<path transform="translate(0,0)" fill="rgb(56,66,212)" d="M 812.421 877.324 C 814.159 875.211 891.667 844.286 894.541 844.074 L 894.94 845.976 C 896.233 853.505 901.664 859.393 905.121 865.974 C 889.642 875.495 835.067 895.053 827.107 901.886 C 823.717 895.09 816.848 883.731 812.421 877.324 z"/>
<path transform="translate(0,0)" fill="rgb(19,119,253)" d="M 725.649 737.273 C 749.72 779.425 775.995 820.888 800.501 862.839 C 803.47 867.923 806.948 873.743 810.245 878.54 C 814.72 885.986 819.688 893.903 823.926 901.422 C 769.068 931.859 715.372 966.654 661.066 998.229 C 650.758 1004.22 639.879 1011.12 630.002 1017.83 C 624.857 1011.33 604.794 976.027 599.312 966.846 L 531.197 852.6 C 538.042 848.494 551.554 839.856 558.52 837.59 C 559.154 837.008 560.194 836.12 560.733 835.431 C 571.446 830.319 599.606 813.019 609.745 806.22 C 611.146 805.621 611.253 805.514 612.621 805.18 C 618.75 799.873 684.103 761.961 691.598 758.836 L 693.712 757.053 C 704.424 750.567 715.07 743.974 725.649 737.273 z"/>
<path transform="translate(0,0)" fill="rgb(2,3,7)" d="M 560.733 835.431 C 575.923 862.17 600.735 899.09 613.142 924.982 C 604.285 917.142 595.008 899.76 588.826 888.995 C 579.354 872.5 566.576 854.508 558.52 837.59 C 559.154 837.008 560.194 836.12 560.733 835.431 z"/>
<path transform="translate(0,0)" fill="rgb(2,3,7)" d="M 693.712 757.053 C 709.572 783.717 730.788 817.663 744.563 844.181 C 729.995 831.452 715.089 795.932 703.067 779.614 C 699.904 775.32 693.907 763.721 691.598 758.836 L 693.712 757.053 z"/>
<path transform="translate(0,0)" fill="rgb(2,3,7)" d="M 609.745 806.22 C 611.146 805.621 611.253 805.514 612.621 805.18 C 623.86 823.367 633.965 842.592 645.403 860.767 C 652.603 872.209 661.022 885.13 664.658 898.078 L 660.469 892.193 C 657.682 888.22 655.309 883.8 652.944 879.556 C 639.165 854.829 623.371 831.002 609.745 806.22 z"/>
<path transform="translate(0,0)" fill="rgb(19,119,253)" d="M 812.421 877.324 C 816.848 883.731 823.717 895.09 827.107 901.886 L 824.934 903.182 C 828.726 909.984 844.863 935.808 846.157 940.667 L 844.408 942.682 L 845.159 943.484 L 847.427 943.267 C 850.476 945.992 860.244 963.317 863.202 968.171 C 849.785 1001.3 836.362 1036.91 822.033 1069.37 C 835.149 1085.04 846.218 1106.52 857.517 1123.71 C 860.133 1127.68 865.97 1138.09 868.756 1141.39 C 849.381 1173.39 883.618 1179.41 902.698 1193.26 C 911.028 1199.31 926.958 1229.49 933.712 1239.69 C 905.833 1235.05 876.6 1226.21 852.964 1210.23 C 848.546 1205.57 834.839 1183.33 830.902 1176.93 C 814.034 1149.54 797.625 1122.43 780.284 1095.28 C 769.652 1092.7 753.599 1090.39 742.512 1088.46 C 722.653 1084.92 702.769 1081.51 682.863 1078.23 L 679.041 1080.64 L 659.954 1076.44 C 652.885 1061.87 635.232 1032.97 626.153 1018.35 L 630.002 1017.83 C 639.879 1011.12 650.758 1004.22 661.066 998.229 C 715.372 966.654 769.068 931.859 823.926 901.422 C 819.688 893.903 814.72 885.986 810.245 878.54 L 812.421 877.324 z"/>
<path transform="translate(0,0)" fill="rgb(249,123,40)" d="M 812.421 877.324 C 816.848 883.731 823.717 895.09 827.107 901.886 L 824.934 903.182 C 828.726 909.984 844.863 935.808 846.157 940.667 L 844.408 942.682 L 845.159 943.484 C 828.604 956.236 798.819 971.23 780.177 982.796 C 738.989 1008.35 694.128 1032.57 653.751 1058.98 C 656.392 1064.19 659.107 1069.37 661.896 1074.5 C 669.183 1075.62 675.682 1076.59 682.863 1078.23 L 679.041 1080.64 L 659.954 1076.44 C 652.885 1061.87 635.232 1032.97 626.153 1018.35 L 630.002 1017.83 C 639.879 1011.12 650.758 1004.22 661.066 998.229 C 715.372 966.654 769.068 931.859 823.926 901.422 C 819.688 893.903 814.72 885.986 810.245 878.54 L 812.421 877.324 z"/>
<path transform="translate(0,0)" fill="rgb(2,3,7)" d="M 812.421 877.324 C 816.848 883.731 823.717 895.09 827.107 901.886 L 824.934 903.182 C 789.26 924.924 753.42 946.393 717.419 967.589 C 689.364 984.025 657.576 1001.91 630.671 1019.94 C 637.601 1031.9 644.766 1044.77 651.987 1056.48 C 669.74 1044.33 693.572 1030.82 712.296 1019.84 L 796.972 970.189 C 809.049 963.177 833.011 946.809 844.408 942.682 L 845.159 943.484 C 828.604 956.236 798.819 971.23 780.177 982.796 C 738.989 1008.35 694.128 1032.57 653.751 1058.98 C 656.392 1064.19 659.107 1069.37 661.896 1074.5 C 669.183 1075.62 675.682 1076.59 682.863 1078.23 L 679.041 1080.64 L 659.954 1076.44 C 652.885 1061.87 635.232 1032.97 626.153 1018.35 L 630.002 1017.83 C 639.879 1011.12 650.758 1004.22 661.066 998.229 C 715.372 966.654 769.068 931.859 823.926 901.422 C 819.688 893.903 814.72 885.986 810.245 878.54 L 812.421 877.324 z"/>
<path transform="translate(0,0)" fill="rgb(225,216,206)" d="M 870.136 1144.42 C 876.824 1137.14 884.709 1132.63 894.778 1132.34 C 918.857 1131.64 992.859 1180.51 1010.05 1197.57 C 1012.75 1200.26 1015.18 1203.16 1017.5 1206.18 C 1018.33 1208.01 1018.74 1208.46 1019.93 1210.18 C 1028.99 1223.1 1033 1233.71 1040.87 1246.23 L 1031.51 1264.63 C 1018.39 1268.71 1005.63 1272.6 993.087 1278.33 L 994.68 1281.03 C 938.606 1299.54 883.855 1321.83 827.838 1340.5 C 820.131 1343.07 812.556 1346.07 804.978 1348.99 L 801.493 1347.5 C 791.628 1348.67 782.904 1297.09 787.015 1292.44 L 790.012 1289.18 C 779.806 1270.05 779.135 1242.43 790.975 1223.91 L 792.205 1223.75 C 793.017 1223.31 794.446 1222.59 795.211 1222.03 C 788.195 1197.68 793.61 1170.02 810.465 1150.88 C 816.329 1159.73 821.951 1168.74 827.325 1177.9 C 836.829 1194.47 835.504 1198.37 850.619 1211.97 L 852.964 1210.23 C 876.6 1226.21 905.833 1235.05 933.712 1239.69 C 926.958 1229.49 911.028 1199.31 902.698 1193.26 C 883.618 1179.41 849.381 1173.39 868.756 1141.39 L 870.136 1144.42 z"/>
<path transform="translate(0,0)" fill="rgb(2,3,7)" d="M 868.756 1141.39 L 870.136 1144.42 C 854.471 1171.22 890.831 1181.81 908.273 1192.85 C 931.134 1207.33 949.185 1220.62 963.812 1244.2 C 931.614 1246.48 876.102 1231.6 850.619 1211.97 L 852.964 1210.23 C 876.6 1226.21 905.833 1235.05 933.712 1239.69 C 926.958 1229.49 911.028 1199.31 902.698 1193.26 C 883.618 1179.41 849.381 1173.39 868.756 1141.39 z"/>
<path transform="translate(0,0)" fill="rgb(56,66,212)" d="M 914.481 1201.68 C 927.958 1207.11 951.165 1228.38 957.706 1241.81 C 951.432 1241.77 943.353 1240.87 937.14 1239.86 C 930.448 1227.28 922.01 1213.8 914.481 1201.68 z"/>
<path transform="translate(0,0)" fill="rgb(225,216,206)" d="M 801.493 1347.5 C 791.628 1348.67 782.904 1297.09 787.015 1292.44 C 789.361 1294.72 789.847 1295.44 791.844 1298.06 C 804.499 1314.64 820.706 1323.93 838.481 1333.86 C 827.907 1337.51 811.427 1343.06 801.493 1347.5 z"/>
<path transform="translate(0,0)" fill="rgb(2,3,7)" d="M 993.087 1278.33 L 994.68 1281.03 C 938.606 1299.54 883.855 1321.83 827.838 1340.5 C 820.131 1343.07 812.556 1346.07 804.978 1348.99 L 801.493 1347.5 C 811.427 1343.06 827.907 1337.51 838.481 1333.86 C 820.706 1323.93 804.499 1314.64 791.844 1298.06 C 789.847 1295.44 789.361 1294.72 787.015 1292.44 L 790.012 1289.18 C 801.818 1308.92 823.023 1320.99 842.049 1332.66 L 993.087 1278.33 z"/>
<path transform="translate(0,0)" fill="rgb(2,3,7)" d="M 792.205 1223.75 C 793.017 1223.31 794.446 1222.59 795.211 1222.03 C 806.943 1248.24 821.155 1264.21 847.585 1276.75 C 848.792 1277.33 856.775 1280.39 856.824 1281.42 C 857.102 1287.2 844.086 1278.9 842.068 1277.91 C 814.011 1264.14 805.63 1249.77 792.205 1223.75 z"/>
<path transform="translate(0,0)" fill="rgb(56,66,212)" d="M 568.112 1186.72 C 572.993 1174.36 580.134 1148.82 584.615 1134.95 C 597.725 1095.1 610.353 1055.09 622.498 1014.93 L 623.887 1014.92 L 626.153 1018.35 C 635.232 1032.97 652.885 1061.87 659.954 1076.44 L 679.041 1080.64 L 681.201 1081.92 C 682.272 1088.41 664.762 1117.08 659.994 1123.8 C 643.417 1147.17 621.791 1163.74 596.371 1176.61 C 590.099 1179.78 574.377 1184.93 570.561 1187.38 L 568.112 1186.72 z"/>
<path transform="translate(0,0)" fill="rgb(56,66,212)" d="M 690.129 1389.4 C 615.311 1347.76 517.416 1368.35 488.481 1455.6 C 486.83 1460.58 483.415 1483.2 482.009 1484.98 L 480.878 1483.94 C 478.246 1461.18 523.26 1328.14 533.073 1297.31 L 568.112 1186.72 L 570.561 1187.38 C 565.197 1208.31 556.684 1231.88 549.898 1252.87 L 519.017 1350.59 C 510.776 1376.65 501.033 1406.07 494.464 1432.44 C 501.011 1422.08 506.049 1414.08 515.63 1404.61 C 562.615 1358.18 633.407 1354.89 689.843 1385.75 C 690.627 1386.18 691.807 1387.15 692.696 1387.78 L 690.129 1389.4 z"/>
<path transform="translate(0,0)" fill="rgb(56,66,212)" d="M 703.465 1384.14 C 701.764 1377.47 702.223 1310.14 702.219 1298.14 L 702.207 1188.13 C 702.208 1177.49 701.115 1128.23 704.037 1121.94 C 707.069 1126.14 705.951 1166.83 705.952 1174.76 L 705.926 1261.94 L 705.904 1337.43 C 705.938 1352.03 706.468 1369.51 705.621 1383.85 L 703.465 1384.14 z"/>
<path transform="translate(0,0)" fill="rgb(225,216,206)" d="M 830.951 521.416 C 840.395 490.804 857.063 462.911 879.548 440.092 C 915.209 403.042 964.357 382.018 1015.78 381.818 C 1067.89 381.364 1118.01 401.816 1154.93 438.6 C 1192.54 475.654 1210.7 520.268 1211.05 572.776 C 1210.94 580.695 1210.13 592.415 1208.72 600.276 C 1206.12 613.453 1204.25 621.399 1199.56 633.943 C 1183.18 661.452 1182.86 664.395 1155.1 684.362 C 1150.76 686.705 1139.18 693.828 1135.49 696.66 C 1134.36 702.907 1134.01 704.79 1134.21 711.374 C 1134.38 715.904 1135.11 724.046 1133.64 727.846 C 1135.98 732.433 1135.79 758.992 1135.89 765.757 C 1136.72 768.574 1137.1 770.272 1137.65 773.183 C 1138.96 778.529 1140.61 786.226 1142.24 791.283 C 1143.88 799.946 1153.35 839.234 1157.09 845.249 C 1154.96 853.282 1149.95 860.608 1145.47 867.605 C 1117.63 902.387 1087.64 924.615 1041.99 929.721 C 1038.91 930.048 1035.81 930.3 1032.71 930.478 L 1022.43 930.76 L 1018.94 931.177 L 1018.17 930.265 C 1016.79 910.632 1017.92 878.61 1018.02 858.003 C 969.602 849.804 935.67 825.674 918.547 778.616 L 913.756 776.685 C 896.203 771.215 875.252 756.737 862.419 743.85 C 835.785 717.025 820.927 680.7 821.128 642.899 C 821.108 639.112 821.23 622.673 821.752 620.03 C 822.44 582.697 820.833 561.749 830.707 525.007 C 832.477 523.905 834.258 522.821 836.05 521.755 C 851.157 512.807 866.073 511.87 882.487 518.568 C 887.102 520.451 890.963 523.789 895.522 524.954 L 896.6 523.952 L 895.936 522.212 C 891.645 518.121 879.789 512.214 873.787 511.273 C 854.824 508.299 845.953 511.199 830.951 521.416 z"/>
<path transform="translate(0,0)" fill="rgb(249,123,40)" d="M 1133.64 727.846 C 1135.98 732.433 1135.79 758.992 1135.89 765.757 C 1136.72 768.574 1137.1 770.272 1137.65 773.183 C 1138.96 778.529 1140.61 786.226 1142.24 791.283 C 1143.88 799.946 1153.35 839.234 1157.09 845.249 C 1154.96 853.282 1149.95 860.608 1145.47 867.605 C 1117.63 902.387 1087.64 924.615 1041.99 929.721 C 1038.91 930.048 1035.81 930.3 1032.71 930.478 L 1022.43 930.76 L 1018.94 931.177 L 1018.17 930.265 C 1016.79 910.632 1017.92 878.61 1018.02 858.003 C 1024.46 848.949 1040.25 833.812 1048.47 824.21 C 1075.98 792.061 1106.69 760.284 1133.64 727.846 z"/>
<path transform="translate(0,0)" fill="rgb(14,95,184)" d="M 1133.64 727.846 C 1135.98 732.433 1135.79 758.992 1135.89 765.757 C 1136.72 768.574 1137.1 770.272 1137.65 773.183 L 1134.56 774.157 C 1116.32 824.855 1085.1 848.669 1032.86 857.358 C 1032.87 881.391 1033.22 906.538 1032.71 930.478 L 1022.43 930.76 L 1018.94 931.177 L 1018.17 930.265 C 1016.79 910.632 1017.92 878.61 1018.02 858.003 C 1024.46 848.949 1040.25 833.812 1048.47 824.21 C 1075.98 792.061 1106.69 760.284 1133.64 727.846 z"/>
<path transform="translate(0,0)" fill="rgb(236,141,74)" d="M 1135.89 765.757 C 1136.72 768.574 1137.1 770.272 1137.65 773.183 L 1134.56 774.157 C 1134.93 770.817 1135.17 769.038 1135.89 765.757 z"/>
<path transform="translate(0,0)" fill="rgb(15,19,35)" d="M 1135.49 696.66 C 1134.36 702.907 1134.01 704.79 1134.21 711.374 C 1134.38 715.904 1135.11 724.046 1133.64 727.846 C 1106.69 760.284 1075.98 792.061 1048.47 824.21 C 1040.25 833.812 1024.46 848.949 1018.02 858.003 C 969.602 849.804 935.67 825.674 918.547 778.616 C 948.728 789.728 986.88 788.081 1015.05 771.993 C 1055.91 748.656 1094.84 720.135 1135.49 696.66 z"/>
<path transform="translate(0,0)" fill="rgb(15,19,35)" d="M 1206.59 598.97 C 1199.42 627.031 1172.04 644.993 1143.44 640.39 C 1114.85 635.786 1094.48 610.137 1096.49 581.244 C 1098.49 552.352 1122.19 529.753 1151.15 529.134 C 1180.1 528.515 1204.75 550.08 1207.98 578.861 C 1210.19 576.006 1209.84 576.613 1211.05 572.776 C 1210.94 580.695 1210.13 592.415 1208.72 600.276 L 1206.59 598.97 z"/>
<path transform="translate(0,0)" fill="rgb(181,176,170)" d="M 1207.98 578.861 C 1210.19 576.006 1209.84 576.613 1211.05 572.776 C 1210.94 580.695 1210.13 592.415 1208.72 600.276 L 1206.59 598.97 C 1208.27 592.407 1208.74 585.593 1207.98 578.861 z"/>
<path transform="translate(0,0)" fill="rgb(14,95,184)" d="M 1144.03 553.471 C 1161.53 548.557 1179.71 558.726 1184.68 576.21 C 1189.65 593.694 1179.53 611.903 1162.06 616.925 C 1144.52 621.969 1126.21 611.803 1121.22 594.242 C 1116.23 576.682 1126.46 558.408 1144.03 553.471 z"/>
<path transform="translate(0,0)" fill="rgb(233,168,138)" d="M 857.727 596.768 C 863.009 600.575 865.356 602.783 872.509 602.755 C 880.607 607.337 886.234 616.558 888.444 624.662 C 896.165 652.968 864.254 677.868 838.548 661.968 C 827.818 655.332 828.412 652.519 821.958 644.013 L 821.128 642.899 C 821.108 639.112 821.23 622.673 821.752 620.03 C 829.929 609.285 831.669 600.274 848.997 597.979 C 851.897 597.594 854.837 597.22 857.727 596.768 z"/>
<path transform="translate(0,0)" fill="rgb(15,19,35)" d="M 857.727 596.768 C 853.545 589.018 850.367 576.981 852.989 568.493 C 867.083 522.865 905.512 576.66 872.509 602.755 C 865.356 602.783 863.009 600.575 857.727 596.768 z"/>
<path transform="translate(0,0)" fill="rgb(233,168,138)" d="M 1012.56 598.054 C 1030.94 595.594 1047.93 608.215 1050.88 626.516 C 1053.84 644.818 1041.68 662.143 1023.47 665.59 C 1011.24 667.903 998.718 663.395 990.772 653.818 C 982.825 644.241 980.705 631.105 985.234 619.514 C 989.764 607.923 1000.23 599.705 1012.56 598.054 z"/>
<path transform="translate(0,0)" fill="rgb(15,19,35)" d="M 984.934 550.859 C 1011.07 549.57 1012.65 587.789 995.583 600.675 L 994.184 601.764 C 972.12 606.095 965.058 567.928 984.934 550.859 z"/>
<path transform="translate(0,0)" fill="rgb(2,3,7)" d="M 975.586 664.651 C 976.778 665.734 977.954 667.167 976.404 668.73 C 949.759 695.597 918.515 695.869 888.575 674.827 C 888.337 674.59 887.57 673.895 887.492 673.578 C 886.011 667.5 897.043 676.227 898.507 677.109 C 907.215 682.354 915.268 685.248 925.512 685.975 C 947.386 687.529 960.53 679.042 975.586 664.651 z"/>
<path transform="translate(0,0)" fill="rgb(2,3,7)" d="M 991.051 510.251 C 1004.3 509.368 1014.87 511.505 1026.3 518.532 C 1027.87 519.496 1032.89 522.172 1031.32 524.791 C 1031.63 524.684 1011.91 516.311 1008.47 515.364 C 991.784 513.02 983.398 513.282 969.318 523.361 C 966.101 525.664 961.115 521.185 972.499 516.523 C 978.145 514.21 983.805 511.69 991.051 510.251 z"/>
<path transform="translate(0,0)" fill="rgb(233,168,138)" d="M 917.349 592.601 C 923.648 598.374 910.913 604.156 908.983 617.503 C 906.706 633.246 918.511 635.818 915.765 642.433 C 908.439 641.13 905.683 632.654 904.219 625.981 C 901.462 613.419 910.464 602.231 917.349 592.601 z"/>
<path transform="translate(0,0)" fill="rgb(56,66,212)" d="M 994.68 1281.03 C 996.324 1283.89 996.651 1289.92 997.108 1293.52 C 999.764 1314.44 1004.07 1338.86 1010.68 1358.94 C 1019.69 1385.37 1031.13 1410.91 1044.85 1435.23 C 1049.42 1443.33 1059.5 1456.53 1062.65 1463.56 L 1063.46 1465.33 C 1060.62 1466.82 1058.01 1467.88 1055.19 1469.27 L 1052.87 1468.04 C 1012.48 1485.72 973.271 1505.25 933.593 1524.27 L 765.411 1604.05 C 749.742 1611.45 734.131 1618.98 718.58 1626.62 C 701.782 1634.95 681.649 1646.29 663.604 1650.24 C 632.606 1656.97 600.204 1651.24 573.399 1634.28 C 546.607 1617.36 527.664 1590.46 520.767 1559.54 C 514.023 1528.58 520.008 1496.21 537.375 1469.71 C 563.527 1429.72 598.218 1421.1 640.543 1406.28 C 654.687 1401.32 676.119 1392.35 690.129 1389.4 L 692.696 1387.78 C 696.456 1386.83 699.839 1385.48 703.465 1384.14 L 705.621 1383.85 C 708.967 1381.97 732.296 1374.45 737.645 1372.62 L 804.978 1348.99 C 812.556 1346.07 820.131 1343.07 827.838 1340.5 C 883.855 1321.83 938.606 1299.54 994.68 1281.03 z"/>
<path transform="translate(0,0)" fill="rgb(2,3,7)" d="M 1062.65 1463.56 L 1063.46 1465.33 C 1060.62 1466.82 1058.01 1467.88 1055.19 1469.27 L 1052.87 1468.04 C 1055.56 1466.45 1059.7 1464.81 1062.65 1463.56 z"/>
<path transform="translate(0,0)" fill="rgb(19,119,253)" d="M 1096.25 1450.38 C 1098.53 1449.65 1098.02 1451.42 1098.59 1453.59 C 1104.63 1462.93 1116.88 1491.47 1123.26 1498.37 C 1124.64 1497.57 1124.66 1497.45 1126.13 1497.16 C 1133.09 1509.87 1139.22 1522.55 1145.86 1534.86 L 1143.45 1537.78 C 1150.43 1561.72 1149.43 1580 1139.71 1603.29 C 1108.55 1584.15 1075.38 1564.9 1044.88 1545.27 L 1041.28 1545.82 C 1039.56 1547.67 1024.91 1572.24 1022.6 1576.05 C 1023.16 1578.5 1023.68 1580.96 1024.15 1583.42 C 1031.85 1622.86 1008.25 1658.47 968.452 1665.68 C 949.648 1668.95 930.315 1664.55 914.785 1653.45 C 899.394 1642.63 889.648 1627.69 886.611 1609.06 C 883.507 1590.97 887.803 1572.4 898.533 1557.51 C 910.483 1541.47 928.138 1530.63 947.85 1527.24 C 949.263 1524.63 951.452 1520.34 953.898 1518.74 C 964.782 1511.62 978.699 1505.69 990.528 1500.12 C 1012.19 1490.06 1033.75 1479.78 1055.19 1469.27 C 1058.01 1467.88 1060.62 1466.82 1063.46 1465.33 C 1074.2 1460.88 1085.34 1455.12 1096.25 1450.38 z"/>
<path transform="translate(0,0)" fill="rgb(19,119,253)" d="M 1098.59 1453.59 C 1104.63 1462.93 1116.88 1491.47 1123.26 1498.37 C 1124.64 1497.57 1124.66 1497.45 1126.13 1497.16 C 1133.09 1509.87 1139.22 1522.55 1145.86 1534.86 L 1143.45 1537.78 C 1150.43 1561.72 1149.43 1580 1139.71 1603.29 C 1108.55 1584.15 1075.38 1564.9 1044.88 1545.27 C 1059.3 1515.81 1085.09 1481.9 1098.59 1453.59 z"/>
<path transform="translate(0,0)" fill="rgb(2,3,7)" d="M 1123.26 1498.37 C 1124.64 1497.57 1124.66 1497.45 1126.13 1497.16 C 1133.09 1509.87 1139.22 1522.55 1145.86 1534.86 L 1143.45 1537.78 C 1137.51 1523.65 1130.64 1511.65 1123.26 1498.37 z"/>
<path transform="translate(0,0)" fill="rgb(15,19,35)" d="M 1099.54 1535.13 C 1104.89 1532.92 1111.01 1533.79 1115.52 1537.42 C 1120.03 1541.05 1122.2 1546.85 1121.18 1552.54 C 1120.16 1558.24 1116.11 1562.92 1110.63 1564.76 C 1102.54 1567.47 1093.77 1563.28 1090.78 1555.3 C 1087.79 1547.31 1091.67 1538.4 1099.54 1535.13 z"/>
<path transform="translate(0,0)" fill="rgb(2,3,7)" d="M 1096.25 1450.38 C 1098.53 1449.65 1098.02 1451.42 1098.59 1453.59 C 1085.09 1481.9 1059.3 1515.81 1044.88 1545.27 L 1041.28 1545.82 C 1047.21 1533.06 1097.37 1454.71 1096.25 1450.38 z"/>
<path transform="translate(0,0)" fill="rgb(15,19,35)" d="M 948.76 1565.27 C 967.656 1562.21 985.441 1575.09 988.426 1594 C 991.411 1612.91 978.46 1630.64 959.54 1633.55 C 940.726 1636.45 923.114 1623.58 920.145 1604.78 C 917.177 1585.98 929.97 1568.31 948.76 1565.27 z"/>
<path transform="translate(0,0)" fill="url(#Gradient1)" d="M 1199.56 633.943 L 1200.51 635.562 C 1197.74 643.728 1198.75 641.564 1202.04 649.463 C 1208.58 664.574 1211.29 677.052 1208.96 693.142 C 1204.71 722.506 1189.19 742.208 1164.4 757.805 C 1157.62 762.069 1146.64 770.007 1139.51 772.657 C 1140.65 780.27 1143.97 784.67 1142.24 791.283 C 1140.61 786.226 1138.96 778.529 1137.65 773.183 C 1137.1 770.272 1136.72 768.574 1135.89 765.757 C 1135.79 758.992 1135.98 732.433 1133.64 727.846 C 1135.11 724.046 1134.38 715.904 1134.21 711.374 C 1134.01 704.79 1134.36 702.907 1135.49 696.66 C 1139.18 693.828 1150.76 686.705 1155.1 684.362 C 1182.86 664.395 1183.18 661.452 1199.56 633.943 z"/>
<path transform="translate(0,0)" fill="rgb(14,95,184)" d="M 1155.1 684.362 L 1154.34 685.772 C 1152.79 688.801 1150.35 689.285 1147.48 690.861 C 1145.96 693.698 1144.3 696.487 1142.8 699.33 C 1137.23 709.872 1136.69 705.755 1136.01 716.236 L 1135.67 716.458 C 1135.15 715.869 1134.53 712.433 1134.21 711.374 C 1134.01 704.79 1134.36 702.907 1135.49 696.66 C 1139.18 693.828 1150.76 686.705 1155.1 684.362 z"/>
</svg>