<svg version="1.1" xmlns="http://www.w3.org/2000/svg" style="display: block;" viewBox="0 0 2048 2048" width="1024" height="1024" preserveAspectRatio="none" xmlns:c2pa="http://c2pa.org/manifest"><metadata><c2pa:manifest>AAAzs2p1bWIAAAAeanVtZGMycGEAEQAQgAAAqgA4m3EDYzJwYQAAADONanVtYgAAAEdqdW1kYzJtYQARABCAAACqADibcQN1cm46YzJwYTo0N2U3NjA0Mi05YTQ4LTRkNjAtOThlNC1hNThjYjlkYzc4NDkAAAAB4mp1bWIAAAApanVtZGMyYXMAEQAQgAAAqgA4m3EDYzJwYS5hc3NlcnRpb25zAAAAAO1qdW1iAAAAQWp1bWRjYm9yABEAEIAAAKoAOJtxE2MycGEuYWN0aW9ucy52MgAAAAAYYzJzaFaNrO6gYTTRcCmx3KQ1xy4AAACkY2JvcqFnYWN0aW9uc4GjZmFjdGlvbmxjMnBhLmNyZWF0ZWRxZGlnaXRhbFNvdXJjZVR5cGV4Rmh0dHA6Ly9jdi5pcHRjLm9yZy9uZXdzY29kZXMvZGlnaXRhbHNvdXJjZXR5cGUvdHJhaW5lZEFsZ29yaXRobWljTWVkaWFrZGVzY3JpcHRpb252Q3JlYXRlZCBieSBSZWNyYWZ0IEFJLgAAAMRqdW1iAAAAQGp1bWRjYm9yABEAEIAAAKoAOJtxE2MycGEuaGFzaC5kYXRhAAAAABhjMnNoj9tJVsGZ+ZHmuSOrbVqyUwAAAHxjYm9ypWpleGNsdXNpb25zgaJlc3RhcnQY22ZsZW5ndGgZRPBkbmFtZW5qdW1iZiBtYW5pZmVzdGNhbGdmc2hhMjU2ZGhhc2hYIObdr1H+lXvEw14NatkHJNH/hwhwFGskSP1Bj6O0nv8EY3BhZEkAAAAAAAAAAAAAAAI0anVtYgAAACdqdW1kYzJjbAARABCAAACqADibcQNjMnBhLmNsYWltLnYyAAAAAgVjYm9ypmppbnN0YW5jZUlEeCx4bXA6aWlkOjdkNzgyNzc1LWYwMTEtNGYzOC1iNzg3LWY4NzI2YWZhOWQ5Y3RjbGFpbV9nZW5lcmF0b3JfaW5mb6NkbmFtZWpyZWNyYWZ0LmFpZ3ZlcnNpb254KDgxY2U4MmUyYzVjM2NiZmJlOGM2ZmJlMTc5ZDVmOGQ5MWM0MDljZTF3b3JnLmNvbnRlbnRhdXRoLmMycGFfcnNmMC45MC43aXNpZ25hdHVyZXhNc2VsZiNqdW1iZj0vYzJwYS91cm46YzJwYTo0N2U3NjA0Mi05YTQ4LTRkNjAtOThlNC1hNThjYjlkYzc4NDkvYzJwYS5zaWduYXR1cmVyY3JlYXRlZF9hc3NlcnRpb25zgqJjdXJseCpzZWxmI2p1bWJmPWMycGEuYXNzZXJ0aW9ucy9jMnBhLmFjdGlvbnMudjJkaGFzaFggG05CHibADO6Ait8Q31UIiepTQjTH1PNmY7aCtsZtXc6iY3VybHgpc2VsZiNqdW1iZj1jMnBhLmFzc2VydGlvbnMvYzJwYS5oYXNoLmRhdGFkaGFzaFggDtFDi9Lquk8l7vkqyj7AYrJ8aHMfWIxNfYOxRn0ihUpoZGM6dGl0bGV4GlJlY3JhZnQgQUkgR2VuZXJhdGVkIEltYWdlY2FsZ2ZzaGEyNTYAAC8oanVtYgAAAChqdW1kYzJjcwARABCAAACqADibcQNjMnBhLnNpZ25hdHVyZQAAAC74Y2JvctKEWQPsogEmGCGCWQH0MIIB8DCCAZWgAwIBAgIUJcFH1Va4pZJDhzepwEtzPPNj2YMwCgYIKoZIzj0EAwIwQTELMAkGA1UEBhMCVVMxEzARBgNVBAoMClJlY3JhZnQgQUkxHTAbBgNVBAMMFFJlY3JhZnQgQzJQQSBSb290IENBMB4XDTI2MDkxMDE2NTIzNFoXDTI3MDkxMDE2NTIzNFowNzELMAkGA1UEBhMCVVMxEzARBgNVBAoMClJlY3JhZnQgQUkxEzARBgNVBAMMCnJlY3JhZnQuYWkwWTATBgcqhkjOPQIBBggqhkjOPQMBBwNCAASoOPdqG3YmNRdGd+dltfh1ikcE/nkLm8YK10H29taFa8iegusHYB1678yl5Bs18hLaV/Fhd+Ni32xAlnHdbimFo3UwczAMBgNVHRMBAf8EAjAAMA4GA1UdDwEB/wQEAwIGwDATBgNVHSUEDDAKBggrBgEFBQcDBDAdBgNVHQ4EFgQUgVwhvbEXPSSgCubOfUHxCtuoVAQwHwYDVR0jBBgwFoAUc9yF+sfWlRHeWv2Iucaec5jwdAgwCgYIKoZIzj0EAwIDSQAwRgIhAJltDpQN+vbXITLxb+8BNwSL6/5WktO4Sevkb0VXjtfWAiEAqhoz7z/sN32NxdnnZsQVTeu3P7CgGtJdXFx283fp08RZAewwggHoMIIBjaADAgECAhQAydo/NKOQWWu/4V5FktVQHX7jTDAKBggqhkjOPQQDAjBBMQswCQYDVQQGEwJVUzETMBEGA1UECgwKUmVjcmFmdCBBSTEdMBsGA1UEAwwUUmVjcmFmdCBDMlBBIFJvb3QgQ0EwHhcNMjYwOTEwMTY1MjM0WhcNMzYwOTA3MTY1MjM0WjBBMQswCQYDVQQGEwJVUzETMBEGA1UECgwKUmVjcmFmdCBBSTEdMBsGA1UEAwwUUmVjcmFmdCBDMlBBIFJvb3QgQ0EwWTATBgcqhkjOPQIBBggqhkjOPQMBBwNCAAQbQ+eF6fkpnHhTwrMxSBLh/JhROWkzsC8L8jN1r1Rlf8oECvzEFk3WujloPtNs3PLADriqR5rGtd+8giFuiTLno2MwYTAfBgNVHSMEGDAWgBRz3IX6x9aVEd5a/Yi5xp5zmPB0CDAPBgNVHRMBAf8EBTADAQH/MA4GA1UdDwEB/wQEAwIBhjAdBgNVHQ4EFgQUc9yF+sfWlRHeWv2Iucaec5jwdAgwCgYIKoZIzj0EAwIDSQAwRgIhAND2Z+xryBRnMbxk8eAzMcAq8bzl0rfA9Y2z7q5QoEUeAiEA6ZbI3e47h5clRZaARSOOotKXsK/YQMWC3vj91d3bmlOhY3BhZFkqtAAAAAAAAAAAAAAAAAAAAAAAAAAAAAAAAAAAAAAAAAAAAAAAAAAAAAAAAAAAAAAAAAAAAAAAAAAAAAAAAAAAAAAAAAAAAAAAAAAAAAAAAAAAAAAAAAAAAAAAAAAAAAAAAAAAAAAAAAAAAAAAAAAAAAAAAAAAAAAAAAAAAAAAAAAAAAAAAAAAAAAAAAAAAAAAAAAAAAAAAAAAAAAAAAAAAAAAAAAAAAAAAAAAAAAAAAAAAAAAAAAAAAAAAAAAAAAAAAAAAAAAAAAAAAAAAAAAAAAAAAAAAAAAAAAAAAAAAAAAAAAAAAAAAAAAAAAAAAAAAAAAAAAAAAAAAAAAAAAAAAAAAAAAAAAAAAAAAAAAAAAAAAAAAAAAAAAAAAAAAAAAAAAAAAAAAAAAAAAAAAAAAAAAAAAAAAAAAAAAAAAAAAAAAAAAAAAAAAAAAAAAAAAAAAAAAAAAAAAAAAAAAAAAAAAAAAAAAAAAAAAAAAAAAAAAAAAAAAAAAAAAAAAAAAAAAAAAAAAAAAAAAAAAAAAAAAAAAAAAAAAAAAAAAAAAAAAAAAAAAAAAAAAAAAAAAAAAAAAAAAAAAAAAAAAAAAAAAAAAAAAAAAAAAAAAAAAAAAAAAAAAAAAAAAAAAAAAAAAAAAAAAAAAAAAAAAAAAAAAAAAAAAAAAAAAAAAAAAAAAAAAAAAAAAAAAAAAAAAAAAAAAAAAAAAAAAAAAAAAAAAAAAAAAAAAAAAAAAAAAAAAAAAAAAAAAAAAAAAAAAAAAAAAAAAAAAAAAAAAAAAAAAAAAAAAAAAAAAAAAAAAAAAAAAAAAAAAAAAAAAAAAAAAAAAAAAAAAAAAAAAAAAAAAAAAAAAAAAAAAAAAAAAAAAAAAAAAAAAAAAAAAAAAAAAAAAAAAAAAAAAAAAAAAAAAAAAAAAAAAAAAAAAAAAAAAAAAAAAAAAAAAAAAAAAAAAAAAAAAAAAAAAAAAAAAAAAAAAAAAAAAAAAAAAAAAAAAAAAAAAAAAAAAAAAAAAAAAAAAAAAAAAAAAAAAAAAAAAAAAAAAAAAAAAAAAAAAAAAAAAAAAAAAAAAAAAAAAAAAAAAAAAAAAAAAAAAAAAAAAAAAAAAAAAAAAAAAAAAAAAAAAAAAAAAAAAAAAAAAAAAAAAAAAAAAAAAAAAAAAAAAAAAAAAAAAAAAAAAAAAAAAAAAAAAAAAAAAAAAAAAAAAAAAAAAAAAAAAAAAAAAAAAAAAAAAAAAAAAAAAAAAAAAAAAAAAAAAAAAAAAAAAAAAAAAAAAAAAAAAAAAAAAAAAAAAAAAAAAAAAAAAAAAAAAAAAAAAAAAAAAAAAAAAAAAAAAAAAAAAAAAAAAAAAAAAAAAAAAAAAAAAAAAAAAAAAAAAAAAAAAAAAAAAAAAAAAAAAAAAAAAAAAAAAAAAAAAAAAAAAAAAAAAAAAAAAAAAAAAAAAAAAAAAAAAAAAAAAAAAAAAAAAAAAAAAAAAAAAAAAAAAAAAAAAAAAAAAAAAAAAAAAAAAAAAAAAAAAAAAAAAAAAAAAAAAAAAAAAAAAAAAAAAAAAAAAAAAAAAAAAAAAAAAAAAAAAAAAAAAAAAAAAAAAAAAAAAAAAAAAAAAAAAAAAAAAAAAAAAAAAAAAAAAAAAAAAAAAAAAAAAAAAAAAAAAAAAAAAAAAAAAAAAAAAAAAAAAAAAAAAAAAAAAAAAAAAAAAAAAAAAAAAAAAAAAAAAAAAAAAAAAAAAAAAAAAAAAAAAAAAAAAAAAAAAAAAAAAAAAAAAAAAAAAAAAAAAAAAAAAAAAAAAAAAAAAAAAAAAAAAAAAAAAAAAAAAAAAAAAAAAAAAAAAAAAAAAAAAAAAAAAAAAAAAAAAAAAAAAAAAAAAAAAAAAAAAAAAAAAAAAAAAAAAAAAAAAAAAAAAAAAAAAAAAAAAAAAAAAAAAAAAAAAAAAAAAAAAAAAAAAAAAAAAAAAAAAAAAAAAAAAAAAAAAAAAAAAAAAAAAAAAAAAAAAAAAAAAAAAAAAAAAAAAAAAAAAAAAAAAAAAAAAAAAAAAAAAAAAAAAAAAAAAAAAAAAAAAAAAAAAAAAAAAAAAAAAAAAAAAAAAAAAAAAAAAAAAAAAAAAAAAAAAAAAAAAAAAAAAAAAAAAAAAAAAAAAAAAAAAAAAAAAAAAAAAAAAAAAAAAAAAAAAAAAAAAAAAAAAAAAAAAAAAAAAAAAAAAAAAAAAAAAAAAAAAAAAAAAAAAAAAAAAAAAAAAAAAAAAAAAAAAAAAAAAAAAAAAAAAAAAAAAAAAAAAAAAAAAAAAAAAAAAAAAAAAAAAAAAAAAAAAAAAAAAAAAAAAAAAAAAAAAAAAAAAAAAAAAAAAAAAAAAAAAAAAAAAAAAAAAAAAAAAAAAAAAAAAAAAAAAAAAAAAAAAAAAAAAAAAAAAAAAAAAAAAAAAAAAAAAAAAAAAAAAAAAAAAAAAAAAAAAAAAAAAAAAAAAAAAAAAAAAAAAAAAAAAAAAAAAAAAAAAAAAAAAAAAAAAAAAAAAAAAAAAAAAAAAAAAAAAAAAAAAAAAAAAAAAAAAAAAAAAAAAAAAAAAAAAAAAAAAAAAAAAAAAAAAAAAAAAAAAAAAAAAAAAAAAAAAAAAAAAAAAAAAAAAAAAAAAAAAAAAAAAAAAAAAAAAAAAAAAAAAAAAAAAAAAAAAAAAAAAAAAAAAAAAAAAAAAAAAAAAAAAAAAAAAAAAAAAAAAAAAAAAAAAAAAAAAAAAAAAAAAAAAAAAAAAAAAAAAAAAAAAAAAAAAAAAAAAAAAAAAAAAAAAAAAAAAAAAAAAAAAAAAAAAAAAAAAAAAAAAAAAAAAAAAAAAAAAAAAAAAAAAAAAAAAAAAAAAAAAAAAAAAAAAAAAAAAAAAAAAAAAAAAAAAAAAAAAAAAAAAAAAAAAAAAAAAAAAAAAAAAAAAAAAAAAAAAAAAAAAAAAAAAAAAAAAAAAAAAAAAAAAAAAAAAAAAAAAAAAAAAAAAAAAAAAAAAAAAAAAAAAAAAAAAAAAAAAAAAAAAAAAAAAAAAAAAAAAAAAAAAAAAAAAAAAAAAAAAAAAAAAAAAAAAAAAAAAAAAAAAAAAAAAAAAAAAAAAAAAAAAAAAAAAAAAAAAAAAAAAAAAAAAAAAAAAAAAAAAAAAAAAAAAAAAAAAAAAAAAAAAAAAAAAAAAAAAAAAAAAAAAAAAAAAAAAAAAAAAAAAAAAAAAAAAAAAAAAAAAAAAAAAAAAAAAAAAAAAAAAAAAAAAAAAAAAAAAAAAAAAAAAAAAAAAAAAAAAAAAAAAAAAAAAAAAAAAAAAAAAAAAAAAAAAAAAAAAAAAAAAAAAAAAAAAAAAAAAAAAAAAAAAAAAAAAAAAAAAAAAAAAAAAAAAAAAAAAAAAAAAAAAAAAAAAAAAAAAAAAAAAAAAAAAAAAAAAAAAAAAAAAAAAAAAAAAAAAAAAAAAAAAAAAAAAAAAAAAAAAAAAAAAAAAAAAAAAAAAAAAAAAAAAAAAAAAAAAAAAAAAAAAAAAAAAAAAAAAAAAAAAAAAAAAAAAAAAAAAAAAAAAAAAAAAAAAAAAAAAAAAAAAAAAAAAAAAAAAAAAAAAAAAAAAAAAAAAAAAAAAAAAAAAAAAAAAAAAAAAAAAAAAAAAAAAAAAAAAAAAAAAAAAAAAAAAAAAAAAAAAAAAAAAAAAAAAAAAAAAAAAAAAAAAAAAAAAAAAAAAAAAAAAAAAAAAAAAAAAAAAAAAAAAAAAAAAAAAAAAAAAAAAAAAAAAAAAAAAAAAAAAAAAAAAAAAAAAAAAAAAAAAAAAAAAAAAAAAAAAAAAAAAAAAAAAAAAAAAAAAAAAAAAAAAAAAAAAAAAAAAAAAAAAAAAAAAAAAAAAAAAAAAAAAAAAAAAAAAAAAAAAAAAAAAAAAAAAAAAAAAAAAAAAAAAAAAAAAAAAAAAAAAAAAAAAAAAAAAAAAAAAAAAAAAAAAAAAAAAAAAAAAAAAAAAAAAAAAAAAAAAAAAAAAAAAAAAAAAAAAAAAAAAAAAAAAAAAAAAAAAAAAAAAAAAAAAAAAAAAAAAAAAAAAAAAAAAAAAAAAAAAAAAAAAAAAAAAAAAAAAAAAAAAAAAAAAAAAAAAAAAAAAAAAAAAAAAAAAAAAAAAAAAAAAAAAAAAAAAAAAAAAAAAAAAAAAAAAAAAAAAAAAAAAAAAAAAAAAAAAAAAAAAAAAAAAAAAAAAAAAAAAAAAAAAAAAAAAAAAAAAAAAAAAAAAAAAAAAAAAAAAAAAAAAAAAAAAAAAAAAAAAAAAAAAAAAAAAAAAAAAAAAAAAAAAAAAAAAAAAAAAAAAAAAAAAAAAAAAAAAAAAAAAAAAAAAAAAAAAAAAAAAAAAAAAAAAAAAAAAAAAAAAAAAAAAAAAAAAAAAAAAAAAAAAAAAAAAAAAAAAAAAAAAAAAAAAAAAAAAAAAAAAAAAAAAAAAAAAAAAAAAAAAAAAAAAAAAAAAAAAAAAAAAAAAAAAAAAAAAAAAAAAAAAAAAAAAAAAAAAAAAAAAAAAAAAAAAAAAAAAAAAAAAAAAAAAAAAAAAAAAAAAAAAAAAAAAAAAAAAAAAAAAAAAAAAAAAAAAAAAAAAAAAAAAAAAAAAAAAAAAAAAAAAAAAAAAAAAAAAAAAAAAAAAAAAAAAAAAAAAAAAAAAAAAAAAAAAAAAAAAAAAAAAAAAAAAAAAAAAAAAAAAAAAAAAAAAAAAAAAAAAAAAAAAAAAAAAAAAAAAAAAAAAAAAAAAAAAAAAAAAAAAAAAAAAAAAAAAAAAAAAAAAAAAAAAAAAAAAAAAAAAAAAAAAAAAAAAAAAAAAAAAAAAAAAAAAAAAAAAAAAAAAAAAAAAAAAAAAAAAAAAAAAAAAAAAAAAAAAAAAAAAAAAAAAAAAAAAAAAAAAAAAAAAAAAAAAAAAAAAAAAAAAAAAAAAAAAAAAAAAAAAAAAAAAAAAAAAAAAAAAAAAAAAAAAAAAAAAAAAAAAAAAAAAAAAAAAAAAAAAAAAAAAAAAAAAAAAAAAAAAAAAAAAAAAAAAAAAAAAAAAAAAAAAAAAAAAAAAAAAAAAAAAAAAAAAAAAAAAAAAAAAAAAAAAAAAAAAAAAAAAAAAAAAAAAAAAAAAAAAAAAAAAAAAAAAAAAAAAAAAAAAAAAAAAAAAAAAAAAAAAAAAAAAAAAAAAAAAAAAAAAAAAAAAAAAAAAAAAAAAAAAAAAAAAAAAAAAAAAAAAAAAAAAAAAAAAAAAAAAAAAAAAAAAAAAAAAAAAAAAAAAAAAAAAAAAAAAAAAAAAAAAAAAAAAAAAAAAAAAAAAAAAAAAAAAAAAAAAAAAAAAAAAAAAAAAAAAAAAAAAAAAAAAAAAAAAAAAAAAAAAAAAAAAAAAAAAAAAAAAAAAAAAAAAAAAAAAAAAAAAAAAAAAAAAAAAAAAAAAAAAAAAAAAAAAAAAAAAAAAAAAAAAAAAAAAAAAAAAAAAAAAAAAAAAAAAAAAAAAAAAAAAAAAAAAAAAAAAAAAAAAAAAAAAAAAAAAAAAAAAAAAAAAAAAAAAAAAAAAAAAAAAAAAAAAAAAAAAAAAAAAAAAAAAAAAAAAAAAAAAAAAAAAAAAAAAAAAAAAAAAAAAAAAAAAAAAAAAAAAAAAAAAAAAAAAAAAAAAAAAAAAAAAAAAAAAAAAAAAAAAAAAAAAAAAAAAAAAAAAAAAAAAAAAAAAAAAAAAAAAAAAAAAAAAAAAAAAAAAAAAAAAAAAAAAAAAAAAAAAAAAAAAAAAAAAAAAAAAAAAAAAAAAAAAAAAAAAAAAAAAAAAAAAAAAAAAAAAAAAAAAAAAAAAAAAAAAAAAAAAAAAAAAAAAAAAAAAAAAAAAAAAAAAAAAAAAAAAAAAAAAAAAAAAAAAAAAAAAAAAAAAAAAAAAAAAAAAAAAAAAAAAAAAAAAAAAAAAAAAAAAAAAAAAAAAAAAAAAAAAAAAAAAAAAAAAAAAAAAAAAAAAAAAAAAAAAAAAAAAAAAAAAAAAAAAAAAAAAAAAAAAAAAAAAAAAAAAAAAAAAAAAAAAAAAAAAAAAAAAAAAAAAAAAAAAAAAAAAAAAAAAAAAAAAAAAAAAAAAAAAAAAAAAAAAAAAAAAAAAAAAAAAAAAAAAAAAAAAAAAAAAAAAAAAAAAAAAAAAAAAAAAAAAAAAAAAAAAAAAAAAAAAAAAAAAAAAAAAAAAAAAAAAAAAAAAAAAAAAAAAAAAAAAAAAAAAAAAAAAAAAAAAAAAAAAAAAAAAAAAAAAAAAAAAAAAAAAAAAAAAAAAAAAAAAAAAAAAAAAAAAAAAAAAAAAAAAAAAAAAAAAAAAAAAAAAAAAAAAAAAAAAAAAAAAAAAAAAAAAAAAAAAAAAAAAAAAAAAAAAAAAAAAAAAAAAAAAAAAAAAAAAAAAAAAAAAAAAAAAAAAAAAAAAAAAAAAAAAAAAAAAAAAAAAAAAAAAAAAAAAAAAAAAAAAAAAAAAAAAAAAAAAAAAAAAAAAAAAAAAAAAAAAAAAAAAAAAAAAAAAAAAAAAAAAAAAAAAAAAAAAAAAAAAAAAAAAAAAAAAAAAAAAAAAAAAAAAAAAAAAAAAAAAAAAAAAAAAAAAAAAAAAAAAAAAAAAAAAAAAAAAAAAAAAAAAAAAAAAAAAAAAAAAAAAAAAAAAAAAAAAAAAAAAAAAAAAAAAAAAAAAAAAAAAAAAAAAAAAAAAAAAAAAAAAAAAAAAAAAAAAAAAAAAAAAAAAAAAAAAAAAAAAAAAAAAAAAAAAAAAAAAAAAAAAAAAAAAAAAAAAAAAAAAAAAAAAAAAAAAAAAAAAAAAAAAAAAAAAAAAAAAAAAAAAAAAAAAAAAAAAAAAAAAAAAAAAAAAAAAAAAAAAAAAAAAAAAAAAAAAAAAAAAAAAAAAAAAAAAAAAAAAAAAAAAAAAAAAAAAAAAAAAAAAAAAAAAAAAAAAAAAAAAAAAAAAAAAAAAAAAAAAAAAAAAAAAAAAAAAAAAAAAAAAAAAAAAAAAAAAAAAAAAAAAAAAAAAAAAAAAAAAAAAAAAAAAAAAAAAAAAAAAAAAAAAAAAAAAAAAAAAAAAAAAAAAAAAAAAAAAAAAAAAAAAAAAAAAAAAAAAAAAAAAAAAAAAAAAAAAAAAAAAAAAAAAAAAAAAAAAAAAAAAAAAAAAAAAAAAAAAAAAAAAAAAAAAAAAAAAAAAAAAAAAAAAAAAAAAAAAAAAAAAAAAAAAAAAAAAAAAAAAAAAAAAAAAAAAAAAAAAAAAAAAAAAAAAAAAAAAAAAAAAAAAAAAAAAAAAAAAAAAAAAAAAAAAAAAAAAAAAAAAAAAAAAAAAAAAAAAAAAAAAAAAAAAAAAAAAAAAAAAAAAAAAAAAAAAAAAAAAAAAAAAAAAAAAAAAAAAAAAAAAAAAAAAAAAAAAAAAAAAAAAAAAAAAAAAAAAAAAAAAAAAAAAAAAAAAAAAAAAAAAAAAAAAAAAAAAAAAAAAAAAAAAAAAAAAAAAAAAAAAAAAAAAAAAAAAAAAAAAAAAAAAAAAAAAAAAAAAAAAAAAAAAAAAAAAAAAAAAAAAAAAAAAAAAAAAAAAAAAAAAAAAAAAAAAAAAAAAAAAAAAAAAAAAAAAAAAAAAAAAAAAAAAAAAAAAAAAAAAAAAAAAAAAAAAAAAAAAAAAAAAAAAAAAAAAAAAAAAAAAAAAAAAAAAAAAAAAAAAAAAAAAAAAAAAAAAAAAAAAAAAAAAAAAAAAAAAAAAAAAAAAAAAAAAAAAAAAAAAAAAAAAAAAAAAAAAAAAAAAAAAAAAAAAAAAAAAAAAAAAAAAAAAAAAAAAAAAAAAAAAAAAAAAAAAAAAAAAAAAAAAAAAAAAAAAAAAAAAAAAAAAAAAAAAAAAAAAAAAAAAAAAAAAAAAAAAAAAAAAAAAAAAAAAAAAAAAAAAAAAAAAAAAAAAAAAAAAAAAAAAAAAAAAAAAAAAAAAAAAAAAAAAAAAAAAAAAAAAAAAAAAAAAAAAAAAAAAAAAAAAAAAAAAAAAAAAAAAAAAAAAAAAAAAAAAAAAAAAAAAAAAAAAAAAAAAAAAAAAAAAAAAAAAAAAAAAAAAAAAAAAAAAAAAAAAAAAAAAAAAAAAAAAAAAAAAAAAAAAAAAAAAAAAAAAAAAAAAAAAAAAAAAAAAAAAAAAAAAAAAAAAAAAAAAAAAAAAAAAAAAAAAAAAAAAAAAAAAAAAAAAAAAAAAAAAAAAAAAAAAAAAAAAAAAAAAAAAAAAAAAAAAAAAAAAAAAAAAAAAAAAAAAAAAAAAAAAAAAAAAAAAAAAAAAAAAAAAAAAAAAAAAAAAAAAAAAAAAAAAAAAAAAAAAAAAAAAAAAAAAAAAAAAAAAAAAAAAAAAAAAAAAAAAAAAAAAAAAAAAAAAAAAAAAAAAAAAAAAAAAAAAAAAAAAAAAAAAAAAAAAAAAAAAAAAAAAAAAAAAAAAAAAAAAAAAAAAAAAAAAAAAAAAAAAAAAAAAAAAAAAAAAAAAAAAAAAAAAAAAAAAAAAAAAAAAAAAAAAAAAAAAAAAAAAAAAAAAAAAAAAAAAAAAAAAAAAAAAAAAAAAAAAAAAAAAAAAAAAAAAAAAAAAAAAAAAAAAAAAAAAAAAAAAAAAAAAAAAAAAAAAAAAAAAAAAAAAAAAAAAAAAAAAAAAAAAAAAAAAAAAAAAAAAAAAAAAAAAAAAAAAAAAAAAAAAAAAAAAAAAAAAAAAAAAAAAAAAAAAAAAAAAAAAAAAAAAAAAAAAAAAAAAAAAAAAAAAAAAAAAAAAAAAAAAAAAAAAAAAAAAAAAAAAAAAAAAAAAAAAAAAAAAAAAAAAAAAAAAAAAAAAAAAAAAAAAAAAAAAAAAAAAAAAAAAAAAAAAAAAAAAAAAAAAAAAAAAAAAAAAAAAAAAAAAAAAAAAAAAAAAAAAAAAAAAAAAAAAAAAAAAAAAAAAAAAAAAAAAAAAAAAAAAAAAAAAAAAAAAAAAAAAAAAAAAAAAAAAAAAAAAAAAAAAAAAAAAAAAAAAAAAAAAAAAAAAAAAAAAAAAAAAAAAAAAAAAAAAAAAAAAAAAAAAAAAAAAAAAAAAAAAAAAAAAAAAAAAAAAAAAAAAAAAAAAAAAAAAAAAAAAAAAAAAAAAAAAAAAAAAAAAAAAAAAAAAAAAAAAAAAAAAAAAAAAAAAAAAAAAAAAAAAAAAAAAAAAAAAAAAAAAAAAAAAAAAAAAAAAAAAAAAAAAAAAAAAAAAAAAAAAAAAAAAAAAAAAAAAAAAAAAAAAAAAAAAAAAAAAAAAAAAAAAAAAAAAAAAAAAAAAAAAAAAAAAAAAAAAAAAAAAAAAAAAAAAAAAAAAAAAAAAAAAAAAAAAAAAAAAAAAAAAAAAAAAAAAAAAAAAAAAAAAAAAAAAAAAAAAAAAAAAAAAAAAAAAAAAAAAAAAAAAAAAAAAAAAAAAAAAAAAAAAAAAAAAAAAAAAAAAAAAAAAAAAAAAAAAAAAAAAAAAAAAAAAAAAAAAAAAAAAAAAAAAAAAAAAAAAAAAAAAAAAAAAAAAAAAAAAAAAAAAAAAAAAAAAAAAAAAAAAAAAAAAAAAAAAAAAAAAAAAAAAAAAAAAAAAAAAAAAAAAAAAAAAAAAAAAAAAAAAAAAAAAAAAAAAAAAAAAAAAAAAAAAAAAAAAAAAAAAAAAAAAAAAAAAAAAAAAAAAAAAAAAAAAAAAAAAAAAAAAAAAAAAAAAAAAAAAAAAAAAAAAAAAAAAAAAAAAAAAAAAAAAAAAAAAAAAAAAAAAAAAAAAAAAAAAAAAAAAAAAAAAAAAAAAAAAAAAAAAAAAAAAAAAAAAAAAAAAAAAAAAAAAAAAAAAAAAAAAAAAAAAAAAAAAAAAAAAAAAAAAAAAAAAAAAAAAAAAAAAAAAAAAAAAAAAAAAAAAAAAAAAAAAAAAAAAAAAAAAAAAAAAAAAAAAAAAAAAAAAAAAAAAAAAAAAAAAAAAAAAAAAAAAAAAAAAAAAAAAAAAAAAAAAAAAAAAAAAAAAAAAAAAAAAAAAAAAAAAAAAAAAAAAAAAAAAAAAAAAAAAAAAAAAAAAAAAAAAAAAAAAAAAAAAAAAAAAAAAAAAAAAAAAAAAAAAAAAAAAAAAAAAAAAAAAAAAAAAAAAAAAAAAAAAAAAAAAAAAAAAAAAAAAAAAAAAAAAAAAAAAAAAAAAAAAAAAAAAAAAAAAAAAAAAAAAAAAAAAAAAAAAAAAAAAAAAAAAAAAAAAAAAAAAAAAAAAAAAAAAAAAAAAAAAAAAAAAAAAAAAAAAAAAAAAAAAAAAAAAAAAAAAAAAAAAAAAAAAAAAAAAAAAAAAAAAAAAAAAAAAAAAAAAAAAAAAAAAAAAAAAAAAAAAAAAAAAAAAAAAAAAAAAAAAAAAAAAAAAAAAAAAAAAAAAAAAAAAAAAAAAAAAAAAAAAAAAAAAAAAAAAAAAAAAAAAAAAAAAAAAAAAAAAAAAAAAAAAAAAAAAAAAAAAAAAAAAAAAAAAAAAAAAAAAAAAAAAAAAAAAAAAAAAAAAAAAAAAAAAAAAAAAAAAAAAAAAAAAAAAAAAAAAAAAAAAAAAAAAAAAAAAAAAAAAAAAAAAAAAAAAAAAAAAAAAAAAAAAAAAAAAAAAAAAAAAAAAAAAAAAAAAAAAAAAAAAAAAAAAAAAAAAAAAAAAAAAAAAAAAAAAAAAAAAAAAAAAAAAAAAAAAAAAAAAAAAAAAAAAAAAAAAAAAAAAAAAAAAAAAAAAAAAAAAAAAAAAAAAAAAAAAAAAAAAAAAAAAAAAAAAAAAAAAAAAAAAAAAAAAAAAAAAAAAAAAAAAAAAAAAAAAAAAAAAAAAAAAAAAAAAAAAAAAAAAAAAAAAAAAAAAAAAAAAAAAAAAAAAAAAAAAAAAAAAAAAAAAAAAAAAAAAAAAAAAAAAAAAAAAAAAAAAAAAAAAAAAAAAAAAAAAAAAAAAAAAAAAAAAAAAAAAAAAAAAAAAAAAAAAAAAAAAAAAAAAAAAAAAAAAAAAAAAAAAAAAAAAAAAAAAAAAAAAAAAAAAAAAAAAAAAAAAAAAAAAAAAAAAAAAAAAAAAAAAAAAAAAAAAAAAAAAAAAAAAAAAAAAAAAAAAAAAAAAAAAAAAAAAAAAAAAAAAAAAAAAAAAAAAAAAAAAAAAAAAAAAAAAAAAAAAAAAAAAAAAAAAAAAAAAAAAAAAAAAAAAAAAAAAAAAAAAAAAAAAAAAAAAAAAAAAAAAAAAAAAAAAAAAAAAAAAAAAAAAAAAAAAAAAAAAAAAAAAAAAAAAAAAAAAAAAAAAAAAAAAAAAAAAAAAAAAAAAAAAAAAAAAAAAAAAAAAAAAAAAAAAAAAAAAAAAAAAAAAAAAAAAAAAAAAAAAAAAAAAAAAAAAAAAAAAAAAAAAAAAAAAAAAAAAAAAAAAAAAAAAAAAAAAAAAAAAAAAAAAAAAAAAAAAAAAAAAAAAAAAAAAAAAAAAAAAAAAAAAAAAAAAAAAAAAAAAAAAAAAAAAAAAAAAAAAAAAAAAAAAAAAAAAAAAAAAAAAAAAAAAAAAAAAAAAAAAAAAAAAAAAAAAAAAAAAAAAAAAAAAAAAAAAAAAAAAAAAAAAAAAAAAAAAAAAAAAAAAAAAAAAAAAAAAAAAAAAAAAAAAAAAAAAAAAAAAAAAAAAAAAAAAAAAAAAAAAAAAAAAAAAAAAAAAAAAAAAAAAAAAAAAAAAAAAAAAAAAAAAAAAAAAAAAAAAAAAAAAAAAAAAAAAAAAAAAAAAAAAAAAAAAAAAAAAAAAAAAAAAAAAAAAAAAAAAAAAAAAAAAAAAAAAAAAAAAAAAAAAAAAAAAAAAAAAAAAAAAAAAAAAAAAAAAAAAAAAAAAAAAAAAAAAAAAAAAAAAAAAAAAAAAAAAAAAAAAAAAAAAAAAAAAAAAAAAAAAAAAAAAAAAAAAAAAAAAAAAAAAAAAAAAAAAAAAAAAAAAAAAAAAAAAAAAAAAAAAAAAAAAAAAAAAAAAAAAAAAAAAAAAAAAAAAAAAAAAAAAAAAAAAAAAAAAAAAAAAAAAAAAAAAAAAAAAAAAAAAAAAAAAAAAAAAAAAAAAAAAAAAAAAAAAAAAAAAAAAAAAAAAAAAAAAAAAAAAAAAAAAAAAAAAAAAAAAAAAAAAAAAAAAAAAAAAAAAAAAAAAAAAAAAAAAAAAAAAAAAAAAAAAAAAAAAAAAAAAAAAAAAAAAAAAAAAAAAAAAAAAAAAAAAAAAAAAAAAAAAAAAAAAAAAAAAAAAAAAAAAAAAAAAAAAAAAAAAAAAAAAAAAAAAAAAAAAAAAAAAAAAAAAAAAAAAAAAAAAAAAAAAAAAAAAAAAAAAAAAAAAAAAAAAAAAAAAAAAAAAAAAAAAAAAAAAAAAAAAAAAAAAAAAAAAAAAAAAAAAAAAAAAAAAAAAAAAAAAAAAAAAAAAAAAAAAAAAAAAAAAAAAAAAAAAAAAAAAAAAAAAAAAAAAAAAAAAAAAAAAAAAAAAAAAAAAAAAAAAAAAAAAAAAAAAAAAAAAAAAAAAAAAAAAAAAAAAAAAAAAAAAAAAAAAAAAAAAAAAAAAAAAAAAAAAAAAAAAAAAAAAAAAAAAAAAAAAAAAAAAAAAAAAAAAAAAAAAAAAAAAAAAAAAAAAAAAAAAAAAAAAAAAAAAAAAAAAAAAAAAAAAAAAAAAAAAAAAAAAAAAAAAAAAAAAAAAAAAAAAAAAAAAAAAAAAAAAAAAAAAAAAAAAAAAAAAAAAAAAAAAAAAAAAAAAAAAAAAAAAAAAAAAAAAAAAAAAAAAAAAAAAAAAAAAAAAAAAAAAAAAAAAAAAAAAAAAAAAAAAAAAAAAAAAAAAAAAAAAAAAAAAAAAAAAAAAAAAAAAAAAAAAAAAAAAAAAAAAAAAAAAAAAAAAAAAAAAAAAAAAAAAAAAAAAAAAAAAAAAAAAAAAAAAAAAAAAAAAAAAAAAAAAAAAAAAAAAAAAAAAAAAAAAAAAAAAAAAAAAAAAAAAAAAAAAAAAAAAAAAAAAAAAAAAAAAAAAAAAAAAAAAAAAAAAAAAAAAAAAAAAAAAAAAAAAAAAAAAAAAAAAAAAAAAAAAAAAAAAAAAAAAAAAAAAAAAAAAAAAAAAAAAAAAAAAAAAAAAAAAAAAAAAAAAAAAAAAAAAAAAAAAAAAAAAAAAAAAAAAAAAAAAAAAAAAAAAAAAAAAAAAAAAAAAAAAAAAAAAAAAAAAAAAAAAAAAAAAAAAAAAAAAAAAAAAAAAAAAAAAAAAAAAAAAAAAAAAAAAAAAAAAAAAAAAAAAAAAAAAAAAAAAAAAAAAAAAAAAAAAAAAAAAAAAAAAAAAAAAAAAAAAAAAAAAAAAAAAAAAAAAAAAAAAAAAAAAAAAAAAAAAAAAAAAAAAAAAAAAAAAAAAAAAAAAAAAAAAAAAAAAAAAAAAAAAAAAAAAAAAAAAAAAAAAAAAAAAAAAAAAAAAAAAAAAAAAAAAAAAAAAAAAAAAAAAAAAAAAAAAAAAAAAAAAAAAAAAAAAAAAAAAAAAAAAAAAAAAAAAAAAAAAAAAAAAAAAAAAAAAAAAAAAAAAAAAAAAAAAAAAAAAAAAAAAAAAAAAAAAAAAAAAAAAAAAAAAAAAAAAAAAAAAAAAAAAAAAAAAAAAAAAAAAAAAAAAAAAAAAAAAAAAAAAAAAAAAAAAAAAAAAAAAAAAAAAAAAAAAAAAAAAAAAAAAAAAAAAAAAAAAAAAAAAAAAAAAAAAAAAAAAAAAAAAAAAAAAAAAAAAAAAAAAAAAAAAAAAAAAAAAAAAAAAAAAAAAAAAAAAAAAAAAAAAAAAAAAAAAAAAAAAAAAAAAAAAAAAAAAAAAAAAAAAAAAAAAAAAAAAAAAAAAAAAAAAAAAAAAAAAAAAAAAAAAAAAAAAAAAAAAAAAAAAAAAAAAAAAAAAAAAAAAAAAAAAAAAAAAAAAAAAAAAAAAAAAAAAAAAAAAAAAAAAAAAAAAAAAAAAAAAAAAAAAAAAAAAAAAAAAAAAAAAAAAAAAAAAAAAAAAAAAAAAAAAAAAAAAAAAAAAAAAAAAAAAAAAAAAAAAAAAAAAAAAAAAAAAAAAAAAAAAAAAAAAAAAAAAAAAAAAAAAAAAAAAAAAAAAAAAAAAAAAAAAAAAAAAAAAAAAAAAAAAAAAAAAAAAAAAAAAAAAAAAAAAAAAAAAAAAAAAAAAAAAAAAAAAAAAAAAAAAAAAAAAAAAAAAAAAAAAAAAAAAAAAAAAAAAAAAAAAAAAAAAAAAAAAAAAAAAAAAAAAAAAAAAAAAAAAAAAAAAAAAAAAAAAAAAAAAAAAAAAAAAAAAAAAAAAAAAAAAAAAAAAAAAAAAAAAAAAAAAAAAAAAAAAAAAAAAAAAAAAAAAAAAAAAAAAAAAAAAAAAAAAAAAAAAAAAAAAAAAAAAAAAAAAAAAAAAAAAAAAAAAAAAAAAAAAAAAAAAAAAAAAAAAAAAAAAAAAAAAAAAAAAAAAAAAAAAAAAAAAAAAAAAAAAAAAAAAAAAAAAAAAAAAAAAAAAAAAAAAAAAAAAAAAAAAAAAAAAAAAAAAAAAAAAAAAAAAAAAAAAAAAAAAAAAAAAAAAAAAAAAAAAAAAAAAAAAAAAAAAAAAAAAAAAAAAAAAAAAAAAAAAAAAAAAAAAAAAAAAAAAAAAAAAAAAAAAAAAAAAAAAAAAAAAAAAAAAAAAAAAAAAAAAAAAAAAAAAAAAPZYQJRK59GStBnM3Q7VnwIUelU+wlrBcfqsYEhThJU/29jC+/0gZX198xLI1QkMDWjNjpEwhMnENvLUXx0kD+xK1vU=</c2pa:manifest></metadata>
<path transform="translate(0,0)" fill="rgb(20,22,30)" d="M 0 0 L 2048 0 L 2048 2048 L 0 2048 L 0 0 z"/>
<path transform="translate(0,0)" fill="rgb(26,130,254)" d="M 573.996 384.944 C 606.804 384.205 642.319 384.921 675.282 384.899 L 879.07 384.812 L 1471.94 384.913 L 1471.85 969.14 C 1472.15 1089.33 1470.87 1212 1472.31 1331.94 L 1276.1 1331.89 L 1276.04 1249.32 C 1283.64 1255.37 1286.68 1257.5 1295.73 1260.42 L 1295.42 1261.89 C 1289.11 1292.51 1316.17 1301.22 1339.85 1303.78 C 1385.73 1308.76 1398.76 1314.27 1420 1269.86 C 1438.89 1230.36 1443.9 1203.45 1413.91 1168.51 C 1423.49 1148.45 1428.94 1131.63 1427.71 1108.99 C 1425.95 1076.54 1402.41 1040.74 1378.38 1019.77 C 1381.38 1005.33 1382.53 994.285 1377.66 979.851 C 1371.99 963.22 1359.84 949.587 1343.97 942.049 C 1324.16 932.53 1306.64 935.243 1286.82 942.166 C 1278.09 934.621 1270.79 929.455 1261.41 922.799 C 1300.96 914.998 1333.97 899.086 1357.38 864.2 C 1361.44 858.149 1364.1 850.352 1368.53 844.484 C 1372.02 839.853 1376.89 836.039 1380.63 831.601 C 1406.89 796.383 1406.25 745.007 1383.1 708.473 C 1376.3 697.684 1364.87 691.645 1356.36 682.653 C 1352.54 678.615 1348.77 672.978 1345.12 668.598 C 1340.01 662.45 1334.87 656.636 1329.21 650.923 C 1290.76 612.477 1241.51 586.661 1188.01 576.912 C 1139.11 568.39 1068.78 571.897 1022.17 587.533 C 999.292 595.236 977.694 606.321 958.096 620.417 C 910.468 654.037 872.392 702.259 862.51 760.838 C 856.357 796.869 864.843 833.867 886.085 863.614 C 913.545 901.475 957.022 920.553 1002.06 927.679 L 1000.77 931.237 C 962.934 924.966 940.559 940.385 925.612 974.249 C 897.961 987.873 891.356 987.832 860.872 986.872 C 862.485 947.378 859.934 926.407 830.791 898.453 C 835.72 865.828 842.99 819.43 798.248 808.865 C 776.4 803.52 753.864 823.181 755.622 845.177 C 757.578 869.633 767.813 882.492 763.444 908.257 C 746.257 909.06 734.294 909.96 721.03 923.717 C 708.88 936.319 706.914 954.567 707.693 971.472 C 709.081 1001.58 714.742 1032.47 737.593 1053.99 C 761.2 1076.23 787.216 1070.03 816.955 1068.93 C 829.107 1078.28 846.74 1084.18 861.893 1085.58 C 898.191 1088.91 924.089 1076.31 951.336 1054.13 C 949.452 1072.63 948.885 1084.62 948.995 1102.94 C 943.082 1101.54 937.102 1100.44 931.078 1099.64 C 827.759 1085.04 733.262 1151.72 719.263 1256.25 C 701.996 1263.52 699.305 1272.01 699.553 1290.53 C 699.738 1304.27 699.902 1318.24 700.026 1332 L 574.114 1332.13 L 573.996 384.944 z"/>
<path transform="translate(0,0)" fill="rgb(28,59,209)" d="M 1478.02 384.975 C 1501.72 386.29 1521.41 389.214 1543.73 398.174 C 1590.1 416.999 1626.99 453.631 1646.13 499.871 C 1654.39 519.281 1659.24 539.974 1660.45 561.034 C 1661.57 578.662 1660.98 602.45 1660.98 620.432 L 1660.97 720.674 L 1660.98 1028.25 L 1661.04 1336.22 L 1661.01 1435.81 C 1660.97 1479.86 1663.74 1513.31 1646.56 1555.25 C 1644.57 1559.87 1642.28 1564.39 1640.06 1568.91 C 1627.35 1548.41 1610.64 1526.12 1596.84 1505.87 L 1478.48 1334.31 C 1476.65 1310.56 1478.03 1266.95 1478.04 1242.2 L 1478.63 1042.21 L 1478.02 384.975 z"/>
<path transform="translate(0,0)" fill="rgb(20,22,30)" d="M 1560.27 477.035 C 1604.05 474.945 1611.44 612.068 1614.09 642.541 C 1618.42 692.364 1618.89 896.438 1570.17 921.994 C 1501.89 935.471 1493.54 518.385 1560.27 477.035 z"/>
<path transform="translate(0,0)" fill="rgb(28,59,209)" d="M 1562.41 482.668 C 1563.52 482.781 1564.91 482.849 1565.98 483.24 C 1571.89 485.402 1576.32 491.688 1579.39 496.898 C 1612.04 552.283 1612.56 708.086 1607.87 774.148 C 1605.63 805.782 1601.78 838.6 1593.65 869.308 C 1589.29 885.743 1583.23 908.223 1567.6 917.279 C 1508.9 912.328 1502.42 521.265 1562.41 482.668 z"/>
<path transform="translate(0,0)" fill="rgb(20,22,30)" d="M 1554.02 972.213 C 1573.53 974.521 1579.72 989.975 1588.17 1005.61 C 1606.44 1039.42 1621.38 1155.22 1577.02 1174.9 C 1525.76 1175.68 1500.94 988.313 1554.02 972.213 z"/>
<path transform="translate(0,0)" fill="rgb(28,59,209)" d="M 1551.14 978.969 C 1595.2 973.915 1621.23 1134.29 1577.92 1169.04 C 1541.32 1178.15 1506.34 1015.52 1551.14 978.969 z"/>
<path transform="translate(0,0)" fill="rgb(28,59,209)" d="M 553.776 385.396 C 557.651 384.975 563.907 385.025 567.982 384.926 L 568.133 1334.93 C 559.127 1349.68 547.018 1366.25 536.988 1380.53 L 481.916 1458.08 C 473.289 1470.14 409.401 1563.03 405.596 1564.66 L 404.051 1563.02 C 383.205 1523.86 385.444 1483.14 385.365 1440.42 L 385.282 1343.66 L 385.389 1024.37 L 385.613 711.279 L 385.581 616.178 C 385.569 596.611 384.932 569.886 387.344 551.033 C 391.772 515.679 405.771 482.205 427.832 454.226 C 459.026 415.491 504.328 390.732 553.776 385.396 z"/>
<path transform="translate(0,0)" fill="rgb(20,22,30)" d="M 481.112 477.1 C 490.477 476.858 495.605 480.932 501.065 488.232 C 547.35 550.117 550.178 888.21 487.397 922.119 C 484.14 922.422 481.171 922.766 478.01 921.719 C 470.359 919.184 464.513 909.318 461.07 902.432 C 422.032 824.346 426.679 598.739 454.987 515.159 C 459.985 500.4 466.401 484.429 481.112 477.1 z"/>
<path transform="translate(0,0)" fill="rgb(28,59,209)" d="M 481.161 482.82 C 541.263 483.868 547.291 865.883 487.065 917.127 C 426.724 922.027 420.822 526.63 481.161 482.82 z"/>
<path transform="translate(0,0)" fill="rgb(20,22,30)" d="M 486.072 973.098 C 541.649 965.709 530.937 1147.91 477.003 1174.03 C 427.537 1184.18 427.738 1006.04 486.072 973.098 z"/>
<path transform="translate(0,0)" fill="rgb(28,59,209)" d="M 489.326 977.867 C 532.396 979.128 523.317 1144.36 474.736 1168.89 C 432.059 1167.27 439.39 1000.11 489.326 977.867 z"/>
<path transform="translate(0,0)" fill="rgb(236,232,210)" d="M 1085.77 580.417 C 1115.97 576.518 1160.37 587.75 1187.25 601.137 C 1234.94 624.885 1277.32 663.002 1295.08 714.172 C 1278.22 748.532 1279.61 774.262 1289.82 809.621 C 1282.39 828.246 1266.94 849.966 1252.87 864.216 C 1205.38 912.33 1149.44 924.341 1084.57 925.299 C 1023.7 925.368 963.923 926.035 914.271 884.732 C 843.536 825.891 858.859 733.617 912.852 669.737 C 956.288 618.113 1018.53 585.961 1085.77 580.417 z"/>
<path transform="translate(0,0)" fill="rgb(20,22,30)" d="M 962.727 680.336 C 1004.81 677.405 1041.3 709.116 1044.28 751.192 C 1047.26 793.268 1015.58 829.8 973.509 832.818 C 931.374 835.841 894.777 804.111 891.798 761.974 C 888.818 719.836 920.586 683.272 962.727 680.336 z"/>
<path transform="translate(0,0)" fill="rgb(20,22,30)" d="M 899.626 737.872 C 908.223 706.532 937.026 685.049 969.517 685.744 C 1002.01 686.438 1029.87 709.132 1037.12 740.811 C 1044.37 772.489 1029.15 805.042 1000.2 819.799 C 971.245 834.557 935.965 827.741 914.592 803.261 C 898.956 785.352 893.337 760.799 899.626 737.872 z"/>
<path transform="translate(0,0)" fill="rgb(236,232,210)" d="M 899.626 737.872 C 908.223 706.532 937.026 685.049 969.517 685.744 C 1002.01 686.438 1029.87 709.132 1037.12 740.811 C 1044.37 772.489 1029.15 805.042 1000.2 819.799 C 971.245 834.557 935.965 827.741 914.592 803.261 L 916.234 800.771 C 935.919 821.627 967.202 826.564 992.353 812.786 C 1017.5 799.007 1030.18 769.986 1023.21 742.17 C 1016.23 714.353 991.35 694.755 962.673 694.481 C 933.996 694.207 908.749 713.326 901.24 741.004 L 899.626 737.872 z"/>
<path transform="translate(0,0)" fill="rgb(153,150,155)" d="M 899.626 737.872 L 901.24 741.004 C 895.495 762.178 901.175 784.816 916.234 800.771 L 914.592 803.261 C 898.956 785.352 893.337 760.799 899.626 737.872 z"/>
<path transform="translate(0,0)" fill="rgb(254,161,81)" d="M 967.332 729.927 C 983.757 729.125 997.741 741.751 998.616 758.173 C 999.49 774.595 986.926 788.634 970.509 789.581 C 953.988 790.534 939.842 777.874 938.962 761.35 C 938.082 744.825 950.804 730.735 967.332 729.927 z"/>
<path transform="translate(0,0)" fill="rgb(20,22,30)" d="M 1144.51 682.657 C 1186.21 676.516 1224.99 705.377 1231.08 747.093 C 1237.17 788.808 1208.26 827.551 1166.54 833.59 C 1124.89 839.619 1086.23 810.771 1080.15 769.128 C 1074.07 727.485 1102.87 688.788 1144.51 682.657 z"/>
<path transform="translate(0,0)" fill="rgb(20,22,30)" d="M 1086.07 744.929 C 1092.13 713.144 1118.99 689.525 1151.29 687.574 C 1183.59 685.622 1213.09 705.835 1222.94 736.659 C 1232.79 767.483 1220.47 801.059 1193.02 818.195 C 1165.57 835.331 1129.99 831.658 1106.62 809.275 C 1089.31 792.695 1081.57 768.475 1086.07 744.929 z"/>
<path transform="translate(0,0)" fill="rgb(236,232,210)" d="M 1086.07 744.929 C 1092.13 713.144 1118.99 689.525 1151.29 687.574 C 1183.59 685.622 1213.09 705.835 1222.94 736.659 C 1232.79 767.483 1220.47 801.059 1193.02 818.195 C 1165.57 835.331 1129.99 831.658 1106.62 809.275 L 1107.99 806.113 C 1129.51 825.159 1161.18 827.263 1185.03 811.233 C 1208.88 795.203 1218.89 765.085 1209.38 737.967 C 1199.87 710.85 1173.24 693.58 1144.6 695.957 C 1115.96 698.333 1092.55 719.755 1087.64 748.069 L 1086.07 744.929 z"/>
<path transform="translate(0,0)" fill="rgb(153,150,155)" d="M 1106.62 809.275 C 1089.31 792.695 1081.57 768.475 1086.07 744.929 L 1087.64 748.069 C 1083.89 769.638 1091.6 791.604 1107.99 806.113 L 1106.62 809.275 z"/>
<path transform="translate(0,0)" fill="rgb(254,161,81)" d="M 1152.36 731.096 C 1168.4 729.029 1183.17 740.114 1185.66 756.093 C 1188.15 772.072 1177.46 787.127 1161.55 790.042 C 1150.88 791.997 1139.99 788.006 1133.11 779.619 C 1126.23 771.232 1124.44 759.77 1128.44 749.685 C 1132.44 739.601 1141.6 732.483 1152.36 731.096 z"/>
<path transform="translate(0,0)" fill="rgb(20,22,30)" d="M 1037.68 856.988 L 1036.32 856.218 C 1029.94 852.699 1024 848.134 1020.28 841.843 C 1018.37 838.621 1013.96 830.393 1018.99 827.924 C 1020.75 827.06 1021.41 829.271 1021.73 830.522 C 1024.31 840.723 1031.11 846.708 1039.99 851.591 C 1058.16 856.867 1070.23 856.834 1083.62 840.375 C 1086.65 836.652 1087.31 827.345 1091.52 828.142 C 1096.07 829.058 1092.55 837.271 1091.49 839.488 C 1081.83 859.609 1057.32 866.135 1037.68 856.988 z"/>
<path transform="translate(0,0)" fill="rgb(236,232,210)" d="M 1252.69 924.735 C 1263.01 930.608 1271.9 937.472 1281.34 944.574 C 1266.26 953.66 1255.17 967.578 1250.82 984.736 C 1246.41 1001.43 1248.98 1019.19 1257.94 1033.95 C 1269.54 1053.17 1284.36 1061.16 1305.32 1066.35 C 1314.06 1098.1 1311 1133.74 1292.64 1161.66 C 1290.41 1165.49 1280.08 1172.8 1278.37 1176.32 C 1270.5 1192.56 1267.27 1198.35 1253.62 1210.26 C 1206.24 1251.56 1149.13 1257.09 1089.29 1252.87 C 1086.74 1227.95 1078.57 1209.01 1066.26 1187.44 C 1040.39 1144.69 1002.09 1118.9 955.158 1104.25 C 952.933 1074.89 957.953 1037.7 967.01 1009.35 C 979.677 969.701 989.594 949.398 1025.62 929.817 C 1047.34 961.169 1098.98 974.046 1135.28 973.105 C 1181.24 971.914 1220.5 958.07 1252.69 924.735 z"/>
<path transform="translate(0,0)" fill="rgb(28,59,209)" d="M 991.623 1262.5 C 1025.64 1262.19 1059.66 1262.36 1093.67 1263.01 C 1106.32 1272.62 1105.45 1278.42 1105.23 1293.88 C 1104.88 1317.76 1106.55 1342.57 1104.76 1366.33 C 1099.4 1375.25 1096.15 1377.94 1085.6 1378.44 C 1074.12 1378.99 1062.78 1378.43 1051.3 1378.25 C 1035.98 1378.14 1020.65 1378.1 1005.33 1378.15 L 820.281 1377.79 L 752.369 1377.5 C 743.992 1377.51 726.15 1378.11 718.032 1376.98 C 697.304 1374.09 708.199 1328.68 706.13 1313.55 C 704.765 1303.56 705.885 1287.73 706.343 1277.84 C 706.656 1271.08 711.911 1266.58 717.106 1263.02 L 991.623 1262.5 z"/>
<path transform="translate(0,0)" fill="rgb(20,22,30)" d="M 892.926 1288.27 C 907.475 1285.12 921.831 1294.33 925.038 1308.86 C 928.246 1323.4 919.096 1337.79 904.573 1341.06 C 889.967 1344.34 875.473 1335.13 872.247 1320.51 C 869.022 1305.89 878.293 1291.43 892.926 1288.27 z"/>
<path transform="translate(0,0)" fill="rgb(254,161,81)" d="M 891.821 1294.37 C 903.001 1290.6 915.123 1296.6 918.903 1307.78 C 922.684 1318.96 916.693 1331.08 905.519 1334.87 C 894.332 1338.67 882.189 1332.67 878.404 1321.48 C 874.619 1310.29 880.628 1298.15 891.821 1294.37 z"/>
<path transform="translate(0,0)" fill="rgb(20,22,30)" d="M 1015.96 1288.71 C 1030.27 1284.75 1045.09 1293.13 1049.07 1307.44 C 1053.04 1321.75 1044.67 1336.58 1030.37 1340.57 C 1016.04 1344.57 1001.18 1336.18 997.202 1321.85 C 993.22 1307.52 1001.62 1292.67 1015.96 1288.71 z"/>
<path transform="translate(0,0)" fill="rgb(254,161,81)" d="M 1019.36 1293.66 C 1030.8 1291.61 1041.78 1299.11 1044.02 1310.51 C 1046.25 1321.92 1038.93 1333.01 1027.56 1335.43 C 1020.05 1337.04 1012.25 1334.46 1007.16 1328.7 C 1002.08 1322.93 1000.5 1314.87 1003.02 1307.62 C 1005.55 1300.36 1011.8 1295.02 1019.36 1293.66 z"/>
<path transform="translate(0,0)" fill="rgb(20,22,30)" d="M 830.017 1288.56 C 844.285 1284.97 858.787 1293.51 862.578 1307.72 C 866.368 1321.94 858.043 1336.56 843.885 1340.56 C 834.543 1343.2 824.504 1340.6 817.615 1333.76 C 810.726 1326.92 808.054 1316.9 810.623 1307.54 C 813.191 1298.18 820.603 1290.92 830.017 1288.56 z"/>
<path transform="translate(0,0)" fill="rgb(254,161,81)" d="M 833.026 1293.59 C 844.563 1291.71 855.475 1299.44 857.517 1310.95 C 859.559 1322.46 851.973 1333.47 840.491 1335.67 C 832.925 1337.12 825.166 1334.38 820.182 1328.51 C 815.198 1322.64 813.76 1314.53 816.42 1307.3 C 819.079 1300.07 825.424 1294.84 833.026 1293.59 z"/>
<path transform="translate(0,0)" fill="rgb(20,22,30)" d="M 957.092 1288.33 C 971.781 1286.25 985.373 1296.47 987.461 1311.16 C 989.548 1325.85 979.341 1339.45 964.656 1341.55 C 949.952 1343.65 936.33 1333.43 934.24 1318.72 C 932.15 1304.02 942.384 1290.4 957.092 1288.33 z"/>
<path transform="translate(0,0)" fill="rgb(254,161,81)" d="M 955.418 1294.39 C 962.816 1292.42 970.698 1294.61 976.032 1300.1 C 981.366 1305.59 983.32 1313.53 981.142 1320.87 C 978.965 1328.21 972.995 1333.8 965.53 1335.49 C 954.275 1338.04 943.051 1331.11 940.294 1319.9 C 937.537 1308.7 944.264 1297.35 955.418 1294.39 z"/>
<path transform="translate(0,0)" fill="rgb(20,22,30)" d="M 770.808 1288.33 C 785.409 1286.48 798.745 1296.81 800.605 1311.41 C 802.466 1326.01 792.146 1339.36 777.549 1341.23 C 762.932 1343.11 749.565 1332.77 747.702 1318.15 C 745.839 1303.54 756.187 1290.18 770.808 1288.33 z"/>
<path transform="translate(0,0)" fill="rgb(254,161,81)" d="M 772.7 1293.45 C 784.415 1292.67 794.546 1301.54 795.32 1313.25 C 796.093 1324.97 787.216 1335.09 775.499 1335.85 C 763.798 1336.61 753.693 1327.75 752.92 1316.05 C 752.148 1304.35 761 1294.24 772.7 1293.45 z"/>
<path transform="translate(0,0)" fill="rgb(254,161,81)" d="M 724.974 1257.14 C 725.494 1253.24 726.087 1249.35 726.754 1245.48 C 742.654 1156.95 828.369 1095.47 916.812 1103.57 C 927.883 1104.58 938.16 1106.32 949.037 1108.36 L 955.705 1110.34 C 1004.45 1126.51 1044.23 1155.78 1067.65 1202.43 C 1075.66 1218.36 1081.09 1235.45 1083.76 1253.08 L 1083.9 1256.02 C 1081.73 1257.46 988.438 1257.4 977.316 1256.95 C 967.283 1257.13 957.262 1256.97 947.225 1257.12 L 941.208 1257.26 L 724.974 1257.14 z"/>
<path transform="translate(0,0)" fill="rgb(251,200,141)" d="M 949.037 1108.36 L 955.705 1110.34 C 1004.45 1126.51 1044.23 1155.78 1067.65 1202.43 C 1075.66 1218.36 1081.09 1235.45 1083.76 1253.08 L 1083.9 1256.02 C 1081.73 1257.46 988.438 1257.4 977.316 1256.95 C 967.283 1257.13 957.262 1256.97 947.225 1257.12 L 941.208 1257.26 C 944.84 1240.64 961.645 1196.23 968.046 1180.24 C 956.729 1150.19 950.967 1142.43 949.037 1108.36 z"/>
<path transform="translate(0,0)" fill="rgb(246,135,41)" d="M 949.037 1108.36 L 955.705 1110.34 C 957.896 1174.21 1003.69 1229.48 1065.03 1247.48 C 1071.07 1249.25 1077.88 1251.03 1083.76 1253.08 L 1083.9 1256.02 C 1081.73 1257.46 988.438 1257.4 977.316 1256.95 C 967.283 1257.13 957.262 1256.97 947.225 1257.12 L 941.208 1257.26 C 944.84 1240.64 961.645 1196.23 968.046 1180.24 C 956.729 1150.19 950.967 1142.43 949.037 1108.36 z"/>
<path transform="translate(0,0)" fill="rgb(251,200,141)" d="M 952.709 1244.06 C 958.534 1247.06 972.001 1252.95 976.111 1256.06 L 977.316 1256.95 C 967.283 1257.13 957.262 1256.97 947.225 1257.12 C 949.235 1252.8 950.769 1248.43 952.709 1244.06 z"/>
<path transform="translate(0,0)" fill="rgb(28,59,209)" d="M 1065.69 1497.17 L 1301.72 1497.82 C 1316.21 1526 1330.27 1554.39 1343.9 1583 L 1303.5 1583.05 L 1023.98 1583.03 L 1023.91 1501.92 C 1033.04 1501.88 1042.49 1502.61 1051.54 1502.31 C 1060.04 1502.03 1060.63 1502.57 1065.69 1497.17 z"/>
<path transform="translate(0,0)" fill="rgb(28,59,209)" d="M 1024.04 1588.77 C 1131.43 1590.13 1240.22 1588.36 1347.81 1588.9 L 1377.57 1648.21 C 1379.44 1651.9 1383.89 1659.08 1382.81 1662.39 C 1265.06 1663.67 1142.28 1663.35 1024.39 1662.42 C 1023.69 1638.69 1024.11 1612.68 1024.04 1588.77 z"/>
<path transform="translate(0,0)" fill="rgb(28,59,209)" d="M 698.996 1588.88 L 1018.14 1588.98 L 1018.34 1662.6 L 981.5 1662.63 L 785.002 1662.61 C 744.14 1662.64 701.953 1663.19 661.183 1662.41 C 672.938 1638.1 686.55 1613.01 698.996 1588.88 z"/>
<path transform="translate(0,0)" fill="rgb(28,59,209)" d="M 460.997 1497.59 C 492.617 1498.53 527.334 1497.85 559.141 1497.85 L 738.947 1497.91 C 723.638 1524.81 711.711 1554.32 696.278 1581.22 C 694.942 1583.55 692.639 1582.95 690.25 1583.06 C 599.17 1583.84 507.495 1582.3 416.508 1583.39 C 413.524 1579.39 411.806 1576.05 409.408 1571.71 C 422.606 1550.14 445.75 1519.5 460.997 1497.59 z"/>
<path transform="translate(0,0)" fill="rgb(28,59,209)" d="M 1308.55 1497.69 L 1583.14 1497.58 C 1595.12 1512.39 1624.62 1555.45 1636.48 1573.64 C 1636.97 1574.39 1634.57 1577.55 1633.76 1578.83 C 1633.04 1579.83 1630.83 1582.89 1629.43 1582.94 C 1605.95 1583.86 1582.33 1583.25 1558.82 1583.23 L 1350.81 1583.19 C 1336.88 1554.6 1322.34 1526.35 1308.55 1497.69 z"/>
<path transform="translate(0,0)" fill="rgb(28,59,209)" d="M 746.59 1496.57 C 747.792 1497.5 750.791 1501.65 752.57 1501.72 C 775.415 1502.55 798.421 1502.02 821.305 1501.96 L 1018.2 1501.99 L 1018.11 1583 L 973.75 1583.11 L 702.414 1583.05 C 715.32 1557.19 732.462 1520.9 746.59 1496.57 z"/>
<path transform="translate(0,0)" fill="rgb(28,59,209)" d="M 524.922 1408.23 C 540.312 1409.67 571.74 1408.57 587.912 1408.78 C 641.093 1409.48 695.578 1407.18 748.616 1408.48 C 748.798 1429.05 753.185 1475.4 742.286 1491.92 L 691.5 1491.97 L 465.297 1491.83 C 484.906 1463.78 504.782 1435.91 524.922 1408.23 z"/>
<path transform="translate(0,0)" fill="rgb(28,59,209)" d="M 1292.19 1408.35 L 1522.03 1408.79 C 1539.9 1431.62 1563.2 1467.35 1580.45 1491.94 L 1509.75 1491.86 L 1305.82 1491.67 L 1295.02 1469.12 C 1305.29 1468.2 1350.96 1465.19 1355.57 1460.29 C 1387.3 1426.54 1314.49 1427.68 1298.89 1426.91 C 1296.36 1420.45 1294.26 1414.97 1292.19 1408.35 z"/>
<path transform="translate(0,0)" fill="rgb(236,232,210)" d="M 1342.73 1148.34 C 1353.3 1147.1 1364 1148.07 1374.17 1151.19 C 1421.16 1165.62 1443.81 1215.81 1418.98 1258.73 C 1409.11 1275.77 1403.41 1300.41 1378.82 1300.91 C 1359.17 1301.31 1338.61 1298.16 1319.53 1293.71 C 1310.58 1291.58 1304.47 1285.14 1300.48 1277.29 C 1296.35 1253.59 1326.58 1245.97 1316.2 1218.98 C 1314.28 1213.97 1308.34 1199.03 1301.1 1201.92 C 1300.27 1206.65 1310.16 1215.7 1310.93 1220.36 C 1317.38 1260.61 1279.84 1266.62 1272.97 1225.38 C 1265.67 1181.61 1303.28 1154.06 1342.73 1148.34 z"/>
<path transform="translate(0,0)" fill="rgb(28,59,209)" d="M 1354.41 1588.69 L 1627.09 1589.06 C 1614.42 1604.72 1607.2 1612.59 1591.39 1624.98 C 1545.11 1659.56 1506.4 1662.16 1452.3 1662.23 L 1391.12 1662.26 C 1378.55 1637.5 1366.42 1613.78 1354.41 1588.69 z"/>
<path transform="translate(0,0)" fill="rgb(28,59,209)" d="M 420.28 1589.05 C 450.426 1588.21 484.66 1588.96 515.013 1588.95 L 692.4 1589.09 C 684.258 1605.37 675.177 1622.08 666.69 1638.26 C 662.956 1645.97 657.83 1655.03 653.751 1662.74 L 591.025 1662.38 C 514.366 1661.9 471.379 1650.32 420.28 1589.05 z"/>
<path transform="translate(0,0)" fill="rgb(28,59,209)" d="M 1276.13 1337.9 L 1473.9 1338.08 C 1486.16 1355.48 1507.47 1385.31 1517.59 1402.93 C 1441.14 1403.11 1364.69 1402.86 1288.25 1402.2 C 1285.05 1396.63 1281.18 1392.57 1276.96 1387.75 C 1276.89 1371.25 1276.43 1354.42 1276.13 1337.9 z"/>
<path transform="translate(0,0)" fill="rgb(236,232,210)" d="M 761.296 914.477 C 781.249 914.957 824.117 905.58 818.395 943.255 C 817.368 950.011 809.604 955.419 804.082 958.834 C 797.345 959.017 740.534 960.687 738.059 961.539 C 736.194 964.489 736.411 962.989 737.012 966.121 C 757.087 972.137 812.905 951.612 823.064 978.794 C 838.711 1020.66 779.443 1010.13 756.972 1012.63 C 751.679 1013.22 742.945 1011.21 740.955 1016.68 L 742.079 1018.14 C 746.969 1019.95 756.61 1018.95 762.249 1018.7 C 771.1 1018.29 780.165 1017.78 789.002 1017.42 C 812.139 1016.49 830.475 1012.89 837.148 1039.87 C 834.134 1054.73 828.445 1062.83 812.198 1063.73 C 785.691 1065.21 763.171 1069.18 741.778 1049.79 C 721.246 1031.26 715.469 1003.35 713.718 976.83 C 711.338 940.765 721.199 915.555 761.296 914.477 z"/>
<path transform="translate(0,0)" fill="rgb(28,59,209)" d="M 1332.31 689.186 C 1339.56 688.549 1348.2 688.087 1354.86 691.451 C 1409.44 719.01 1408.18 824.385 1349.72 847.199 C 1323.84 853.51 1303.27 826.722 1294.95 805.48 C 1284.87 779.624 1285.5 750.813 1296.72 725.427 C 1304.43 707.914 1314.27 696.241 1332.31 689.186 z"/>
<path transform="translate(0,0)" fill="rgb(20,22,30)" d="M 1339.94 718.162 C 1346.53 717.633 1351.71 717.189 1357.24 721.442 C 1374.7 734.878 1377.4 763.334 1374.24 783.008 C 1373.42 788.417 1371.86 793.687 1369.6 798.669 C 1365.27 808.059 1359.43 813.578 1349.93 817.165 C 1308.01 818.339 1303.32 736.893 1339.94 718.162 z"/>
<path transform="translate(0,0)" fill="rgb(28,59,209)" d="M 1307.31 941.959 C 1339.94 937.749 1369.85 960.649 1374.3 993.243 C 1378.75 1025.84 1356.07 1055.92 1323.51 1060.61 C 1290.61 1065.35 1260.14 1042.38 1255.65 1009.44 C 1251.15 976.509 1274.34 946.213 1307.31 941.959 z"/>
<path transform="translate(0,0)" fill="rgb(28,59,209)" d="M 572.876 1338.07 L 700.127 1338.01 C 699.988 1343.74 699.902 1349.48 699.87 1355.21 C 699.896 1388.15 723.518 1383.8 748.435 1383.74 L 748.458 1402.54 C 734.093 1402.92 718.932 1402.74 704.503 1402.8 L 528.199 1402.97 C 539.407 1388.84 563.492 1353.39 572.876 1338.07 z"/>
<path transform="translate(0,0)" fill="rgb(236,232,210)" d="M 1213.51 1368.42 C 1231.47 1368.59 1248.31 1373.33 1262.95 1383.96 C 1279.78 1396.18 1291.79 1415.47 1294.59 1436.19 C 1295.16 1440.49 1295.27 1446.01 1291.99 1449.36 C 1286.44 1455.01 1232.55 1452.07 1220.5 1452.04 C 1208.31 1452.04 1148.99 1453.14 1141.92 1450.84 C 1139.52 1448.92 1137.7 1446.67 1137.8 1443.41 C 1139.15 1397.94 1170.02 1371.43 1213.51 1368.42 z"/>
<path transform="translate(0,0)" fill="rgb(28,59,209)" d="M 754.033 1462.04 L 1058.76 1461.61 C 1058.9 1473.24 1058.79 1484.86 1058.43 1496.49 C 957.626 1495.15 855.027 1496.12 754.123 1496.19 C 753.847 1485.14 754.048 1473.17 754.033 1462.04 z"/>
<path transform="translate(0,0)" fill="rgb(28,59,209)" d="M 1269.1 1250.84 L 1270.55 1251.39 C 1271.4 1255.03 1271.1 1281.21 1271.11 1286.23 L 1271.05 1381.77 C 1239.8 1361.98 1217.6 1357.65 1182.24 1368.8 C 1177.54 1371.19 1172.62 1373.48 1167.86 1375.77 C 1167.09 1344.6 1167.65 1311.65 1167.7 1280.35 C 1201.6 1279.11 1240.13 1268.77 1269.1 1250.84 z"/>
<path transform="translate(0,0)" fill="rgb(28,59,209)" d="M 1376.19 1025.5 C 1418.15 1066.49 1435.92 1109.3 1408.99 1164.11 C 1394.4 1152.96 1389.21 1150.04 1371.8 1144.87 C 1356.56 1141.19 1343.19 1142.17 1327.95 1144.64 C 1342.39 1111.04 1340.33 1094.58 1315.17 1067.49 C 1322.29 1067.17 1329.34 1065.88 1336.11 1063.65 C 1356.74 1056.8 1366.87 1044.2 1376.19 1025.5 z"/>
<path transform="translate(0,0)" fill="rgb(236,232,210)" d="M 790.643 813.314 C 791.392 813.374 792.139 813.447 792.885 813.534 C 837.987 818.911 828.65 869.811 824.621 900.544 C 838.746 914.824 849.34 925.227 853.052 945.951 C 858.54 976.595 856.358 1001.12 839.853 1027.16 C 832.996 1017.68 829.982 1016.03 819.59 1011.91 C 838.777 995.638 833.417 973.031 812.745 960.932 C 826.729 948.201 830.218 930.802 815.773 916.021 C 805.049 905.047 783.39 908.266 768.962 909 C 773.053 891.643 768.169 876.534 763.995 859.728 C 758.139 836.152 764.943 817.77 790.643 813.314 z"/>
<path transform="translate(0,0)" fill="rgb(28,59,209)" d="M 922.244 981.906 C 927.191 985.902 915.654 1015.04 954.621 1042.33 C 930.744 1069.67 892.035 1084.72 856.03 1078.81 C 844.856 1077.35 834.483 1072.96 824.383 1068.23 C 837.939 1058.03 844.172 1050.21 841.928 1032.4 C 853.067 1019.02 856.719 1009.97 859.79 992.975 C 886.702 994.034 898.077 993.95 922.244 981.906 z"/>
<path transform="translate(0,0)" fill="rgb(28,59,209)" d="M 1149.09 580.455 C 1149.09 580.457 1146.94 579.952 1146.95 579.94 C 1146.72 580.131 1144.88 578.809 1145.67 578.527 C 1149.39 577.209 1156.41 578.216 1160.13 578.92 C 1222.41 581.505 1289.72 616.891 1331.67 662.385 C 1337.78 668.986 1343.73 675.725 1349.52 682.595 C 1324.32 682.574 1314.85 688.355 1299.67 708.075 C 1271.13 641.215 1217.4 601.752 1149.09 580.455 z"/>
<path transform="translate(0,0)" fill="rgb(28,59,209)" d="M 1149.09 580.455 C 1149.09 580.457 1146.94 579.952 1146.95 579.94 C 1146.72 580.131 1144.88 578.809 1145.67 578.527 C 1149.39 577.209 1156.41 578.216 1160.13 578.92 C 1155.81 579.268 1152.84 578.524 1149.09 580.455 z"/>
<path transform="translate(0,0)" fill="rgb(28,59,209)" d="M 1273.84 1470.57 C 1278.53 1470.19 1283.91 1470.05 1288.68 1469.81 C 1292.28 1476.68 1295.84 1484.85 1299.13 1491.96 L 1083.75 1491.97 L 1064.05 1491.93 L 1063.95 1471.21 C 1129.7 1474.5 1208.28 1473.74 1273.84 1470.57 z"/>
<path transform="translate(0,0)" fill="rgb(236,232,210)" d="M 1099.02 1381.21 C 1107.95 1380.25 1121.71 1412.14 1123.19 1420.49 C 1128.52 1450.52 1115.77 1444.13 1088.12 1443.98 C 1079.72 1443.88 1071.32 1443.62 1062.93 1443.22 C 1062.85 1423.17 1062.88 1403.12 1063.03 1383.08 C 1075.93 1383.25 1086.39 1384.81 1099.02 1381.21 z"/>
<path transform="translate(0,0)" fill="rgb(28,59,209)" d="M 978.005 935.246 C 988.723 934.641 991.228 935.726 1001.24 938.086 C 979.406 956.021 964.309 991.411 958.2 1018.52 L 957.281 1022.54 C 956.285 1026.91 955.406 1031.31 954.25 1035.64 C 910.921 1005.03 928.806 945.995 978.005 935.246 z"/>
<path transform="translate(0,0)" fill="rgb(28,59,209)" d="M 1110.93 1337.97 C 1127.94 1338.16 1145.03 1337.88 1162 1338.15 C 1161.88 1352.51 1162.2 1365.26 1162.75 1379.41 C 1156.58 1384.93 1153.12 1388.03 1147.79 1394.51 C 1145.36 1397.78 1143.57 1400.55 1141.37 1403.89 C 1135.64 1403.89 1129.91 1403.96 1124.19 1404.09 C 1116.52 1389.77 1116.14 1388.58 1105.41 1375.9 C 1106.67 1373.72 1108.96 1371.36 1109.66 1368.94 C 1111.98 1360.93 1111 1346.75 1110.93 1337.97 z"/>
<path transform="translate(0,0)" fill="rgb(26,130,254)" d="M 1111.02 1281.35 L 1161.83 1281.1 L 1161.95 1331.86 L 1110.93 1331.93 C 1110.89 1315.79 1110.52 1297.29 1111.02 1281.35 z"/>
<path transform="translate(0,0)" fill="rgb(26,130,254)" d="M 1313.8 1076.47 C 1334.88 1090.08 1333.98 1120.52 1323.17 1139.53 C 1318.37 1147.96 1323.14 1145.74 1314.54 1149.64 L 1313.64 1150.05 C 1310.7 1151.39 1306.83 1153.51 1303.92 1155.08 C 1316.91 1118.57 1317.47 1115.31 1313.8 1076.47 z"/>
<path transform="translate(0,0)" fill="rgb(28,59,209)" d="M 1126.65 1409.49 C 1130.78 1409.65 1134.86 1409.7 1139.02 1409.88 C 1137.3 1415.03 1135.47 1420.55 1134.11 1425.77 C 1129.64 1437.29 1125.73 1412.67 1126.65 1409.49 z"/>
<path transform="translate(0,0)" fill="rgb(85,150,252)" d="M 1002.06 927.679 C 1002.56 927.78 1013 928.971 1011.83 930.27 C 1006.89 935.779 1005.94 933.672 1000.77 931.237 L 1002.06 927.679 z"/>
</svg>