<svg version="1.1" xmlns="http://www.w3.org/2000/svg" style="display: block;" viewBox="0 0 2048 2048" width="1024" height="1024" preserveAspectRatio="none" xmlns:c2pa="http://c2pa.org/manifest"><metadata><c2pa:manifest>AAAzs2p1bWIAAAAeanVtZGMycGEAEQAQgAAAqgA4m3EDYzJwYQAAADONanVtYgAAAEdqdW1kYzJtYQARABCAAACqADibcQN1cm46YzJwYTo1YzVlZjM0My1hMWM5LTQ4YWMtOTMwMy1jZjQ4OTNlNWYxZGIAAAAB4mp1bWIAAAApanVtZGMyYXMAEQAQgAAAqgA4m3EDYzJwYS5hc3NlcnRpb25zAAAAAO1qdW1iAAAAQWp1bWRjYm9yABEAEIAAAKoAOJtxE2MycGEuYWN0aW9ucy52MgAAAAAYYzJzaDq49vCTg+jZ/WOGvmJpKs4AAACkY2JvcqFnYWN0aW9uc4GjZmFjdGlvbmxjMnBhLmNyZWF0ZWRxZGlnaXRhbFNvdXJjZVR5cGV4Rmh0dHA6Ly9jdi5pcHRjLm9yZy9uZXdzY29kZXMvZGlnaXRhbHNvdXJjZXR5cGUvdHJhaW5lZEFsZ29yaXRobWljTWVkaWFrZGVzY3JpcHRpb252Q3JlYXRlZCBieSBSZWNyYWZ0IEFJLgAAAMRqdW1iAAAAQGp1bWRjYm9yABEAEIAAAKoAOJtxE2MycGEuaGFzaC5kYXRhAAAAABhjMnNoNf87jdJ1ALqPQbNwHa+suAAAAHxjYm9ypWpleGNsdXNpb25zgaJlc3RhcnQY22ZsZW5ndGgZRPBkbmFtZW5qdW1iZiBtYW5pZmVzdGNhbGdmc2hhMjU2ZGhhc2hYIMXF9dZt2EWKYIOk5M+jU8x8y/ejzbiGuS6XhPtIYIn7Y3BhZEkAAAAAAAAAAAAAAAI0anVtYgAAACdqdW1kYzJjbAARABCAAACqADibcQNjMnBhLmNsYWltLnYyAAAAAgVjYm9ypmppbnN0YW5jZUlEeCx4bXA6aWlkOmZhMzc2MmQxLWUwMjAtNDViNS04ZWFhLTIwMGI0OTgzZDQyMHRjbGFpbV9nZW5lcmF0b3JfaW5mb6NkbmFtZWpyZWNyYWZ0LmFpZ3ZlcnNpb254KDgxY2U4MmUyYzVjM2NiZmJlOGM2ZmJlMTc5ZDVmOGQ5MWM0MDljZTF3b3JnLmNvbnRlbnRhdXRoLmMycGFfcnNmMC45MC43aXNpZ25hdHVyZXhNc2VsZiNqdW1iZj0vYzJwYS91cm46YzJwYTo1YzVlZjM0My1hMWM5LTQ4YWMtOTMwMy1jZjQ4OTNlNWYxZGIvYzJwYS5zaWduYXR1cmVyY3JlYXRlZF9hc3NlcnRpb25zgqJjdXJseCpzZWxmI2p1bWJmPWMycGEuYXNzZXJ0aW9ucy9jMnBhLmFjdGlvbnMudjJkaGFzaFggyudHGjylwHVwDxTCNoqsFBsYlh1RY/E2RvD6WicjcM2iY3VybHgpc2VsZiNqdW1iZj1jMnBhLmFzc2VydGlvbnMvYzJwYS5oYXNoLmRhdGFkaGFzaFggGJRGjxkh3/bWPLAIbDdG2llHkhiacD2WEIw2JKlgmhVoZGM6dGl0bGV4GlJlY3JhZnQgQUkgR2VuZXJhdGVkIEltYWdlY2FsZ2ZzaGEyNTYAAC8oanVtYgAAAChqdW1kYzJjcwARABCAAACqADibcQNjMnBhLnNpZ25hdHVyZQAAAC74Y2JvctKEWQPsogEmGCGCWQH0MIIB8DCCAZWgAwIBAgIUJcFH1Va4pZJDhzepwEtzPPNj2YMwCgYIKoZIzj0EAwIwQTELMAkGA1UEBhMCVVMxEzARBgNVBAoMClJlY3JhZnQgQUkxHTAbBgNVBAMMFFJlY3JhZnQgQzJQQSBSb290IENBMB4XDTI2MDkxMDE2NTIzNFoXDTI3MDkxMDE2NTIzNFowNzELMAkGA1UEBhMCVVMxEzARBgNVBAoMClJlY3JhZnQgQUkxEzARBgNVBAMMCnJlY3JhZnQuYWkwWTATBgcqhkjOPQIBBggqhkjOPQMBBwNCAASoOPdqG3YmNRdGd+dltfh1ikcE/nkLm8YK10H29taFa8iegusHYB1678yl5Bs18hLaV/Fhd+Ni32xAlnHdbimFo3UwczAMBgNVHRMBAf8EAjAAMA4GA1UdDwEB/wQEAwIGwDATBgNVHSUEDDAKBggrBgEFBQcDBDAdBgNVHQ4EFgQUgVwhvbEXPSSgCubOfUHxCtuoVAQwHwYDVR0jBBgwFoAUc9yF+sfWlRHeWv2Iucaec5jwdAgwCgYIKoZIzj0EAwIDSQAwRgIhAJltDpQN+vbXITLxb+8BNwSL6/5WktO4Sevkb0VXjtfWAiEAqhoz7z/sN32NxdnnZsQVTeu3P7CgGtJdXFx283fp08RZAewwggHoMIIBjaADAgECAhQAydo/NKOQWWu/4V5FktVQHX7jTDAKBggqhkjOPQQDAjBBMQswCQYDVQQGEwJVUzETMBEGA1UECgwKUmVjcmFmdCBBSTEdMBsGA1UEAwwUUmVjcmFmdCBDMlBBIFJvb3QgQ0EwHhcNMjYwOTEwMTY1MjM0WhcNMzYwOTA3MTY1MjM0WjBBMQswCQYDVQQGEwJVUzETMBEGA1UECgwKUmVjcmFmdCBBSTEdMBsGA1UEAwwUUmVjcmFmdCBDMlBBIFJvb3QgQ0EwWTATBgcqhkjOPQIBBggqhkjOPQMBBwNCAAQbQ+eF6fkpnHhTwrMxSBLh/JhROWkzsC8L8jN1r1Rlf8oECvzEFk3WujloPtNs3PLADriqR5rGtd+8giFuiTLno2MwYTAfBgNVHSMEGDAWgBRz3IX6x9aVEd5a/Yi5xp5zmPB0CDAPBgNVHRMBAf8EBTADAQH/MA4GA1UdDwEB/wQEAwIBhjAdBgNVHQ4EFgQUc9yF+sfWlRHeWv2Iucaec5jwdAgwCgYIKoZIzj0EAwIDSQAwRgIhAND2Z+xryBRnMbxk8eAzMcAq8bzl0rfA9Y2z7q5QoEUeAiEA6ZbI3e47h5clRZaARSOOotKXsK/YQMWC3vj91d3bmlOhY3BhZFkqtAAAAAAAAAAAAAAAAAAAAAAAAAAAAAAAAAAAAAAAAAAAAAAAAAAAAAAAAAAAAAAAAAAAAAAAAAAAAAAAAAAAAAAAAAAAAAAAAAAAAAAAAAAAAAAAAAAAAAAAAAAAAAAAAAAAAAAAAAAAAAAAAAAAAAAAAAAAAAAAAAAAAAAAAAAAAAAAAAAAAAAAAAAAAAAAAAAAAAAAAAAAAAAAAAAAAAAAAAAAAAAAAAAAAAAAAAAAAAAAAAAAAAAAAAAAAAAAAAAAAAAAAAAAAAAAAAAAAAAAAAAAAAAAAAAAAAAAAAAAAAAAAAAAAAAAAAAAAAAAAAAAAAAAAAAAAAAAAAAAAAAAAAAAAAAAAAAAAAAAAAAAAAAAAAAAAAAAAAAAAAAAAAAAAAAAAAAAAAAAAAAAAAAAAAAAAAAAAAAAAAAAAAAAAAAAAAAAAAAAAAAAAAAAAAAAAAAAAAAAAAAAAAAAAAAAAAAAAAAAAAAAAAAAAAAAAAAAAAAAAAAAAAAAAAAAAAAAAAAAAAAAAAAAAAAAAAAAAAAAAAAAAAAAAAAAAAAAAAAAAAAAAAAAAAAAAAAAAAAAAAAAAAAAAAAAAAAAAAAAAAAAAAAAAAAAAAAAAAAAAAAAAAAAAAAAAAAAAAAAAAAAAAAAAAAAAAAAAAAAAAAAAAAAAAAAAAAAAAAAAAAAAAAAAAAAAAAAAAAAAAAAAAAAAAAAAAAAAAAAAAAAAAAAAAAAAAAAAAAAAAAAAAAAAAAAAAAAAAAAAAAAAAAAAAAAAAAAAAAAAAAAAAAAAAAAAAAAAAAAAAAAAAAAAAAAAAAAAAAAAAAAAAAAAAAAAAAAAAAAAAAAAAAAAAAAAAAAAAAAAAAAAAAAAAAAAAAAAAAAAAAAAAAAAAAAAAAAAAAAAAAAAAAAAAAAAAAAAAAAAAAAAAAAAAAAAAAAAAAAAAAAAAAAAAAAAAAAAAAAAAAAAAAAAAAAAAAAAAAAAAAAAAAAAAAAAAAAAAAAAAAAAAAAAAAAAAAAAAAAAAAAAAAAAAAAAAAAAAAAAAAAAAAAAAAAAAAAAAAAAAAAAAAAAAAAAAAAAAAAAAAAAAAAAAAAAAAAAAAAAAAAAAAAAAAAAAAAAAAAAAAAAAAAAAAAAAAAAAAAAAAAAAAAAAAAAAAAAAAAAAAAAAAAAAAAAAAAAAAAAAAAAAAAAAAAAAAAAAAAAAAAAAAAAAAAAAAAAAAAAAAAAAAAAAAAAAAAAAAAAAAAAAAAAAAAAAAAAAAAAAAAAAAAAAAAAAAAAAAAAAAAAAAAAAAAAAAAAAAAAAAAAAAAAAAAAAAAAAAAAAAAAAAAAAAAAAAAAAAAAAAAAAAAAAAAAAAAAAAAAAAAAAAAAAAAAAAAAAAAAAAAAAAAAAAAAAAAAAAAAAAAAAAAAAAAAAAAAAAAAAAAAAAAAAAAAAAAAAAAAAAAAAAAAAAAAAAAAAAAAAAAAAAAAAAAAAAAAAAAAAAAAAAAAAAAAAAAAAAAAAAAAAAAAAAAAAAAAAAAAAAAAAAAAAAAAAAAAAAAAAAAAAAAAAAAAAAAAAAAAAAAAAAAAAAAAAAAAAAAAAAAAAAAAAAAAAAAAAAAAAAAAAAAAAAAAAAAAAAAAAAAAAAAAAAAAAAAAAAAAAAAAAAAAAAAAAAAAAAAAAAAAAAAAAAAAAAAAAAAAAAAAAAAAAAAAAAAAAAAAAAAAAAAAAAAAAAAAAAAAAAAAAAAAAAAAAAAAAAAAAAAAAAAAAAAAAAAAAAAAAAAAAAAAAAAAAAAAAAAAAAAAAAAAAAAAAAAAAAAAAAAAAAAAAAAAAAAAAAAAAAAAAAAAAAAAAAAAAAAAAAAAAAAAAAAAAAAAAAAAAAAAAAAAAAAAAAAAAAAAAAAAAAAAAAAAAAAAAAAAAAAAAAAAAAAAAAAAAAAAAAAAAAAAAAAAAAAAAAAAAAAAAAAAAAAAAAAAAAAAAAAAAAAAAAAAAAAAAAAAAAAAAAAAAAAAAAAAAAAAAAAAAAAAAAAAAAAAAAAAAAAAAAAAAAAAAAAAAAAAAAAAAAAAAAAAAAAAAAAAAAAAAAAAAAAAAAAAAAAAAAAAAAAAAAAAAAAAAAAAAAAAAAAAAAAAAAAAAAAAAAAAAAAAAAAAAAAAAAAAAAAAAAAAAAAAAAAAAAAAAAAAAAAAAAAAAAAAAAAAAAAAAAAAAAAAAAAAAAAAAAAAAAAAAAAAAAAAAAAAAAAAAAAAAAAAAAAAAAAAAAAAAAAAAAAAAAAAAAAAAAAAAAAAAAAAAAAAAAAAAAAAAAAAAAAAAAAAAAAAAAAAAAAAAAAAAAAAAAAAAAAAAAAAAAAAAAAAAAAAAAAAAAAAAAAAAAAAAAAAAAAAAAAAAAAAAAAAAAAAAAAAAAAAAAAAAAAAAAAAAAAAAAAAAAAAAAAAAAAAAAAAAAAAAAAAAAAAAAAAAAAAAAAAAAAAAAAAAAAAAAAAAAAAAAAAAAAAAAAAAAAAAAAAAAAAAAAAAAAAAAAAAAAAAAAAAAAAAAAAAAAAAAAAAAAAAAAAAAAAAAAAAAAAAAAAAAAAAAAAAAAAAAAAAAAAAAAAAAAAAAAAAAAAAAAAAAAAAAAAAAAAAAAAAAAAAAAAAAAAAAAAAAAAAAAAAAAAAAAAAAAAAAAAAAAAAAAAAAAAAAAAAAAAAAAAAAAAAAAAAAAAAAAAAAAAAAAAAAAAAAAAAAAAAAAAAAAAAAAAAAAAAAAAAAAAAAAAAAAAAAAAAAAAAAAAAAAAAAAAAAAAAAAAAAAAAAAAAAAAAAAAAAAAAAAAAAAAAAAAAAAAAAAAAAAAAAAAAAAAAAAAAAAAAAAAAAAAAAAAAAAAAAAAAAAAAAAAAAAAAAAAAAAAAAAAAAAAAAAAAAAAAAAAAAAAAAAAAAAAAAAAAAAAAAAAAAAAAAAAAAAAAAAAAAAAAAAAAAAAAAAAAAAAAAAAAAAAAAAAAAAAAAAAAAAAAAAAAAAAAAAAAAAAAAAAAAAAAAAAAAAAAAAAAAAAAAAAAAAAAAAAAAAAAAAAAAAAAAAAAAAAAAAAAAAAAAAAAAAAAAAAAAAAAAAAAAAAAAAAAAAAAAAAAAAAAAAAAAAAAAAAAAAAAAAAAAAAAAAAAAAAAAAAAAAAAAAAAAAAAAAAAAAAAAAAAAAAAAAAAAAAAAAAAAAAAAAAAAAAAAAAAAAAAAAAAAAAAAAAAAAAAAAAAAAAAAAAAAAAAAAAAAAAAAAAAAAAAAAAAAAAAAAAAAAAAAAAAAAAAAAAAAAAAAAAAAAAAAAAAAAAAAAAAAAAAAAAAAAAAAAAAAAAAAAAAAAAAAAAAAAAAAAAAAAAAAAAAAAAAAAAAAAAAAAAAAAAAAAAAAAAAAAAAAAAAAAAAAAAAAAAAAAAAAAAAAAAAAAAAAAAAAAAAAAAAAAAAAAAAAAAAAAAAAAAAAAAAAAAAAAAAAAAAAAAAAAAAAAAAAAAAAAAAAAAAAAAAAAAAAAAAAAAAAAAAAAAAAAAAAAAAAAAAAAAAAAAAAAAAAAAAAAAAAAAAAAAAAAAAAAAAAAAAAAAAAAAAAAAAAAAAAAAAAAAAAAAAAAAAAAAAAAAAAAAAAAAAAAAAAAAAAAAAAAAAAAAAAAAAAAAAAAAAAAAAAAAAAAAAAAAAAAAAAAAAAAAAAAAAAAAAAAAAAAAAAAAAAAAAAAAAAAAAAAAAAAAAAAAAAAAAAAAAAAAAAAAAAAAAAAAAAAAAAAAAAAAAAAAAAAAAAAAAAAAAAAAAAAAAAAAAAAAAAAAAAAAAAAAAAAAAAAAAAAAAAAAAAAAAAAAAAAAAAAAAAAAAAAAAAAAAAAAAAAAAAAAAAAAAAAAAAAAAAAAAAAAAAAAAAAAAAAAAAAAAAAAAAAAAAAAAAAAAAAAAAAAAAAAAAAAAAAAAAAAAAAAAAAAAAAAAAAAAAAAAAAAAAAAAAAAAAAAAAAAAAAAAAAAAAAAAAAAAAAAAAAAAAAAAAAAAAAAAAAAAAAAAAAAAAAAAAAAAAAAAAAAAAAAAAAAAAAAAAAAAAAAAAAAAAAAAAAAAAAAAAAAAAAAAAAAAAAAAAAAAAAAAAAAAAAAAAAAAAAAAAAAAAAAAAAAAAAAAAAAAAAAAAAAAAAAAAAAAAAAAAAAAAAAAAAAAAAAAAAAAAAAAAAAAAAAAAAAAAAAAAAAAAAAAAAAAAAAAAAAAAAAAAAAAAAAAAAAAAAAAAAAAAAAAAAAAAAAAAAAAAAAAAAAAAAAAAAAAAAAAAAAAAAAAAAAAAAAAAAAAAAAAAAAAAAAAAAAAAAAAAAAAAAAAAAAAAAAAAAAAAAAAAAAAAAAAAAAAAAAAAAAAAAAAAAAAAAAAAAAAAAAAAAAAAAAAAAAAAAAAAAAAAAAAAAAAAAAAAAAAAAAAAAAAAAAAAAAAAAAAAAAAAAAAAAAAAAAAAAAAAAAAAAAAAAAAAAAAAAAAAAAAAAAAAAAAAAAAAAAAAAAAAAAAAAAAAAAAAAAAAAAAAAAAAAAAAAAAAAAAAAAAAAAAAAAAAAAAAAAAAAAAAAAAAAAAAAAAAAAAAAAAAAAAAAAAAAAAAAAAAAAAAAAAAAAAAAAAAAAAAAAAAAAAAAAAAAAAAAAAAAAAAAAAAAAAAAAAAAAAAAAAAAAAAAAAAAAAAAAAAAAAAAAAAAAAAAAAAAAAAAAAAAAAAAAAAAAAAAAAAAAAAAAAAAAAAAAAAAAAAAAAAAAAAAAAAAAAAAAAAAAAAAAAAAAAAAAAAAAAAAAAAAAAAAAAAAAAAAAAAAAAAAAAAAAAAAAAAAAAAAAAAAAAAAAAAAAAAAAAAAAAAAAAAAAAAAAAAAAAAAAAAAAAAAAAAAAAAAAAAAAAAAAAAAAAAAAAAAAAAAAAAAAAAAAAAAAAAAAAAAAAAAAAAAAAAAAAAAAAAAAAAAAAAAAAAAAAAAAAAAAAAAAAAAAAAAAAAAAAAAAAAAAAAAAAAAAAAAAAAAAAAAAAAAAAAAAAAAAAAAAAAAAAAAAAAAAAAAAAAAAAAAAAAAAAAAAAAAAAAAAAAAAAAAAAAAAAAAAAAAAAAAAAAAAAAAAAAAAAAAAAAAAAAAAAAAAAAAAAAAAAAAAAAAAAAAAAAAAAAAAAAAAAAAAAAAAAAAAAAAAAAAAAAAAAAAAAAAAAAAAAAAAAAAAAAAAAAAAAAAAAAAAAAAAAAAAAAAAAAAAAAAAAAAAAAAAAAAAAAAAAAAAAAAAAAAAAAAAAAAAAAAAAAAAAAAAAAAAAAAAAAAAAAAAAAAAAAAAAAAAAAAAAAAAAAAAAAAAAAAAAAAAAAAAAAAAAAAAAAAAAAAAAAAAAAAAAAAAAAAAAAAAAAAAAAAAAAAAAAAAAAAAAAAAAAAAAAAAAAAAAAAAAAAAAAAAAAAAAAAAAAAAAAAAAAAAAAAAAAAAAAAAAAAAAAAAAAAAAAAAAAAAAAAAAAAAAAAAAAAAAAAAAAAAAAAAAAAAAAAAAAAAAAAAAAAAAAAAAAAAAAAAAAAAAAAAAAAAAAAAAAAAAAAAAAAAAAAAAAAAAAAAAAAAAAAAAAAAAAAAAAAAAAAAAAAAAAAAAAAAAAAAAAAAAAAAAAAAAAAAAAAAAAAAAAAAAAAAAAAAAAAAAAAAAAAAAAAAAAAAAAAAAAAAAAAAAAAAAAAAAAAAAAAAAAAAAAAAAAAAAAAAAAAAAAAAAAAAAAAAAAAAAAAAAAAAAAAAAAAAAAAAAAAAAAAAAAAAAAAAAAAAAAAAAAAAAAAAAAAAAAAAAAAAAAAAAAAAAAAAAAAAAAAAAAAAAAAAAAAAAAAAAAAAAAAAAAAAAAAAAAAAAAAAAAAAAAAAAAAAAAAAAAAAAAAAAAAAAAAAAAAAAAAAAAAAAAAAAAAAAAAAAAAAAAAAAAAAAAAAAAAAAAAAAAAAAAAAAAAAAAAAAAAAAAAAAAAAAAAAAAAAAAAAAAAAAAAAAAAAAAAAAAAAAAAAAAAAAAAAAAAAAAAAAAAAAAAAAAAAAAAAAAAAAAAAAAAAAAAAAAAAAAAAAAAAAAAAAAAAAAAAAAAAAAAAAAAAAAAAAAAAAAAAAAAAAAAAAAAAAAAAAAAAAAAAAAAAAAAAAAAAAAAAAAAAAAAAAAAAAAAAAAAAAAAAAAAAAAAAAAAAAAAAAAAAAAAAAAAAAAAAAAAAAAAAAAAAAAAAAAAAAAAAAAAAAAAAAAAAAAAAAAAAAAAAAAAAAAAAAAAAAAAAAAAAAAAAAAAAAAAAAAAAAAAAAAAAAAAAAAAAAAAAAAAAAAAAAAAAAAAAAAAAAAAAAAAAAAAAAAAAAAAAAAAAAAAAAAAAAAAAAAAAAAAAAAAAAAAAAAAAAAAAAAAAAAAAAAAAAAAAAAAAAAAAAAAAAAAAAAAAAAAAAAAAAAAAAAAAAAAAAAAAAAAAAAAAAAAAAAAAAAAAAAAAAAAAAAAAAAAAAAAAAAAAAAAAAAAAAAAAAAAAAAAAAAAAAAAAAAAAAAAAAAAAAAAAAAAAAAAAAAAAAAAAAAAAAAAAAAAAAAAAAAAAAAAAAAAAAAAAAAAAAAAAAAAAAAAAAAAAAAAAAAAAAAAAAAAAAAAAAAAAAAAAAAAAAAAAAAAAAAAAAAAAAAAAAAAAAAAAAAAAAAAAAAAAAAAAAAAAAAAAAAAAAAAAAAAAAAAAAAAAAAAAAAAAAAAAAAAAAAAAAAAAAAAAAAAAAAAAAAAAAAAAAAAAAAAAAAAAAAAAAAAAAAAAAAAAAAAAAAAAAAAAAAAAAAAAAAAAAAAAAAAAAAAAAAAAAAAAAAAAAAAAAAAAAAAAAAAAAAAAAAAAAAAAAAAAAAAAAAAAAAAAAAAAAAAAAAAAAAAAAAAAAAAAAAAAAAAAAAAAAAAAAAAAAAAAAAAAAAAAAAAAAAAAAAAAAAAAAAAAAAAAAAAAAAAAAAAAAAAAAAAAAAAAAAAAAAAAAAAAAAAAAAAAAAAAAAAAAAAAAAAAAAAAAAAAAAAAAAAAAAAAAAAAAAAAAAAAAAAAAAAAAAAAAAAAAAAAAAAAAAAAAAAAAAAAAAAAAAAAAAAAAAAAAAAAAAAAAAAAAAAAAAAAAAAAAAAAAAAAAAAAAAAAAAAAAAAAAAAAAAAAAAAAAAAAAAAAAAAAAAAAAAAAAAAAAAAAAAAAAAAAAAAAAAAAAAAAAAAAAAAAAAAAAAAAAAAAAAAAAAAAAAAAAAAAAAAAAAAAAAAAAAAAAAAAAAAAAAAAAAAAAAAAAAAAAAAAAAAAAAAAAAAAAAAAAAAAAAAAAAAAAAAAAAAAAAAAAAAAAAAAAAAAAAAAAAAAAAAAAAAAAAAAAAAAAAAAAAAAAAAAAAAAAAAAAAAAAAAAAAAAAAAAAAAAAAAAAAAAAAAAAAAAAAAAAAAAAAAAAAAAAAAAAAAAAAAAAAAAAAAAAAAAAAAAAAAAAAAAAAAAAAAAAAAAAAAAAAAAAAAAAAAAAAAAAAAAAAAAAAAAAAAAAAAAAAAAAAAAAAAAAAAAAAAAAAAAAAAAAAAAAAAAAAAAAAAAAAAAAAAAAAAAAAAAAAAAAAAAAAAAAAAAAAAAAAAAAAAAAAAAAAAAAAAAAAAAAAAAAAAAAAAAAAAAAAAAAAAAAAAAAAAAAAAAAAAAAAAAAAAAAAAAAAAAAAAAAAAAAAAAAAAAAAAAAAAAAAAAAAAAAAAAAAAAAAAAAAAAAAAAAAAAAAAAAAAAAAAAAAAAAAAAAAAAAAAAAAAAAAAAAAAAAAAAAAAAAAAAAAAAAAAAAAAAAAAAAAAAAAAAAAAAAAAAAAAAAAAAAAAAAAAAAAAAAAAAAAAAAAAAAAAAAAAAAAAAAAAAAAAAAAAAAAAAAAAAAAAAAAAAAAAAAAAAAAAAAAAAAAAAAAAAAAAAAAAAAAAAAAAAAAAAAAAAAAAAAAAAAAAAAAAAAAAAAAAAAAAAAAAAAAAAAAAAAAAAAAAAAAAAAAAAAAAAAAAAAAAAAAAAAAAAAAAAAAAAAAAAAAAAAAAAAAAAAAAAAAAAAAAAAAAAAAAAAAAAAAAAAAAAAAAAAAAAAAAAAAAAAAAAAAAAAAAAAAAAAAAAAAAAAAAAAAAAAAAAAAAAAAAAAAAAAAAAAAAAAAAAAAAAAAAAAAAAAAAAAAAAAAAAAAAAAAAAAAAAAAAAAAAAAAAAAAAAAAAAAAAAAAAAAAAAAAAAAAAAAAAAAAAAAAAAAAAAAAAAAAAAAAAAAAAAAAAAAAAAAAAAAAAAAAAAAAAAAAAAAAAAAAAAAAAAAAAAAAAAAAAAAAAAAAAAAAAAAAAAAAAAAAAAAAAAAAAAAAAAAAAAAAAAAAAAAAAAAAAAAAAAAAAAAAAAAAAAAAAAAAAAAAAAAAAAAAAAAAAAAAAAAAAAAAAAAAAAAAAAAAAAAAAAAAAAAAAAAAAAAAAAAAAAAAAAAAAAAAAAAAAAAAAAAAAAAAAAAAAAAAAAAAAAAAAAAAAAAAAAAAAAAAAAAAAAAAAAAAAAAAAAAAAAAAAAAAAAAAAAAAAAAAAAAAAAAAAAAAAAAAAAAAAAAAAAAAAAAAAAAAAAAAAAAAAAAAAAAAAAAAAAAAAAAAAAAAAAAAAAAAAAAAAAAAAAAAAAAAAAAAAAAAAAAAAAAAAAAAAAAAAAAAAAAAAAAAAAAAAAAAAAAAAAAAAAAAAAAAAAAAAAAAAAAAAAAAAAAAAAAAAAAAAAAAAAAAAAAAAAAAAAAAAAAAAAAAAAAAAAAAAAAAAAAAAAAAAAAAAAAAAAAAAAAAAAAAAAAAAAAAAAAAAAAAAAAAAAAAAAAAAAAAAAAAAAAAAAAAAAAAAAAAAAAAAAAAAAAAAAAAAAAAAAAAAAAAAAAAAAAAAAAAAAAAAAAAAAAAAAAAAAAAAAAAAAAAAAAAAAAAAAAAAAAAAAAAAAAAAAAAAAAAAAAAAAAAAAAAAAAAAAAAAAAAAAAAAAAAAAAAAAAAAAAAAAAAAAAAAAAAAAAAAAAAAAAAAAAAAAAAAAAAAAAAAAAAAAAAAAAAAAAAAAAAAAAAAAAAAAAAAAAAAAAAAAAAAAAAAAAAAAAAAAAAAAAAAAAAAAAAAAAAAAAAAAAAAAAAAAAAAAAAAAAAAAAAAAAAAAAAAAAAAAAAAAAAAAAAAAAAAAAAAAAAAAAAAAAAAAAAAAAAAAAAAAAAAAAAAAAAAAAAAAAAAAAAAAAAAAAAAAAAAAAAAAAAAAAAAAAAAAAAAAAAAAAAAAAAAAAAAAAAAAAAAAAAAAAAAAAAAAAAAAAAAAAAAAAAAAAAAAAAAAAAAAAAAAAAAAAAAAAAAAAAAAAAAAAAAAAAAAAAAAAAAAAAAAAAAAAAAAAAAAAAAAAAAAAAAAAAAAAAAAAAAAAAAAAAAAAAAAAAAAAAAAAAAAAAAAAAAAAAAAAAAAAAAAAAAAAAAAAAAAAAAAAAAAAAAAAAAAAAAAAAAAAAAAAAAAAAAAAAAAAAAAAAAAAAAAAAAAAAAAAAAAAAAAAAAAAAAAAAAAAAAAAAAAAAAAAAAAAAAAAAAAAAAAAAAAAAAAAAAAAAAAAAAAAAAAAAAAAAAAAAAAAAAAAAAAAAAAAAAAAAAAAAAAAAAAAAAAAAAAAAAAAAAAAAAAAAAAAAAAAAAAAAAAAAAAAAAAAAAAAAAAAAAAAAAAAAAAAAAAAAAAAAAAAAAAAAAAAAAAAAAAAAAAAAAAAAAAAAAAAAAAAAAAAAAAAAAAAAAAAAAAAAAAAAAAAAAAAAAAAAAAAAAAAAAAAAAAAAAAAAAAAAAAAAAAAAAAAAAAAAAAAAAAAAAAAAAAAAAAAAAAAAAAAAAAAAAAAAAAAAAAAAAAAAAAAAAAAAAAAAAAAAAAAAAAAAAAAAAAAAAAAAAAAAAAAAAAAAAAAAAAAAAAAAAAAAAAAAAAAAAAAAAAAAAAAAAAAAAAAAAAAAAAAAAAAAAAAAAAAAAAAAAAAAAAAAAAAAAAAAAAAAAAAAAAAAAAAAAAAAAAAAAAAAAAAAAAAAAAAAAAAAAAAAAAAAAAAAAAAAAAAAAAAAAAAAAAAAAAAAAAAAAAAAAAAAAAAAAAAAAAAAAAAAAAAAAAAAAAAAAAAAAAAAAAAAAAAAAAAAAAAAAAAAAAAAAAAAAAAAAAAAAAAAAAAAAAAAAAAAAAAAAAAAAAAAAAAAAAAAAAAAAAAAAAAAAAAAAAAAAAAAAAAAAAAAAAAAAAAAAAAAAAAAAAAAAAAAAAAAAAAAAAAAAAAAAAAAAAAAAAAAAAAAAAAAAAAAAAAAAAAAAAAAAAAAAAAAAAAAAAAAAAAAAAAAAAAAAAAAAAAAAAAAAAAAAAAAAAAAAAAAAAAAAAAAAAAAAAAAAAAAAAAAAAAAAAAAAAAAAAAAAAAAAAAAAAAAAAAAAAAAAAAAAAAAAAAAAAAAAAAAAAAAAAAAAAAAAAAAAAAAAAAAAAAAAAAAAAAAAAAAAAAAAAAAAAAAAAAAAAAAAAAAAAAAAAAAAAAAAAAAAAAAAAAAAAAAAAAAAAAAAAAAAAAAAAAAAAAAAAAAAAAAAAAAAAAAAAAAAAAAAAAAAAAAAAAAAAAAAAAAAAAAAAAAAAAAAAAAAAAAAAAAAAAAAAAAAAAAAAAAAAAAAAAAAAAAAAAAAAAAAAAAAAAAAAAAAAAAAAAAAAAAAAAAAAAAAAAAAAAAAAAAAAAAAAAAAAAAAAAAAAAAAAAAAAAAAAAAAAAAAAAAAAAAAAAAAAAAAAAAAAAAAAAAAAAAAAAAAAAAAAAAAAAAAAAAAAAAAAAAAAAAAAAAAAAAAAAAAAAAAAAAAAAAAAAAAAAAAAAAAAAAAAAAAAAAAAAAAAAAAAAAAAAAAAAAAAAAAAAAAAAAAAAAAAAAAAAAAAAAAAAAAAAAAAAAAAAAAAAAAAAAAAAAAAAAAAAAAAAAAAAAAAAAAAAAAAAAAAAAAAAAAAAAAAAAAAAAAAAAAAAAAAAAAAAAAAAAAAAAAAAAAAAAAAAAAAAAAAAAAAAAAAAAAAAAAAAAAAAAAAAAAAAAAAAAAAAAAAAAAAAAAAAAAAAAAAAAAAAAAAAAAAAAAAAAAAAAAAAAAAAAAAAAAAAAAAAAAAAAAAAAAAAAAAAAAAAAAAAAAAAAAAAAAAAAAAAAAAAAAAAAAAAAAAAAAAAAAAAAAAAAAAAAAAAAAAAAAAAAAAAAAAAAAAAAAAAAAAAAAAAAAAAAAAAAAAAAAAAAAAAAAAAAAAAAAAAAAAAAAAAAAAAAAAAAAAAAAAAAAAAAAAAAAAAAAAAAAAAAAAAAAAAAAAAAAAAAAAAAAAAAAAAAAAAAAAAAAAAAAAAAAAAAAAAAAAAAAAAAAAAAAAAAAAAAAAAAAAAAAAAAAAAAAAAAAAAAAAAAAAAAAAAAAAAAAAAAAAAAAAAAAAAAAAAAAAAAAAAAAAAAAAAAAAAAAAAAAAAAAAAAAAAAAAAAAAAAAAAAAAAAAAAAAAAAAAAAAAAAAAAAAAAAAAAAAAAAAAAAAAAAAAAAAAAAAAAAAAAAAAAAAAAAAAAAAAAAAAAAAAAAAAAAAAAAAAAAAAAAAAAAAAAAAAAAAAAAAAAAAAAAAAAAAAAAAAAAAAAAAAAAAAAAAAAAAAAAAAAAAAAAAAAAAAAAAAAAAAAAAAAAAAAAAAAAAAAAAAAAAAAAAAAAAAAAAAAAAAAAAAAAAAAAAAAAAAAAAAAAAAAAAAAAAAAAAAAAAAAAAAAAAAAAAAAAAAAAAAAAAAAAAAAAAAAAAAAAAAAAAAAAAAAAAAAAAAAAAAAAAAAAAAAAAAAAAAAAAAAAAAAAAAAAAAAAAAAAAAAAAAAAAAAAAAAAAAAAAAAAAAAAAAAAAAAAAAAAAAAAAAAAAAAAAAAAAAAAAAAAAAAAAAAAAAAAAAAAAAAAAAAAAAAAAAAAAAAAAAAAAAAAAAAAAAAAAAAAAAAAAAAAAAAAAAAAAAAAAAAAAAAAAAAAAAAAAAAAAAAAAAAAAAAAAAAAAAAAAAAAAAAAAAAAAAAAAAAAAAAAAAAAAAAAAAAAAAAAAAAAAAAAAAAAAAAAAAAAAAAAAAAAAAAAAAAAAAAAAAAAAAAAAAAAAAAAAAAAAAAAAAAAAAAAAAAAAAAAAAAAAAAAAAAAAAAAAAAAAAAAAAAAAAAAAAAAAAAAAAAAAAAAAAAAAAAAAAAAAAAAAAAAAAAAAAAAAAAAAAAAAAAAAAAAAAAAAAAAAAAAAAAAAAAAAAAAAAAAAAAAAAAAAAAAAAAAAAAAAAAAAAAAAAAAAAAAAAAAAAAAAAAAAAAAAAAAAAAAAAAAAAAAAAAAAAAAAAAAAAAAAAAAAAAAAAAAAAAAAAAAAAAAAAAAAAAAAAAAAAAAAAAAAAAAAAAAAAAAAAAAAAAAAAAAAAAAAAAAAAAAAAAAAAAAAAAAAAAAAAAAAAAAAAAAAAAAAAAAAAAAAAAAAAAAAAAAAAAAAAAAAAAAAAAAAAAAAAAAAAAAAAAAAAAAAAAAAAAAAAAAAAAAAAAAAAAAAAAAAAAAAAAAAAAAAAAAAAAAAAAAAAAAAAAAAAAAAAAAAAAAAAAAAAAAAAAAAAAAAAAAAAAAAAAAAAAAAAAAAAAAAAAAAAAAAAAAAAAAAAAAAAAAAAAAAAAAAAAAAAAAAAAAAAAAAAAAAAAAAAAAAAAAAAAAAAAAAAAAAAAAAAAAAAAAAAAAAAAAAAAAAAAAAAAAAAAAAAAAAAAAAAAAAAAAAAAAAAAAAAAAAAAAAAAAAAAAAAAAAAAAAAAAAAAAAAAAAAAAAAAAAAAAAAAAAAAAAAAAAAAAAAAAAAAAAAAAAAAAAAAAAAAAAAAAAAAAAAAAAAAAAAAAAAAAAAAAAAAAAAAAAAAAAAAAAAAAAAAAAAAAAAAAAAAAAAAAAAAAAAAAAAAAAAAAAAAAAAAAAAAAAAAAAAAAAAAAAAAAAAAAAAAAAAAAAAAAAAAAAAAAAAAAAAAAAAAAAAAAAAAAAAAAAAAAAAAAAAAAAAAAAAAAAAAAAAAAAAAAAAAAAAAAAAAAAAAAAAAAAAAAAAAAAAAAAAAAAAAAAAAAAAAAAAAAAAAAAAAAAAAAAAAAAAAAAAAAAAAAAAAAAAAAAAAAAAAAAAAAAAAAAAAAAAAAAAAAAAAAAAAAAAAAAAAAAAAAAAAAAAAAAAAAAAAAAAAAAAAAAAAAAAAAAAAAAAAAAAAAAAAAAAAAAAAAAAAAAAAAAAAAAAAAAAAAAAAAAAAAAAAAAAAAAAAAAAAAAAAAAAAAAAAAAAAAAAAAAAAAAAAAAAAAAAAAAAAAAAAAAAAAAAAAAAAAAAAAAAAAAAAAAAAAAAAAAAAAAAAAAAAAAAAAAAAAAAAAAAAAAAAAAAAAAAAAAAAAAAAAAAAAAAAAAAAAAAAAAAAAAAAAAAAAAAAAAAAAAAAAAAAAAAAAAAAAAAAAAAAAAAAAAAAAAAAAAAAAAAAAAAAAAAAAAAAAAAAAAAAAAAAAAAAAAAAAAAAAAAAAAAAAAAAAAAAAAAAAAAAAAAAAAAAAAAAAAAAAAAAAAAAAAAAAAAAAAAAAAAAAAAAAAAAAAAAAAAAAAAAAAAAAAAAAAAAAAAAAAAAAAAAAAAAAAAAAAAAAAAAAAAAAAAAAAAAAAAAAAAAAAAAAAAAAAAAAAAAAAAAAAAAAAAAAAAAAAAAAAAAAAAAAAAAAAAAAAAAAAAAAAAAAAAAAAAAAAAAAAAAAAAAAAAAAAAAAAAAAAAAAAAAAAAAAAAAAAAAAAAAAAAAAAAAAAAAAAAAAAAAAAAAAAAAAAAAAAAAAAAAAAAAAAAAAAAAAAAAAAAAAAAAAAAAAAAAAAAAAAAAAAAAAAAAAAAAAAAAAAAAAAAAAAAAAAAAAAAAAAAAAAAAAAAAAAAAAAAAAAAAAAAAAAAAAAAAAAAAAAAAAAAAAAAAAAAAAAAAAAAAAAAAAAAAAAAAAAAAAAAAAAAAAAAAAAAAAAAAAAAAAAAAAAAAAAAAAAAAAAAAAAAAAAAAAAAAAAAAAAAAAAAAAAAAAAAAAAAAAAAAAAAAAAAAAAAAAAAAAAAAAAAAAAAAAAAAAAAAAAAAAAAAAAAAAAAAAAAAAAAAAAAAAAAAAAAAAAAAAAAAAAAAAAAAAAAAAAAAAAAAAAAAAAAAAAAAAAAAAAAAAAAAAAAAAAAAAAAAAAAAAAAAAAAAAAAAAAAAAAAAAAAAAAAAAAAAAAAAAAAAAAAAAAAAAAAAAAAAAAAAAAAAAAAAAAAAAAAAAAAAAAAAAAAAAAAAAAAAAAAAAAAAAAAAAAAAAAAAAAAAAAAAAAAAAAAAAAAAAAAAAAAAAAAAAAAAAAAAAAAAAAAAAAAAAAAAAAAAAAAAAAAAAAAAAAAAAAAAAAAAAAAAAAAAAAAAAAAAAAAAAAAAAAAAAAAAAAAAAAAAAAAAAAAAAAAAAAAAAAAAAAAAAAAAAAAAAAAAAAAAAAAAAAAAAAAAAAAAAAAAAAAAAAAAAAAAAAAAAAAAAAAAAAAAAAAAAAAAAAAAAAAAAAAAAAAAAAAAAAAAAAAAAAAAAAAAAAAAAAAAAAAAAAAAAAAAAAAAAAAAAAAAAAAAAAAAAAAAAAAAAAAAAAAPZYQKccbbmOPCijR8dvpnLEb5mPPgZR7XSn+wJj4tFOKN4XLrUT5Jemasq13jgkQiA+SsTiQBJAaFrCTmKKlKmohIA=</c2pa:manifest></metadata>
<path transform="translate(0,0)" fill="rgb(11,17,28)" d="M 0 0 L 2048 0 L 2048 2048 L 0 2048 L 0 0 z"/>
<path transform="translate(0,0)" fill="rgb(1,0,1)" d="M 1508.4 1105.48 C 1523.42 1104.82 1540.89 1105.06 1556.03 1105.13 C 1556.01 1109.69 1556.72 1132.91 1555.18 1135.57 L 1557.34 1138.28 C 1580.13 1135.54 1612.63 1131.84 1634.83 1127.58 L 1635.11 1424.12 L 1635.13 1519.35 C 1635.14 1536.22 1634.63 1557.45 1635.67 1574.06 L 1636.64 1567.18 L 1638.05 1567.69 C 1660.56 1583.3 1690.89 1603.22 1711.97 1619.52 C 1712.14 1621.1 1712.34 1620.49 1711.82 1621.43 C 1713.42 1622.03 1715.03 1622.51 1716.68 1622.94 C 1715.65 1623.64 1715.39 1623.94 1714.24 1624.38 C 1716.74 1624.49 1719.54 1624.67 1721.65 1626.04 C 1735.09 1634.81 1748.35 1644.84 1761.53 1653.94 L 1819.38 1693.48 C 1825.44 1697.66 1838.97 1706.21 1843.43 1711.03 L 1845.01 1711.98 C 1841.03 1713.1 1839.11 1712.73 1835.41 1713.66 L 1848.34 1713.64 L 1868.99 1728.61 C 1871.47 1730.04 1872.72 1730.32 1873.84 1732.86 C 1875.25 1734.38 1875.48 1734.14 1875.94 1735.84 L 1877.83 1736.23 C 1880.35 1739.25 1879.24 1760.8 1879.17 1766.02 L 168.808 1765.92 C 168.686 1759.83 167.792 1741.65 169.557 1736.54 L 171.909 1735.5 C 175.104 1733.45 188.055 1733.51 193.086 1733.14 C 186.916 1732.92 179.949 1733.03 173.71 1732.98 C 181.287 1727.31 193.665 1717.81 201.914 1713.82 L 206.446 1711.28 C 208.043 1707.67 223.927 1697.54 228.138 1694.7 L 278.579 1661.19 C 295.927 1649.69 313.747 1637.69 331.239 1626.38 C 333.493 1624.92 335.478 1624.96 338.077 1624.98 L 339.029 1621.98 C 357.51 1607.25 383.375 1591.36 403.34 1577.96 C 418.239 1567.96 438.134 1553.77 453.297 1545.09 C 458.506 1545.07 463.946 1545.25 469.179 1545.35 C 469.136 1552.41 468.708 1563.94 469.774 1570.58 C 470.663 1564.57 470.056 1548 470.629 1546.02 L 470.725 1546.01 C 473.393 1550.18 468.932 1570.1 472.996 1568 C 489.703 1566.64 506.634 1568.19 523.078 1567.15 C 523.871 1567.1 523.873 1563.37 523.885 1563.12 C 524.046 1561.63 524.346 1553.87 524.766 1553.33 C 525.666 1553.06 526.05 1555.25 526.165 1555.63 L 526.572 1555.08 C 533.047 1551.38 572.292 1553.9 584.272 1552.85 C 574.956 1551.47 543.343 1552.25 532.293 1552.34 L 535.511 1463.66 C 536.074 1452.82 535.626 1442.22 536.828 1431.46 C 541.209 1326.35 544.332 1221.18 546.198 1115.99 C 726.814 1115.91 909.121 1110.77 1090.05 1109.27 L 1338.37 1107.1 C 1391.98 1106.9 1452.93 1108.17 1506.03 1106.02 C 1506.04 1114.91 1505.53 1133.65 1506.62 1141.8 C 1508.52 1133.7 1505.06 1111.84 1508.4 1105.48 z"/>
<path transform="translate(0,0)" fill="rgb(50,54,171)" d="M 546.198 1115.99 C 726.814 1115.91 909.121 1110.77 1090.05 1109.27 L 1338.37 1107.1 C 1391.98 1106.9 1452.93 1108.17 1506.03 1106.02 C 1506.04 1114.91 1505.53 1133.65 1506.62 1141.8 C 1502 1142.6 1493.58 1144.85 1490.01 1142.17 C 1487.53 1140.31 1488.43 1137.77 1487.46 1137.73 C 1456.82 1136.69 1378.08 1137.86 1352.15 1137.98 L 1351.96 1125.95 C 1335.97 1127.85 1319.37 1130.38 1303.52 1133.31 C 1270.4 1139.43 1236.91 1137.7 1203.24 1138 L 1203.64 1434.76 C 1203.75 1472.96 1202.47 1515.28 1203.58 1552.97 C 1163.31 1551.11 1116.45 1552.52 1075.54 1552.59 L 882.291 1552.38 L 683.643 1552.5 C 651.974 1552.54 615.58 1551.66 584.272 1552.85 C 574.956 1551.47 543.343 1552.25 532.293 1552.34 L 535.511 1463.66 C 536.074 1452.82 535.626 1442.22 536.828 1431.46 C 541.209 1326.35 544.332 1221.18 546.198 1115.99 z"/>
<path transform="translate(0,0)" fill="rgb(1,0,1)" d="M 872.891 1118.49 L 1168.26 1118.16 L 1168.16 1431.96 L 1181.02 1431.96 L 1181.03 1463.27 C 1160.21 1464.24 1137.35 1463.82 1116.38 1463.85 L 1009.05 1463.98 L 914.232 1464.07 C 906.031 1464.07 862.232 1465 859.223 1462.46 C 857.327 1463.49 857.042 1463.38 855.222 1462.1 C 854.998 1456.16 854.851 1447.1 855.207 1441.23 C 855.949 1436.16 854.138 1433.81 859.075 1433.28 C 862.711 1431.25 868.542 1431.8 872.962 1431.85 C 873.994 1327.02 872.64 1223.17 872.891 1118.49 z"/>
<path transform="translate(0,0)" fill="rgb(31,77,181)" d="M 855.207 1441.23 C 855.949 1436.16 854.138 1433.81 859.075 1433.28 C 859.017 1443.01 859.066 1452.73 859.223 1462.46 C 857.327 1463.49 857.042 1463.38 855.222 1462.1 C 854.998 1456.16 854.851 1447.1 855.207 1441.23 z"/>
<path transform="translate(0,0)" fill="rgb(11,148,249)" d="M 1159.74 1121.49 L 1163.06 1121.7 C 1167.03 1126.72 1164.84 1148.95 1164.84 1156.28 L 1164.96 1222.72 L 1165 1431.67 C 1072.9 1430.69 975.866 1430.48 883.828 1431.64 C 881.894 1431.7 880.153 1431.61 878.227 1431.55 C 877.795 1431.04 877.364 1430.52 876.932 1430 C 876.806 1413.12 876.906 1366.58 876.926 1353.54 C 877.041 1276 876.53 1199.04 875.977 1121.8 L 1159.74 1121.49 z"/>
<path transform="translate(0,0)" fill="rgb(1,0,1)" d="M 884.249 1129.85 C 974.972 1129.15 1065.7 1129.06 1156.42 1129.56 L 1155.7 1236.73 C 1157.11 1293.89 1155.83 1355.37 1156.03 1412.96 C 1066.72 1411.93 974.057 1412.48 884.761 1413.01 C 885.905 1335.81 884.443 1256.72 884.778 1179.25 C 883.385 1167.86 884.147 1141.81 884.249 1129.85 z"/>
<path transform="translate(0,0)" fill="rgb(11,17,28)" d="M 884.249 1129.85 C 974.972 1129.15 1065.7 1129.06 1156.42 1129.56 L 1155.7 1236.73 C 1153.62 1233.04 1154.82 1188.43 1154.89 1180.95 L 1153.7 1180.21 C 1137.31 1180.62 1102.28 1179.24 1087.97 1180.97 L 1085.06 1181.16 C 1080.57 1179.95 1022.8 1179.79 1021.58 1180.82 C 1020.3 1181.91 1020.83 1188.97 1020.78 1190.54 C 1020.06 1186.51 1020.84 1182.94 1019.13 1180.52 L 1017.64 1182.81 C 1017.52 1182.59 1016.77 1181.03 1016.61 1181.01 C 1006.49 1180.02 961.205 1180.32 954.077 1180.64 L 951.214 1179.99 C 945.256 1181.01 897.035 1180.44 887.853 1180.35 C 887.848 1185.79 887.892 1191.13 887.756 1196.57 C 886.792 1193.28 886.957 1184.65 886.49 1180.22 L 884.778 1179.25 C 883.385 1167.86 884.147 1141.81 884.249 1129.85 z"/>
<path transform="translate(0,0)" fill="rgb(251,146,52)" d="M 1087.97 1180.97 C 1102.28 1179.24 1137.31 1180.62 1153.7 1180.21 C 1152.28 1187.57 1152.85 1227.18 1152.84 1236.2 L 1088.26 1236.12 L 1087.97 1180.97 z"/>
<path transform="translate(0,0)" fill="rgb(251,146,52)" d="M 1020.78 1190.54 C 1020.83 1188.97 1020.3 1181.91 1021.58 1180.82 C 1022.8 1179.79 1080.57 1179.95 1085.06 1181.16 C 1084.44 1198.33 1084.97 1218.59 1084.96 1236.04 L 1020.93 1235.99 C 1020.93 1224.32 1021.69 1201.33 1020.78 1190.54 z"/>
<path transform="translate(0,0)" fill="rgb(251,146,52)" d="M 954.077 1180.64 C 961.205 1180.32 1006.49 1180.02 1016.61 1181.01 C 1016.77 1181.03 1017.52 1182.59 1017.64 1182.81 C 1016.48 1197.69 1017.39 1220.26 1017.24 1235.92 L 954.191 1235.93 L 954.077 1180.64 z"/>
<path transform="translate(0,0)" fill="rgb(251,146,52)" d="M 887.853 1180.35 C 897.035 1180.44 945.256 1181.01 951.214 1179.99 C 950.128 1195.06 950.882 1220.19 950.859 1235.91 L 887.973 1235.97 C 887.888 1224.27 888.38 1207.86 887.756 1196.57 C 887.892 1191.13 887.848 1185.79 887.853 1180.35 z"/>
<path transform="translate(0,0)" fill="rgb(251,146,52)" d="M 1088.38 1239.67 C 1109.01 1239.35 1132.27 1239.41 1152.93 1239.65 C 1152.93 1255.06 1153.74 1279.65 1152.75 1294.29 C 1131.33 1294.02 1109.91 1294 1088.49 1294.24 L 1088.38 1239.67 z"/>
<path transform="translate(0,0)" fill="rgb(251,146,52)" d="M 1097.56 1297.48 C 1115.63 1297.67 1135.08 1297.12 1152.92 1297.66 C 1152.94 1314.02 1153.38 1334.83 1152.46 1351.34 C 1152.42 1352.08 1149.22 1352 1148.75 1351.99 L 1147.25 1351.98 L 1088.33 1352 C 1088.29 1347.22 1087.71 1299.2 1088.61 1298.36 C 1090.25 1296.83 1095.48 1297.51 1097.56 1297.48 z"/>
<path transform="translate(0,0)" fill="rgb(251,146,52)" d="M 1088.14 1355.31 C 1109.7 1355.16 1131.27 1355.17 1152.83 1355.35 L 1152.85 1409.8 C 1131.27 1409.63 1109.69 1409.58 1088.12 1409.65 C 1088.08 1392.14 1087.75 1372.65 1088.14 1355.31 z"/>
<path transform="translate(0,0)" fill="rgb(251,146,52)" d="M 1021.06 1239.53 C 1041.08 1239.04 1064.94 1239.11 1085 1239.4 L 1085.02 1294.29 C 1063.66 1294.14 1042.3 1294.14 1020.95 1294.31 C 1020.96 1278.37 1020.25 1254.99 1021.06 1239.53 z"/>
<path transform="translate(0,0)" fill="rgb(251,146,52)" d="M 1020.95 1297.63 C 1042.08 1297.58 1063.9 1297.35 1084.99 1297.56 L 1085 1352 L 1020.97 1352.03 L 1020.95 1297.63 z"/>
<path transform="translate(0,0)" fill="rgb(251,146,52)" d="M 1021.03 1355.21 C 1042.34 1355.07 1063.65 1355.06 1084.96 1355.18 C 1085 1372.79 1085.36 1392.08 1084.88 1409.57 C 1063.79 1409.6 1042.06 1409.81 1021 1409.5 L 1021.03 1355.21 z"/>
<path transform="translate(0,0)" fill="rgb(251,146,52)" d="M 956.819 1239.48 C 976.353 1239.27 997.732 1239.15 1017.25 1239.39 C 1017.38 1252.16 1017.68 1279.37 1016.9 1293.42 C 1016.87 1293.84 1015.33 1294.23 1015.13 1294.29 C 994.882 1294.04 974.631 1294.03 954.381 1294.28 C 954.225 1282.45 954.137 1253.64 954.434 1240.42 C 954.446 1239.9 956.42 1239.57 956.819 1239.48 z"/>
<path transform="translate(0,0)" fill="rgb(251,146,52)" d="M 887.885 1239.59 C 908.891 1239.85 929.85 1239.46 950.806 1239.64 C 951.012 1257.6 950.897 1276.12 950.795 1294.11 C 929.952 1294.35 908.87 1294.01 887.938 1294.2 C 887.785 1276 887.767 1257.79 887.885 1239.59 z"/>
<path transform="translate(0,0)" fill="rgb(251,146,52)" d="M 954.381 1297.64 L 1017.2 1297.58 C 1017.42 1315.14 1017.63 1334.46 1017.27 1351.98 L 954.478 1352.12 L 954.381 1297.64 z"/>
<path transform="translate(0,0)" fill="rgb(251,146,52)" d="M 887.978 1297.53 C 909.045 1297.99 929.823 1297.51 950.827 1297.63 L 950.851 1352 L 888.007 1352.09 C 887.899 1333.91 887.889 1315.72 887.978 1297.53 z"/>
<path transform="translate(0,0)" fill="rgb(251,146,52)" d="M 954.313 1355.35 C 975.377 1355.14 996.443 1355.09 1017.51 1355.2 C 1017.6 1373.05 1017.75 1391.52 1017.56 1409.34 L 954.234 1409.2 C 954.368 1391.25 954.394 1373.3 954.313 1355.35 z"/>
<path transform="translate(0,0)" fill="rgb(251,146,52)" d="M 888.015 1355.39 C 908.869 1355.53 930.041 1355.16 950.813 1355.48 C 950.882 1372.03 951.302 1393.04 950.722 1409.33 C 930.583 1409.17 907.847 1408.93 887.836 1409.62 C 887.775 1393.13 887.311 1371.71 888.015 1355.39 z"/>
<path transform="translate(0,0)" fill="rgb(11,148,249)" d="M 862.991 1434.7 C 896.133 1435.54 934.185 1434.63 967.626 1434.67 L 1178.02 1434.84 L 1177.95 1460.17 L 862.964 1460.18 L 862.991 1434.7 z"/>
<path transform="translate(0,0)" fill="rgb(1,0,1)" d="M 551.984 1137.98 L 839.955 1138 L 840.463 1431.97 C 844.736 1431.76 850.279 1430.9 853.81 1432.83 C 855.764 1435.51 855.261 1437.81 855.207 1441.23 C 854.851 1447.1 854.998 1456.16 855.222 1462.1 C 854.667 1462.55 854.113 1463 853.558 1463.46 C 832.256 1464.82 801.173 1463.97 779.143 1463.98 L 643.619 1464.06 L 571.875 1464.05 C 565.582 1464.04 543.444 1464.32 538.687 1463.31 C 537.339 1463.35 536.776 1463.27 535.511 1463.66 C 536.074 1452.82 535.626 1442.22 536.828 1431.46 L 538.733 1432.09 C 543.058 1431.86 547.535 1431.53 551.85 1431.64 L 551.984 1137.98 z"/>
<path transform="translate(0,0)" fill="rgb(31,77,181)" d="M 536.828 1431.46 L 538.733 1432.09 C 539.054 1440.81 539.204 1454.74 538.687 1463.31 C 537.339 1463.35 536.776 1463.27 535.511 1463.66 C 536.074 1452.82 535.626 1442.22 536.828 1431.46 z"/>
<path transform="translate(0,0)" fill="rgb(11,148,249)" d="M 555.012 1140.9 C 648.409 1141.9 743.488 1140.91 836.995 1140.83 L 837.076 1431.87 C 744.501 1431.13 647.208 1430.23 554.876 1431.54 L 555.012 1140.9 z"/>
<path transform="translate(0,0)" fill="rgb(11,17,28)" d="M 562.894 1148 L 828.565 1147.88 C 828.998 1224.19 829.74 1303.37 828.759 1379.59 C 829.238 1389.22 828.856 1402.86 828.841 1412.79 L 563.605 1412.82 L 563.392 1350.74 L 562.894 1148 z"/>
<path transform="translate(0,0)" fill="rgb(1,0,1)" d="M 566.363 1236.34 C 569.639 1235.65 569.494 1235.46 572.394 1233.72 C 600.536 1216.78 639.073 1231.67 646.308 1264.45 C 648.213 1273.08 646.593 1278.66 647.291 1286.92 L 649.209 1286.73 C 658.815 1287.83 666.088 1286.55 675.568 1290.46 C 696.934 1299.28 699.368 1312.52 703.065 1332.32 L 705.014 1334.75 C 714.767 1326.37 726.425 1317.88 739.828 1320.31 C 758.903 1323.77 805.843 1344.17 822.311 1353.34 C 824.08 1353.51 826.192 1353.27 826.613 1354.34 C 829.804 1362.52 826.303 1369.81 828.759 1379.59 C 829.238 1389.22 828.856 1402.86 828.841 1412.79 L 563.605 1412.82 L 563.392 1350.74 C 565.866 1347.48 563.334 1249.74 564.512 1235.58 L 566.363 1236.34 z"/>
<path transform="translate(0,0)" fill="rgb(251,146,52)" d="M 705.014 1334.75 C 714.767 1326.37 726.425 1317.88 739.828 1320.31 C 758.903 1323.77 805.843 1344.17 822.311 1353.34 C 827.169 1361.07 825.073 1397.85 825.01 1409.3 L 774.777 1409.13 L 775.237 1407.49 C 782.31 1383.04 771.6 1363.17 747.59 1354.36 C 736.703 1350.36 711.154 1347.35 703.343 1341.41 C 702.57 1338.04 703.059 1338.75 705.014 1334.75 z"/>
<path transform="translate(0,0)" fill="rgb(251,146,52)" d="M 566.363 1236.34 C 569.639 1235.65 569.494 1235.46 572.394 1233.72 C 600.536 1216.78 639.073 1231.67 646.308 1264.45 C 648.213 1273.08 646.593 1278.66 647.291 1286.92 C 631.642 1287.44 615.298 1285.88 599.498 1285.95 C 582.77 1286.02 579.415 1286.88 566.649 1297.62 C 566.488 1277.53 566.877 1256.3 566.363 1236.34 z"/>
<path transform="translate(0,0)" fill="rgb(251,146,52)" d="M 590.551 1289.36 C 607.055 1288.72 624.544 1290.52 640.905 1290.37 C 679.522 1290.01 700.18 1298.98 698.862 1341.62 C 672.257 1333.46 647.533 1328.9 631.608 1358.39 C 627.255 1370.24 621.701 1395.32 617.718 1409.28 C 600.679 1409.19 583.639 1409.2 566.6 1409.3 L 566.728 1302.97 C 574.592 1293.32 578.216 1291.1 590.551 1289.36 z"/>
<path transform="translate(0,0)" fill="rgb(251,146,52)" d="M 661.728 1339.22 C 683.551 1336.89 717.437 1351.12 740.088 1355.81 C 768.171 1361.62 777.616 1381.9 771.612 1409.25 L 735.5 1409.35 L 621.22 1409.16 C 624.754 1397.8 627.772 1385.18 630.653 1373.59 C 635.725 1353.17 641.742 1345.4 661.728 1339.22 z"/>
<path transform="translate(0,0)" fill="rgb(251,146,52)" d="M 649.209 1286.73 L 651.194 1278.51 C 654.392 1265.04 663.832 1254.17 675.615 1247.3 C 686.763 1240.84 699.992 1238.98 712.488 1242.12 C 725.306 1245.52 736.177 1254.01 742.579 1265.62 C 752.785 1283.73 750.013 1298.71 739.977 1315.91 C 721.928 1316.75 715.621 1320.35 703.065 1332.32 C 699.368 1312.52 696.934 1299.28 675.568 1290.46 C 666.088 1286.55 658.815 1287.83 649.209 1286.73 z"/>
<path transform="translate(0,0)" fill="rgb(11,148,249)" d="M 542.039 1434.16 C 578.853 1435.19 617.764 1434.66 654.791 1434.73 L 851.124 1434.98 L 851.081 1460.17 L 542.064 1460.31 L 542.039 1434.16 z"/>
<path transform="translate(0,0)" fill="rgb(11,148,249)" d="M 1557.34 1138.28 C 1580.13 1135.54 1612.63 1131.84 1634.83 1127.58 L 1635.11 1424.12 L 1635.13 1519.35 C 1635.14 1536.22 1634.63 1557.45 1635.67 1574.06 L 1635.8 1601.76 C 1579.05 1585.14 1522.14 1569.05 1465.09 1553.5 L 1464.23 1546.58 L 1463.74 1546.52 L 1462.86 1555.47 C 1462.51 1551.78 1462.75 1548.12 1460.88 1545.34 C 1452.06 1544.6 1355.93 1544.53 1353.09 1545.68 L 1352.43 1547.79 L 1351.21 1545.69 C 1348.12 1550.51 1351.51 1586.44 1349.29 1597.38 L 1347.51 1598.73 C 1332.91 1595.1 1310.73 1586.96 1295.99 1582.06 C 1266.41 1572.19 1236.76 1562.52 1207.05 1553.07 C 1206.38 1515.4 1207.2 1476.48 1207.01 1438.72 C 1206.53 1342.35 1207.8 1245.45 1206.55 1149.12 C 1250.75 1146.73 1304.32 1135.36 1348.77 1129.51 C 1348.67 1136.43 1348.84 1143.57 1348.92 1150.52 C 1351.12 1147.91 1351.04 1148.14 1351.84 1144.84 L 1353.02 1147.19 C 1357.84 1148.25 1390.68 1148.04 1397.94 1147.81 C 1419.09 1147.16 1444.36 1148.65 1465.05 1147.5 L 1465.93 1150.23 C 1494.66 1145.78 1527.77 1142.37 1557.34 1138.28 z"/>
<path transform="translate(0,0)" fill="rgb(11,148,249)" d="M 1557.34 1138.28 C 1580.13 1135.54 1612.63 1131.84 1634.83 1127.58 L 1635.11 1424.12 L 1635.13 1519.35 C 1635.14 1536.22 1634.63 1557.45 1635.67 1574.06 L 1635.8 1601.76 C 1579.05 1585.14 1522.14 1569.05 1465.09 1553.5 C 1465.91 1547.78 1465.65 1529.01 1465.67 1522.59 L 1465.78 1464.14 L 1465.79 1250.41 L 1465.53 1188.44 C 1465.45 1177.36 1464.92 1160.85 1465.93 1150.23 C 1494.66 1145.78 1527.77 1142.37 1557.34 1138.28 z"/>
<path transform="translate(0,0)" fill="rgb(1,0,1)" d="M 1602.59 1364.53 C 1608.62 1362.78 1615.12 1364.42 1619.58 1368.83 C 1624.04 1373.25 1625.76 1379.73 1624.08 1385.77 C 1622.4 1391.81 1617.57 1396.47 1611.47 1397.94 C 1602.34 1400.14 1593.13 1394.65 1590.72 1385.57 C 1588.3 1376.5 1593.58 1367.15 1602.59 1364.53 z"/>
<path transform="translate(0,0)" fill="rgb(11,148,249)" d="M 1604.31 1367.58 C 1611.58 1365.92 1618.87 1370.32 1620.79 1377.54 C 1622.7 1384.75 1618.57 1392.19 1611.43 1394.37 C 1606.58 1395.85 1601.3 1394.56 1597.68 1391.01 C 1594.05 1387.46 1592.66 1382.21 1594.04 1377.33 C 1595.42 1372.44 1599.36 1368.7 1604.31 1367.58 z"/>
<path transform="translate(0,0)" fill="rgb(11,17,28)" d="M 1348.92 1150.52 C 1351.12 1147.91 1351.04 1148.14 1351.84 1144.84 L 1353.02 1147.19 C 1357.84 1148.25 1390.68 1148.04 1397.94 1147.81 C 1419.09 1147.16 1444.36 1148.65 1465.05 1147.5 L 1465.93 1150.23 C 1464.92 1160.85 1465.45 1177.36 1465.53 1188.44 L 1465.79 1250.41 L 1465.78 1464.14 L 1465.67 1522.59 C 1465.65 1529.01 1465.91 1547.78 1465.09 1553.5 L 1464.23 1546.58 L 1463.74 1546.52 L 1462.86 1555.47 C 1462.51 1551.78 1462.75 1548.12 1460.88 1545.34 C 1452.06 1544.6 1355.93 1544.53 1353.09 1545.68 L 1352.43 1547.79 L 1351.21 1545.69 C 1348.12 1550.51 1351.51 1586.44 1349.29 1597.38 C 1348.26 1567.1 1348.73 1532.92 1348.74 1502.43 L 1348.71 1348.37 L 1348.49 1223.11 C 1348.45 1200.65 1347.66 1172.51 1348.92 1150.52 z"/>
<path transform="translate(0,0)" fill="rgb(1,0,1)" d="M 1314.8 1365.38 C 1323.7 1362.38 1333.34 1367.19 1336.31 1376.1 C 1339.28 1385.01 1334.44 1394.64 1325.51 1397.57 C 1316.64 1400.49 1307.07 1395.68 1304.12 1386.82 C 1301.17 1377.95 1305.94 1368.37 1314.8 1365.38 z"/>
<path transform="translate(0,0)" fill="rgb(11,148,249)" d="M 1315.63 1368.47 C 1320.25 1366.77 1325.43 1367.69 1329.17 1370.88 C 1332.92 1374.08 1334.65 1379.05 1333.69 1383.87 C 1332.73 1388.7 1329.24 1392.64 1324.56 1394.16 C 1317.52 1396.45 1309.93 1392.69 1307.5 1385.69 C 1305.07 1378.7 1308.69 1371.04 1315.63 1368.47 z"/>
<path transform="translate(0,0)" fill="rgb(11,148,249)" d="M 1835.41 1713.66 L 1848.34 1713.64 L 1868.99 1728.61 C 1871.47 1730.04 1872.72 1730.32 1873.84 1732.86 C 1875.25 1734.38 1875.48 1734.14 1875.94 1735.84 L 1877.83 1736.23 C 1880.35 1739.25 1879.24 1760.8 1879.17 1766.02 L 168.808 1765.92 C 168.686 1759.83 167.792 1741.65 169.557 1736.54 L 171.909 1735.5 C 175.104 1733.45 188.055 1733.51 193.086 1733.14 C 186.916 1732.92 179.949 1733.03 173.71 1732.98 C 181.287 1727.31 193.665 1717.81 201.914 1713.82 C 282.532 1715.24 366.07 1714.16 446.957 1714.11 L 870.346 1714 L 1835.41 1713.66 z"/>
<path transform="translate(0,0)" fill="rgb(11,148,249)" d="M 1835.41 1713.66 L 1848.34 1713.64 L 1868.99 1728.61 C 1871.47 1730.04 1872.72 1730.32 1873.84 1732.86 C 1869.27 1733.03 1864.21 1732.92 1859.61 1732.93 C 1842.56 1733.49 1823.03 1733.02 1805.72 1733.03 L 1700.73 1733.13 L 1379.9 1733.11 L 568.506 1733.13 C 444.143 1733.19 317.249 1731.81 193.086 1733.14 C 186.916 1732.92 179.949 1733.03 173.71 1732.98 C 181.287 1727.31 193.665 1717.81 201.914 1713.82 C 282.532 1715.24 366.07 1714.16 446.957 1714.11 L 870.346 1714 L 1835.41 1713.66 z"/>
<path transform="translate(0,0)" fill="rgb(1,0,1)" d="M 1859.61 1732.93 C 1864.21 1732.92 1869.27 1733.03 1873.84 1732.86 C 1875.25 1734.38 1875.48 1734.14 1875.94 1735.84 C 1838.71 1737.67 1788.55 1736.58 1750.63 1736.69 L 1507.12 1736.86 L 816.323 1736.81 L 376.749 1736.81 L 243.522 1736.69 C 226.579 1736.66 187.747 1737.4 171.909 1735.5 C 175.104 1733.45 188.055 1733.51 193.086 1733.14 C 317.249 1731.81 444.143 1733.19 568.506 1733.13 L 1379.9 1733.11 L 1700.73 1733.13 L 1805.72 1733.03 C 1823.03 1733.02 1842.56 1733.49 1859.61 1732.93 z"/>
<path transform="translate(0,0)" fill="rgb(239,236,229)" d="M 338.077 1624.98 L 509.326 1624.84 C 479.645 1652.84 447.646 1682.16 418.903 1710.8 L 279.147 1710.92 C 258.792 1710.94 225.737 1709.98 206.446 1711.28 C 208.043 1707.67 223.927 1697.54 228.138 1694.7 L 278.579 1661.19 C 295.927 1649.69 313.747 1637.69 331.239 1626.38 C 333.493 1624.92 335.478 1624.96 338.077 1624.98 z"/>
<path transform="translate(0,0)" fill="rgb(239,236,229)" d="M 1714.24 1624.38 C 1716.74 1624.49 1719.54 1624.67 1721.65 1626.04 C 1735.09 1634.81 1748.35 1644.84 1761.53 1653.94 L 1819.38 1693.48 C 1825.44 1697.66 1838.97 1706.21 1843.43 1711.03 C 1773.13 1710.56 1702.82 1710.51 1632.52 1710.89 C 1622.88 1699.54 1609.95 1687.19 1599.31 1676.58 L 1547.09 1624.68 L 1714.24 1624.38 z"/>
<path transform="translate(0,0)" fill="rgb(239,236,229)" d="M 1352.43 1547.79 L 1353.09 1545.68 C 1355.93 1544.53 1452.06 1544.6 1460.88 1545.34 C 1462.75 1548.12 1462.51 1551.78 1462.86 1555.47 C 1465.79 1557.48 1472.88 1558.35 1474.6 1559.83 C 1496.33 1578.6 1518.23 1600.67 1538.29 1621.15 C 1481.88 1620.58 1424.5 1621.3 1368 1621.18 C 1362.66 1612.84 1358.6 1606.65 1352.54 1598.73 C 1352.27 1581.96 1352.47 1564.61 1352.43 1547.79 z"/>
<path transform="translate(0,0)" fill="rgb(239,236,229)" d="M 453.297 1545.09 C 458.506 1545.07 463.946 1545.25 469.179 1545.35 C 469.136 1552.41 468.708 1563.94 469.774 1570.58 C 470.663 1564.57 470.056 1548 470.629 1546.02 L 470.725 1546.01 C 473.393 1550.18 468.932 1570.1 472.996 1568 C 489.703 1566.64 506.634 1568.19 523.078 1567.15 C 523.871 1567.1 523.873 1563.37 523.885 1563.12 C 524.046 1561.63 524.346 1553.87 524.766 1553.33 C 525.666 1553.06 526.05 1555.25 526.165 1555.63 L 526.572 1555.08 C 545.695 1555.3 564.819 1555.35 583.943 1555.23 C 561.582 1576.77 533.497 1600.45 512.905 1621.5 L 399.08 1621.39 C 384.166 1621.38 352.601 1620.55 339.029 1621.98 C 357.51 1607.25 383.375 1591.36 403.34 1577.96 C 418.239 1567.96 438.134 1553.77 453.297 1545.09 z"/>
<path transform="translate(0,0)" fill="rgb(1,0,1)" d="M 469.774 1570.58 C 470.663 1564.57 470.056 1548 470.629 1546.02 L 470.725 1546.01 C 473.393 1550.18 468.932 1570.1 472.996 1568 C 489.703 1566.64 506.634 1568.19 523.078 1567.15 C 523.871 1567.1 523.873 1563.37 523.885 1563.12 C 524.046 1561.63 524.346 1553.87 524.766 1553.33 C 525.666 1553.06 526.05 1555.25 526.165 1555.63 C 526.275 1560.57 526.31 1565.51 526.272 1570.44 C 507.44 1570.62 488.607 1570.66 469.774 1570.58 z"/>
<path transform="translate(0,0)" fill="rgb(239,236,229)" d="M 1483.95 1562.59 L 1573.77 1587.6 C 1594.15 1593.23 1619.16 1599.41 1638.73 1605.95 C 1638.77 1593.2 1638.55 1580.44 1638.05 1567.69 C 1660.56 1583.3 1690.89 1603.22 1711.97 1619.52 C 1712.14 1621.1 1712.34 1620.49 1711.82 1621.43 C 1696.88 1620.31 1670.54 1621.1 1654.99 1621.11 L 1543.56 1621.07 C 1524.02 1602.94 1503.07 1581.42 1483.95 1562.59 z"/>
<path transform="translate(0,0)" fill="rgb(11,148,249)" d="M 1508.4 1105.48 C 1523.42 1104.82 1540.89 1105.06 1556.03 1105.13 C 1556.01 1109.69 1556.72 1132.91 1555.18 1135.57 C 1539.8 1137.17 1524.51 1139.93 1509.15 1141.37 C 1509.08 1132.91 1509.67 1112.69 1508.4 1105.48 z"/>
<path transform="translate(0,0)" fill="rgb(11,148,249)" d="M 1351.84 1144.84 L 1352.67 1141.58 C 1355.86 1139.88 1480.63 1140.25 1484.8 1142.53 L 1484.65 1144.42 C 1481.46 1146.36 1469.51 1147.05 1465.05 1147.5 C 1444.36 1148.65 1419.09 1147.16 1397.94 1147.81 C 1390.68 1148.04 1357.84 1148.25 1353.02 1147.19 L 1351.84 1144.84 z"/>
<path transform="translate(0,0)" fill="rgb(239,236,229)" d="M 1026.81 1624.77 L 1198.35 1624.95 C 1205.96 1651.56 1217.67 1684.11 1226.6 1710.82 L 1026.81 1710.56 L 1026.81 1624.77 z"/>
<path transform="translate(0,0)" fill="rgb(239,236,229)" d="M 513.744 1624.91 L 684.848 1624.97 C 664.594 1653.76 644.095 1682.38 623.355 1710.83 L 594.918 1710.89 L 423.65 1710.75 C 452.971 1681.75 484.188 1653.84 513.744 1624.91 z"/>
<path transform="translate(0,0)" fill="rgb(239,236,229)" d="M 1370.96 1624.6 C 1427.92 1625.52 1485.56 1624.13 1542.63 1624.87 C 1570.37 1653.76 1600.78 1681.61 1627.92 1710.81 L 1432.12 1710.91 C 1415.62 1685.05 1389.38 1651.1 1370.96 1624.6 z"/>
<path transform="translate(0,0)" fill="rgb(239,236,229)" d="M 1295.08 1624.5 C 1318.99 1624.38 1342.9 1624.38 1366.82 1624.5 C 1386.14 1653.22 1409.34 1682.25 1427.83 1710.71 L 1336.36 1710.69 L 1229.99 1710.84 C 1228 1702.71 1223.07 1689.21 1220.34 1680.94 C 1214.14 1662.25 1208.06 1643.52 1202.09 1624.76 L 1295.08 1624.5 z"/>
<path transform="translate(0,0)" fill="rgb(239,236,229)" d="M 689.044 1624.99 L 857.303 1624.81 C 845.158 1653.04 833.928 1682.16 821.837 1710.65 L 798.25 1710.71 L 627.313 1710.82 C 647.599 1682.88 669.847 1653.39 689.044 1624.99 z"/>
<path transform="translate(0,0)" fill="rgb(239,236,229)" d="M 860.745 1624.81 C 912.945 1623.55 970.666 1624.78 1023.19 1624.81 L 1023.12 1710.47 L 987.5 1710.47 L 825.379 1710.78 C 836.843 1685.89 850.474 1650.65 860.745 1624.81 z"/>
<path transform="translate(0,0)" fill="rgb(239,236,229)" d="M 1026.84 1555.52 L 1175.85 1555.59 C 1182.52 1577.76 1190.15 1599.3 1197.27 1621.31 C 1141.8 1620.19 1082.67 1621.23 1026.9 1621.21 L 1026.84 1555.52 z"/>
<path transform="translate(0,0)" fill="rgb(239,236,229)" d="M 733.33 1555.46 L 734.385 1556.21 C 732.175 1562.29 694.627 1611.21 687.756 1621.43 C 633.366 1622.46 575.983 1621.25 521.15 1621.46 L 519.428 1621.04 C 520.375 1618.45 579.547 1563.85 587.939 1555.62 C 636 1555.54 685.413 1556.3 733.33 1555.46 z"/>
<path transform="translate(0,0)" fill="rgb(239,236,229)" d="M 739.324 1555.41 C 784.513 1557.06 840.594 1555.65 886.527 1555.43 L 859.117 1621.22 L 838.5 1621.29 L 691.733 1621.46 C 705.931 1600.32 724.209 1576.34 739.324 1555.41 z"/>
<path transform="translate(0,0)" fill="rgb(239,236,229)" d="M 890.521 1555.13 L 1023.4 1555.34 L 1023.35 1621.26 L 995.5 1621.23 L 862.817 1621.17 C 872.059 1599.4 880.72 1576.5 890.521 1555.13 z"/>
<path transform="translate(0,0)" fill="rgb(239,236,229)" d="M 1180.68 1555.51 C 1208.7 1555.27 1218.95 1560.13 1245.41 1568.88 L 1317.58 1593.06 C 1327.31 1596.27 1342.76 1601.64 1352.59 1603.38 C 1356.03 1609.23 1360.15 1615.39 1363.84 1621.15 L 1200.89 1621.15 C 1197.43 1610.13 1179.85 1563.14 1180.68 1555.51 z"/>
<path transform="translate(0,0)" fill="rgb(28,116,199)" d="M 1240.75 1140.5 C 1242.58 1140.49 1246.31 1140.22 1247.97 1140.64 C 1237.9 1142.42 1227.95 1144.37 1217.68 1145.13 L 1215.76 1145.3 C 1213.41 1145.66 1209.19 1146.75 1206.84 1145.49 C 1205.6 1144.82 1206.1 1141.74 1206.63 1141.66 C 1217.53 1139.89 1229.29 1141.74 1240.75 1140.5 z"/>
<path transform="translate(0,0)" fill="rgb(50,54,171)" d="M 1490.1 437.137 L 1536.18 437.217 L 1536.7 697.775 C 1536.73 708.612 1537.98 786.446 1535.99 792.337 C 1533.37 793.871 1530.57 793.409 1527.41 793.369 C 1530.92 793.866 1532.45 794.014 1535.89 795.149 C 1532.2 795.825 1524.98 795.434 1522.33 795.625 C 1499.56 797.27 1253.82 793.19 1249.26 796.684 C 1194.43 797.371 1138.39 796.776 1083.49 796.708 L 835.74 796.665 C 833.243 794.916 587.592 795.662 563 795.671 L 562.911 712.678 C 562.905 703.881 562.346 677.731 563.835 670.595 C 565.182 657.469 563.881 614.928 563.835 599.866 C 563.631 550.47 563.677 501.074 563.971 451.678 C 619.199 452.709 678.982 451.484 734.642 451.568 L 1128.97 451.66 L 1378.38 451.435 C 1410.58 451.307 1456.27 452.778 1486.96 451.18 L 1490.12 449.646 L 1490.1 437.137 z"/>
<path transform="translate(0,0)" fill="rgb(11,148,249)" d="M 1490.1 437.137 L 1536.18 437.217 L 1536.7 697.775 C 1536.73 708.612 1537.98 786.446 1535.99 792.337 C 1533.37 793.871 1530.57 793.409 1527.41 793.369 C 1515.84 792.784 1501.76 793.141 1489.97 793.186 L 1490.12 449.646 L 1490.1 437.137 z"/>
<path transform="translate(0,0)" fill="rgb(1,0,1)" d="M 1486.96 451.18 L 1490.12 449.646 L 1489.97 793.186 C 1501.76 793.141 1515.84 792.784 1527.41 793.369 C 1530.92 793.866 1532.45 794.014 1535.89 795.149 C 1532.2 795.825 1524.98 795.434 1522.33 795.625 C 1499.56 797.27 1253.82 793.19 1249.26 796.684 C 1194.43 797.371 1138.39 796.776 1083.49 796.708 L 835.74 796.665 C 833.243 794.916 587.592 795.662 563 795.671 L 562.911 712.678 C 562.905 703.881 562.346 677.731 563.835 670.595 C 564.848 710.397 564.009 753.855 564.01 793.904 C 871.639 792.192 1179.27 792.026 1486.91 793.405 L 1486.96 451.18 z"/>
<path transform="translate(0,0)" fill="rgb(1,0,1)" d="M 898.266 525.973 L 1151.35 525.802 C 1150.73 575.68 1151.85 626.125 1151.16 676.003 C 1150.94 691.386 1152.71 725.275 1150.75 738.512 C 1123.18 739.885 1085.67 738.903 1057.39 738.888 L 898.234 738.561 C 898 668.469 897.273 595.922 898.266 525.973 z"/>
<path transform="translate(0,0)" fill="rgb(251,146,52)" d="M 901.053 528.777 C 941.2 529.368 982.806 528.888 1023.06 528.901 L 1023 632.002 L 901.103 632.058 L 901.053 528.777 z"/>
<path transform="translate(0,0)" fill="rgb(251,146,52)" d="M 1026.37 528.793 L 1148.08 528.567 C 1147.89 560.387 1149.5 601.076 1147.83 632.133 L 1026.48 632.094 L 1026.37 528.793 z"/>
<path transform="translate(0,0)" fill="rgb(251,146,52)" d="M 901.079 635.144 L 1022.96 635.164 L 1022.88 735.703 L 901.036 735.879 L 901.079 635.144 z"/>
<path transform="translate(0,0)" fill="rgb(251,146,52)" d="M 1026.39 635.254 L 1147.98 635.449 C 1147.65 661.697 1148.19 687.961 1148.01 714.21 C 1147.96 721.401 1148.2 728.621 1147.61 735.794 L 1026.27 735.747 L 1026.39 635.254 z"/>
<path transform="translate(0,0)" fill="rgb(1,0,1)" d="M 605.967 525.926 L 858.025 525.787 C 858.964 596.064 858.166 668.037 857.85 738.415 L 605.147 738.941 L 605.967 525.926 z"/>
<path transform="translate(0,0)" fill="rgb(251,146,52)" d="M 731.713 528.902 L 854.798 528.859 L 854.521 631.787 C 846.863 632.659 822.378 632.071 813.589 632.066 L 731.699 631.994 L 731.713 528.902 z"/>
<path transform="translate(0,0)" fill="rgb(251,146,52)" d="M 608.699 528.879 C 648.197 529.349 688.719 528.945 728.29 528.95 L 728.182 631.832 L 608.658 632.004 L 608.699 528.879 z"/>
<path transform="translate(0,0)" fill="rgb(251,146,52)" d="M 731.823 635.287 L 854.52 635.241 L 854.337 735.33 L 731.741 735.546 C 731.601 702.126 731.628 668.706 731.823 635.287 z"/>
<path transform="translate(0,0)" fill="rgb(251,146,52)" d="M 608.576 635.103 L 728.122 635.214 C 728.274 668.707 728.256 702.2 728.067 735.692 L 608.218 735.924 L 608.576 635.103 z"/>
<path transform="translate(0,0)" fill="rgb(1,0,1)" d="M 1192.07 525.833 L 1443.43 525.85 L 1443.7 738.105 C 1417.65 739.446 1383.41 738.668 1356.68 738.737 L 1191.8 738.9 L 1192.07 525.833 z"/>
<path transform="translate(0,0)" fill="rgb(251,146,52)" d="M 1195.03 528.627 C 1234.86 529.508 1277.51 528.87 1317.55 528.918 L 1317.19 631.706 C 1306.24 632.429 1287.1 631.873 1275.46 631.886 L 1195.08 632.039 L 1195.03 528.627 z"/>
<path transform="translate(0,0)" fill="rgb(251,146,52)" d="M 1320.64 528.841 L 1440.78 528.84 L 1440.47 631.75 L 1320.92 631.924 L 1320.64 528.841 z"/>
<path transform="translate(0,0)" fill="rgb(251,146,52)" d="M 1195.05 635.198 L 1317.52 635.178 L 1317.69 735.663 L 1194.98 735.863 L 1195.05 635.198 z"/>
<path transform="translate(0,0)" fill="rgb(251,146,52)" d="M 1320.93 635.175 L 1440.59 635.116 L 1440.57 735.74 L 1321.01 735.727 L 1320.93 635.175 z"/>
<path transform="translate(0,0)" fill="rgb(1,0,1)" d="M 1262.76 861.242 C 1270.37 860.124 1324.46 859.755 1330.41 861.37 L 1333.63 861.213 C 1338.61 872.489 1351.76 899.391 1355.46 909.761 C 1353.8 917.536 1395.69 991.949 1399.48 1008.08 C 1403.06 1023.28 1400.41 1040.71 1400.9 1056.31 C 1401.17 1064.59 1402.8 1073.88 1401.99 1082.05 C 1400.35 1078.78 1400.85 1075.42 1400.12 1071.7 C 1400.05 1074.13 1400.87 1080.93 1399.54 1082.68 C 1398.57 1083.96 1324.61 1083.25 1315.77 1083.15 C 1315.81 1065.02 1316.17 1045.41 1315.72 1027.4 C 1313.07 1037.91 1315.32 1069.9 1314.36 1082.5 L 1313.44 1082.71 C 1296.56 1085.33 1253.21 1080.96 1236.91 1083.97 L 1233.84 1083.44 C 1226.2 1082.9 1213.13 1083.34 1205.11 1083.35 L 1147.52 1083.29 C 1147.56 1068.65 1148.44 1036.29 1147.17 1022.76 C 1145.22 1040.78 1148.27 1066.88 1146.13 1082.91 C 1144.9 1081.02 1145.48 1073.46 1144.22 1069.41 C 1144.11 1074.04 1144.09 1078.67 1144.17 1083.29 L 1070.57 1083.42 C 1070.62 1071.27 1071.38 1050.29 1070.15 1038.91 C 1069.35 1046.44 1070.48 1081.27 1068.65 1084.25 C 1068.49 1079.2 1068.64 1070.94 1067.21 1066.4 C 1067.08 1072.11 1067.04 1077.81 1067.09 1083.52 C 1039.69 1083.82 1010.15 1083.72 982.714 1083.33 C 982.551 1064.18 983.736 1033.54 982.262 1015.52 C 979.743 1027.69 983.142 1066.12 980.792 1083.41 C 979.288 1061.64 982.427 1035.74 979.783 1014.87 C 978.144 1027.45 979.292 1068.47 979.244 1083.32 C 954.131 1083.17 929.018 1083.2 903.906 1083.39 C 903.95 1077.61 904.013 1072.21 903.813 1066.43 C 902.808 1071.22 903.07 1082.1 901.941 1083.5 L 901.085 1083.22 C 876.295 1084.23 840.822 1083.55 815.58 1083.15 C 813.162 1072.17 816.556 1026.01 813.109 1014.98 C 811.334 1024.15 812.505 1070.71 812.42 1083.27 C 787.292 1083.26 761.548 1083.75 736.616 1082.88 C 736.123 1082.86 735.624 1080.25 735.612 1080.2 C 734.879 1082.58 735.246 1081.87 733.889 1083.79 C 732.906 1078.63 733.586 1070.72 733.421 1065.12 C 732.956 1049.4 734.439 1030.15 732.929 1014.83 C 731.322 1029.84 732.39 1066.8 732.43 1083.38 C 705.663 1083.48 674.489 1082.42 648.161 1083.42 L 646.303 1081.15 C 646.153 1078.94 646.004 1077.54 646.141 1075.33 C 648.504 1066.42 646.725 1026.15 647.882 1014.19 C 648.841 1004.27 654.692 1000.57 654.046 994.931 C 657.028 988.449 660.156 981.952 663.407 975.603 C 682.687 937.943 700.615 899.169 720.369 861.796 L 721.957 865.318 C 723.531 863.159 724.144 861.384 727.04 861.239 C 735.651 860.81 786.166 859.555 790.645 862.317 L 791.967 863.014 C 790.758 866.537 789.454 869.287 789.614 872.965 C 791.69 868.652 793.595 865.116 795.909 860.956 C 804.96 861.031 853.629 859.742 858.292 862.135 C 860.44 863.451 859.613 862.561 860.77 864.809 C 861.441 863.208 861.517 861.939 862.829 861.683 C 871.044 860.079 922.901 859.87 927.671 862.104 C 929.424 860.479 928.403 860.955 930.709 860.628 C 946.547 861.442 979.556 859.542 992.317 861.354 L 994.334 861.966 C 997.797 859.207 1048.19 861.26 1057.62 860.379 L 1059.92 861.321 C 1069.36 860.28 1112.68 860.417 1122.89 861.084 L 1125.79 861.287 C 1133.04 860.472 1184.32 860.233 1190.59 861.306 L 1193.36 861.268 C 1204.84 860.358 1248.66 860.236 1259.96 861.069 L 1262.76 861.242 z"/>
<path transform="translate(0,0)" fill="rgb(239,236,229)" d="M 1262.76 861.242 C 1270.37 860.124 1324.46 859.755 1330.41 861.37 C 1334.56 873.963 1348.49 902.761 1354.55 915.752 L 1399.15 1011.23 L 1315.6 1011.24 C 1307.01 989.758 1299.04 965.355 1291.29 943.423 C 1281.71 916.32 1271.53 888.506 1262.76 861.242 z"/>
<path transform="translate(0,0)" fill="rgb(239,236,229)" d="M 860.77 864.809 C 861.441 863.208 861.517 861.939 862.829 861.683 C 871.044 860.079 922.901 859.87 927.671 862.104 C 916.942 911.412 910.601 962.313 900.843 1011.37 L 816.013 1011.32 C 829.595 963.288 846.262 912.93 860.77 864.809 z"/>
<path transform="translate(0,0)" fill="rgb(239,236,229)" d="M 1125.79 861.287 C 1133.04 860.472 1184.32 860.233 1190.59 861.306 C 1191.02 866.895 1200.57 898.055 1202.71 905.609 C 1212.66 940.831 1223.57 976.035 1233.02 1011.42 C 1204.71 1011.04 1175.68 1011.36 1147.31 1011.36 C 1140.08 962.136 1134.17 910.079 1125.79 861.287 z"/>
<path transform="translate(0,0)" fill="rgb(239,236,229)" d="M 721.957 865.318 C 723.531 863.159 724.144 861.384 727.04 861.239 C 735.651 860.81 786.166 859.555 790.645 862.317 C 779.762 885.62 767.794 919.791 758.632 944.317 C 751.058 964.594 739.627 991.409 733.174 1011.09 C 705.529 1011.1 677.224 1011.42 649.635 1011.05 L 697.53 914.815 C 703.876 902.124 717.092 877.596 721.957 865.318 z"/>
<path transform="translate(0,0)" fill="rgb(239,236,229)" d="M 994.334 861.966 C 997.797 859.207 1048.19 861.26 1057.62 860.379 C 1055.87 870.998 1058.86 897.539 1059.53 909.193 C 1061.48 942.961 1065.37 977.687 1067.01 1011.45 L 982.856 1011.41 C 984.457 963.144 991.614 910.763 994.334 861.966 z"/>
<path transform="translate(0,0)" fill="rgb(11,148,249)" d="M 1193.36 861.268 C 1204.84 860.358 1248.66 860.236 1259.96 861.069 C 1261.86 872.796 1274.76 906.62 1279.34 919.509 C 1289.92 950.177 1300.76 980.753 1311.86 1011.23 L 1237.27 1011.32 L 1193.36 861.268 z"/>
<path transform="translate(0,0)" fill="rgb(11,148,249)" d="M 795.909 860.956 C 804.96 861.031 853.629 859.742 858.292 862.135 C 849.414 890.01 840.763 917.958 832.34 945.974 C 826.204 965.718 817.34 991.691 812.784 1011.25 L 736.504 1011.5 C 749.606 978.323 762.407 945.028 774.905 911.62 C 778.679 901.549 786.927 881.973 789.614 872.965 C 791.69 868.652 793.595 865.116 795.909 860.956 z"/>
<path transform="translate(0,0)" fill="rgb(11,148,249)" d="M 1059.92 861.321 C 1069.36 860.28 1112.68 860.417 1122.89 861.084 C 1122.91 868.914 1127.44 893.083 1128.54 902.475 C 1132.67 937.849 1140.18 975.948 1143.43 1011.22 L 1070.18 1011.46 C 1069.12 964.763 1062.31 909.623 1059.92 861.321 z"/>
<path transform="translate(0,0)" fill="rgb(11,148,249)" d="M 930.709 860.628 C 946.547 861.442 979.556 859.542 992.317 861.354 C 990.725 866.035 988.53 894.736 987.873 902.054 C 984.357 938.37 981.422 974.739 979.069 1011.15 C 954.347 1010.91 929.2 1011.17 904.444 1011.19 L 922.747 906.381 C 924.919 894.003 929.654 872.206 930.709 860.628 z"/>
<path transform="translate(0,0)" fill="rgb(239,236,229)" d="M 1147.17 1022.76 C 1147.23 1022.12 1147.17 1015.2 1148.1 1015.19 C 1176.34 1014.86 1205.19 1014.39 1233.47 1014.87 C 1233.96 1037.51 1233.13 1061.04 1233.84 1083.44 C 1226.2 1082.9 1213.13 1083.34 1205.11 1083.35 L 1147.52 1083.29 C 1147.56 1068.65 1148.44 1036.29 1147.17 1022.76 z"/>
<path transform="translate(0,0)" fill="rgb(239,236,229)" d="M 815.97 1014.85 C 844.217 1014.7 872.465 1014.73 900.712 1014.93 C 900.623 1033.19 899.58 1065.9 901.085 1083.22 C 876.295 1084.23 840.822 1083.55 815.58 1083.15 C 816.943 1074.2 815.903 1026.22 815.97 1014.85 z"/>
<path transform="translate(0,0)" fill="rgb(239,236,229)" d="M 982.262 1015.52 C 988.258 1013.69 1056.29 1014.82 1066.99 1014.93 C 1067.01 1029.15 1066.34 1052.83 1067.21 1066.4 C 1067.08 1072.11 1067.04 1077.81 1067.09 1083.52 C 1039.69 1083.82 1010.15 1083.72 982.714 1083.33 C 982.551 1064.18 983.736 1033.54 982.262 1015.52 z"/>
<path transform="translate(0,0)" fill="rgb(239,236,229)" d="M 1315.88 1014.68 C 1343.29 1014.56 1372.63 1014.23 1399.91 1014.8 C 1400.01 1031.67 1399.16 1055.45 1400.12 1071.7 C 1400.05 1074.13 1400.87 1080.93 1399.54 1082.68 C 1398.57 1083.96 1324.61 1083.25 1315.77 1083.15 C 1315.81 1065.02 1316.17 1045.41 1315.72 1027.4 C 1315.89 1023.28 1315.82 1018.85 1315.88 1014.68 z"/>
<path transform="translate(0,0)" fill="rgb(239,236,229)" d="M 649.047 1014.66 C 674.656 1014.36 707.764 1013.85 732.929 1014.83 C 731.322 1029.84 732.39 1066.8 732.43 1083.38 C 705.663 1083.48 674.489 1082.42 648.161 1083.42 C 649.656 1076.53 648.981 1025.12 649.047 1014.66 z"/>
<path transform="translate(0,0)" fill="rgb(11,148,249)" d="M 736.006 1015.03 C 761.098 1014.92 788.147 1014.51 813.109 1014.98 C 811.334 1024.15 812.505 1070.71 812.42 1083.27 C 787.292 1083.26 761.548 1083.75 736.616 1082.88 C 736.123 1082.86 735.624 1080.25 735.612 1080.2 C 737.013 1062.95 735.849 1033.47 736.006 1015.03 z"/>
<path transform="translate(0,0)" fill="rgb(11,148,249)" d="M 903.968 1015.02 C 928.486 1014.82 955.373 1014.47 979.783 1014.87 C 978.144 1027.45 979.292 1068.47 979.244 1083.32 C 954.131 1083.17 929.018 1083.2 903.906 1083.39 C 903.95 1077.61 904.013 1072.21 903.813 1066.43 C 904.653 1051.75 903.784 1030.56 903.968 1015.02 z"/>
<path transform="translate(0,0)" fill="rgb(11,148,249)" d="M 1237.21 1014.97 L 1312.51 1014.79 C 1313.04 1029.36 1311.52 1070.48 1313.44 1082.71 C 1296.56 1085.33 1253.21 1080.96 1236.91 1083.97 C 1238.31 1065.05 1237.12 1034.58 1237.21 1014.97 z"/>
<path transform="translate(0,0)" fill="rgb(11,148,249)" d="M 1070.25 1014.98 C 1094.48 1014.88 1119.77 1014.6 1143.93 1014.87 C 1144.03 1031.22 1143.3 1053.77 1144.22 1069.41 C 1144.11 1074.04 1144.09 1078.67 1144.17 1083.29 L 1070.57 1083.42 C 1070.62 1071.27 1071.38 1050.29 1070.15 1038.91 C 1070.62 1032.76 1070.26 1021.53 1070.25 1014.98 z"/>
<path transform="translate(0,0)" fill="rgb(11,148,249)" d="M 451.224 349.187 L 1597.1 349.063 C 1597.22 357.061 1597.89 376.077 1596.56 382.843 C 1594.77 384.562 1595.49 384.205 1593.18 384.698 C 1595.4 385.144 1594.35 384.699 1596.29 386.12 C 1593.47 385.973 1592.77 385.372 1591.17 386.706 L 1591.48 388.481 C 1582.41 394.88 1565.15 406.547 1555.75 412.019 L 909.127 412.892 L 637.299 412.82 C 590.882 412.747 538.773 413.58 492.662 412.14 C 482.109 405.041 471.135 397.851 460.745 390.572 C 459.236 389.92 458.087 389.025 456.861 387.928 L 455.631 386.874 L 451.976 385.916 L 451.385 384.564 C 451.326 372.829 451.152 360.906 451.224 349.187 z"/>
<path transform="translate(0,0)" fill="rgb(11,148,249)" d="M 1591.17 386.706 L 1591.48 388.481 C 1582.41 394.88 1565.15 406.547 1555.75 412.019 L 909.127 412.892 L 637.299 412.82 C 590.882 412.747 538.773 413.58 492.662 412.14 C 482.109 405.041 471.135 397.851 460.745 390.572 C 466.662 385.051 486.519 391.124 495.163 387.208 C 585.984 385.962 678.87 386.975 769.851 386.994 L 1271.35 387.021 L 1482.8 386.998 C 1515.41 386.983 1559.29 388.234 1591.17 386.706 z"/>
<path transform="translate(0,0)" fill="rgb(1,0,1)" d="M 451.385 384.564 C 464.259 382.887 506.355 383.863 521.582 383.88 L 662.162 383.963 L 1138.92 383.937 L 1468.81 383.968 L 1550.39 383.938 C 1559.17 383.91 1586 383.344 1593.18 384.698 C 1595.4 385.144 1594.35 384.699 1596.29 386.12 C 1593.47 385.973 1592.77 385.372 1591.17 386.706 C 1559.29 388.234 1515.41 386.983 1482.8 386.998 L 1271.35 387.021 L 769.851 386.994 C 678.87 386.975 585.984 385.962 495.163 387.208 C 486.519 391.124 466.662 385.051 460.745 390.572 C 459.236 389.92 458.087 389.025 456.861 387.928 L 455.631 386.874 L 451.976 385.916 L 451.385 384.564 z"/>
<path transform="translate(0,0)" fill="rgb(11,148,249)" d="M 455.631 386.874 C 468.736 387.432 482.175 386.661 495.163 387.208 C 486.519 391.124 466.662 385.051 460.745 390.572 C 459.236 389.92 458.087 389.025 456.861 387.928 L 455.631 386.874 z"/>
<path transform="translate(0,0)" fill="rgb(239,236,229)" d="M 1532.15 852.938 C 1539.34 852.92 1546.53 852.94 1553.72 852.999 C 1553.75 859.185 1554.53 878.484 1552.82 882.978 C 1552.9 884.974 1552.62 885.019 1551.67 886.899 C 1565.93 909.552 1582.07 931.817 1597.49 953.729 C 1610.92 972.801 1624.22 992.366 1638.01 1011.13 C 1627.59 1011.1 1577.33 1010.33 1569.65 1011.73 C 1580.1 1013.24 1635.05 1011.04 1638.46 1012.97 C 1635.79 1015.34 1628.49 1011.92 1624.26 1014.7 C 1628.77 1014.93 1634.34 1014.76 1638.99 1014.79 L 1639.07 1083.04 C 1632.36 1083.03 1572.02 1083.46 1571.32 1082.43 C 1570.27 1080.89 1570.83 1077.09 1570.72 1075.26 C 1569.64 1076.58 1569.64 1078.14 1569.25 1080.05 C 1569.67 1081.17 1569.57 1080.51 1569.22 1082.07 L 1568.63 1081.93 L 1568.44 1079.49 L 1568.75 1079.65 C 1568.33 1075.27 1567.91 1071.77 1567.17 1067.43 C 1567 1072.73 1567.02 1077.79 1567.02 1083.08 C 1539.48 1083.27 1510.2 1083.6 1482.78 1083.3 C 1482.7 1070.15 1483.34 1053.99 1482.7 1041.27 C 1480.63 1043.99 1482.08 1075.52 1481.51 1082.33 C 1477.91 1069.79 1482.26 1031.41 1479.73 1014.8 C 1478.83 1020.68 1479.23 1032.07 1479.23 1038.5 L 1479.15 1083.36 L 1403.6 1083.53 C 1403.77 1067.61 1404.25 1029.65 1402.93 1015.04 L 1402.85 1013.47 C 1406.6 1010.27 1449.84 1014.19 1454.74 1011.29 C 1438.62 1010.66 1419.66 1011.18 1403.33 1011.22 C 1387.71 977.242 1371.75 943.421 1355.46 909.761 C 1351.76 899.391 1338.61 872.489 1333.63 861.213 C 1347.91 859.738 1378.22 860.735 1393.33 860.839 L 1397.55 866.482 C 1397.88 864.428 1397.58 864.032 1397.16 861.979 L 1398.34 861.331 C 1405.43 860.3 1461.59 860.022 1467.09 861.146 L 1471.48 861.096 C 1479.71 860.721 1530.11 859.578 1534.41 862.033 C 1535.07 860.959 1535.6 860.093 1536.31 859.046 C 1535.05 856.917 1533.52 854.992 1532.15 852.938 z"/>
<path transform="translate(0,0)" fill="rgb(11,148,249)" d="M 1333.63 861.213 C 1347.91 859.738 1378.22 860.735 1393.33 860.839 L 1397.55 866.482 C 1416.38 899.14 1433.52 933.653 1452.78 966.299 C 1461.66 981.342 1469.06 996.503 1478.81 1011.25 C 1470.88 1011.25 1462.64 1011.13 1454.74 1011.29 C 1438.62 1010.66 1419.66 1011.18 1403.33 1011.22 C 1387.71 977.242 1371.75 943.421 1355.46 909.761 C 1351.76 899.391 1338.61 872.489 1333.63 861.213 z"/>
<path transform="translate(0,0)" fill="rgb(11,148,249)" d="M 1532.15 852.938 C 1539.34 852.92 1546.53 852.94 1553.72 852.999 C 1553.75 859.185 1554.53 878.484 1552.82 882.978 C 1552.9 884.974 1552.62 885.019 1551.67 886.899 C 1565.93 909.552 1582.07 931.817 1597.49 953.729 C 1610.92 972.801 1624.22 992.366 1638.01 1011.13 C 1627.59 1011.1 1577.33 1010.33 1569.65 1011.73 C 1562.12 997.725 1551.01 982.79 1542.55 969.083 C 1520.27 932.983 1493.48 896.995 1471.48 861.096 C 1479.71 860.721 1530.11 859.578 1534.41 862.033 C 1535.07 860.959 1535.6 860.093 1536.31 859.046 C 1535.05 856.917 1533.52 854.992 1532.15 852.938 z"/>
<path transform="translate(0,0)" fill="rgb(11,148,249)" d="M 1532.15 852.938 C 1539.34 852.92 1546.53 852.94 1553.72 852.999 C 1553.75 859.185 1554.53 878.484 1552.82 882.978 C 1547.18 875.21 1542.21 866.996 1536.31 859.046 C 1535.05 856.917 1533.52 854.992 1532.15 852.938 z"/>
<path transform="translate(0,0)" fill="rgb(1,0,1)" d="M 1536.31 859.046 C 1542.21 866.996 1547.18 875.21 1552.82 882.978 C 1552.9 884.974 1552.62 885.019 1551.67 886.899 C 1547.55 881.537 1537.71 867.998 1534.41 862.033 C 1535.07 860.959 1535.6 860.093 1536.31 859.046 z"/>
<path transform="translate(0,0)" fill="rgb(239,236,229)" d="M 1482.73 1014.76 C 1510.72 1014.92 1539.1 1014.45 1566.99 1014.84 C 1567.02 1029.66 1566.21 1053.37 1567.17 1067.43 C 1567 1072.73 1567.02 1077.79 1567.02 1083.08 C 1539.48 1083.27 1510.2 1083.6 1482.78 1083.3 C 1482.7 1070.15 1483.34 1053.99 1482.7 1041.27 C 1482.79 1032.43 1482.8 1023.59 1482.73 1014.76 z"/>
<path transform="translate(0,0)" fill="rgb(11,148,249)" d="M 1402.93 1015.04 C 1426.94 1014.48 1455.62 1014.55 1479.73 1014.8 C 1478.83 1020.68 1479.23 1032.07 1479.23 1038.5 L 1479.15 1083.36 L 1403.6 1083.53 C 1403.77 1067.61 1404.25 1029.65 1402.93 1015.04 z"/>
<path transform="translate(0,0)" fill="rgb(11,148,249)" d="M 1624.26 1014.7 C 1628.77 1014.93 1634.34 1014.76 1638.99 1014.79 L 1639.07 1083.04 C 1632.36 1083.03 1572.02 1083.46 1571.32 1082.43 C 1570.27 1080.89 1570.83 1077.09 1570.72 1075.26 C 1571.25 1056.09 1570.93 1034.18 1570.73 1014.92 C 1588.34 1014.93 1606.7 1015.19 1624.26 1014.7 z"/>
<path transform="translate(0,0)" fill="rgb(1,0,1)" d="M 1467.09 861.146 L 1471.48 861.096 C 1493.48 896.995 1520.27 932.983 1542.55 969.083 C 1551.01 982.79 1562.12 997.725 1569.65 1011.73 C 1580.1 1013.24 1635.05 1011.04 1638.46 1012.97 C 1635.79 1015.34 1628.49 1011.92 1624.26 1014.7 C 1606.7 1015.19 1588.34 1014.93 1570.73 1014.92 C 1570.93 1034.18 1571.25 1056.09 1570.72 1075.26 C 1569.64 1076.58 1569.64 1078.14 1569.25 1080.05 C 1569.67 1081.17 1569.57 1080.51 1569.22 1082.07 L 1568.63 1081.93 L 1568.44 1079.49 L 1568.75 1079.65 C 1568.33 1075.27 1567.91 1071.77 1567.17 1067.43 C 1566.21 1053.37 1567.02 1029.66 1566.99 1014.84 C 1539.1 1014.45 1510.72 1014.92 1482.73 1014.76 C 1482.8 1023.59 1482.79 1032.43 1482.7 1041.27 C 1480.63 1043.99 1482.08 1075.52 1481.51 1082.33 C 1477.91 1069.79 1482.26 1031.41 1479.73 1014.8 C 1455.62 1014.55 1426.94 1014.48 1402.93 1015.04 L 1402.85 1013.47 C 1406.6 1010.27 1449.84 1014.19 1454.74 1011.29 C 1462.64 1011.13 1470.88 1011.25 1478.81 1011.25 C 1469.06 996.503 1461.66 981.342 1452.78 966.299 C 1433.52 933.653 1416.38 899.14 1397.55 866.482 C 1397.88 864.428 1397.58 864.032 1397.16 861.979 L 1398.34 861.331 C 1408.17 876.822 1420.65 901.55 1429.97 918.421 L 1482.18 1011.29 C 1509.75 1011.25 1538.3 1010.84 1565.78 1011.31 L 1467.09 861.146 z"/>
<path transform="translate(0,0)" fill="rgb(239,236,229)" d="M 580.096 861.222 L 582.737 860.41 C 606.187 861.151 629.96 860.288 653.509 860.893 L 657.634 861.048 C 666.228 860.778 715.307 859.963 720.369 861.796 C 700.615 899.169 682.687 937.943 663.407 975.603 C 660.156 981.952 657.028 988.449 654.046 994.931 C 650.641 1001 648.657 1004.77 645.94 1011.15 L 571.747 1011.38 L 570.516 1010.54 C 566.699 1016.29 570.741 1077.01 568.626 1083.26 L 568.069 1082.88 C 561.248 1083.62 544.687 1083.21 537 1083.18 C 518.829 1083.13 500.064 1083.37 481.922 1083.04 L 480.69 1083.33 C 479.41 1080.29 479.508 1067.73 479.13 1062.96 C 478.868 1069.68 478.954 1076.38 478.979 1083.1 L 408.098 1083.11 C 408.016 1072.86 407.063 1019.66 408.804 1014.59 C 410.757 1009.22 424.313 1014.67 429.748 1011.41 L 409.744 1011.48 C 445.325 962.019 478.793 910.225 514.602 860.659 C 536.316 861.166 558.332 860.283 580.096 861.222 z"/>
<path transform="translate(0,0)" fill="rgb(11,148,249)" d="M 657.634 861.048 C 666.228 860.778 715.307 859.963 720.369 861.796 C 700.615 899.169 682.687 937.943 663.407 975.603 C 660.156 981.952 657.028 988.449 654.046 994.931 C 650.641 1001 648.657 1004.77 645.94 1011.15 L 571.747 1011.38 C 578.154 997.949 590.71 977.971 598.5 964.228 C 617.982 929.704 637.694 895.31 657.634 861.048 z"/>
<path transform="translate(0,0)" fill="rgb(11,148,249)" d="M 514.602 860.659 C 536.316 861.166 558.332 860.283 580.096 861.222 C 556.653 895.352 533.494 929.676 510.623 964.192 C 502.691 976.182 486.338 999.544 480.044 1011.24 L 429.748 1011.41 L 409.744 1011.48 C 445.325 962.019 478.793 910.225 514.602 860.659 z"/>
<path transform="translate(0,0)" fill="rgb(239,236,229)" d="M 482.534 1014.53 C 510.952 1014.29 539.371 1014.32 567.788 1014.62 C 567.511 1028.61 566.662 1070.51 568.069 1082.88 C 561.248 1083.62 544.687 1083.21 537 1083.18 C 518.829 1083.13 500.064 1083.37 481.922 1083.04 C 483.587 1064.44 482.042 1034.4 482.534 1014.53 z"/>
<path transform="translate(0,0)" fill="rgb(11,148,249)" d="M 408.804 1014.59 C 427.122 1016.03 459.664 1014.83 479.039 1014.79 C 478.961 1029.18 478.388 1049.01 479.13 1062.96 C 478.868 1069.68 478.954 1076.38 478.979 1083.1 L 408.098 1083.11 C 408.016 1072.86 407.063 1019.66 408.804 1014.59 z"/>
<path transform="translate(0,0)" fill="rgb(1,0,1)" d="M 580.096 861.222 L 582.737 860.41 C 581.03 867.417 557.654 900.214 552.349 908.055 L 506.393 977.094 C 499.916 986.87 489.368 1001.6 483.813 1011.2 L 567.859 1011.23 C 586.692 977.665 605.709 944.202 624.909 910.844 C 632.525 897.646 647.345 873.873 653.509 860.893 L 657.634 861.048 C 637.694 895.31 617.982 929.704 598.5 964.228 C 590.71 977.971 578.154 997.949 571.747 1011.38 L 570.516 1010.54 C 566.699 1016.29 570.741 1077.01 568.626 1083.26 L 568.069 1082.88 C 566.662 1070.51 567.511 1028.61 567.788 1014.62 C 539.371 1014.32 510.952 1014.29 482.534 1014.53 C 482.042 1034.4 483.587 1064.44 481.922 1083.04 L 480.69 1083.33 C 479.41 1080.29 479.508 1067.73 479.13 1062.96 C 478.388 1049.01 478.961 1029.18 479.039 1014.79 C 459.664 1014.83 427.122 1016.03 408.804 1014.59 C 410.757 1009.22 424.313 1014.67 429.748 1011.41 L 480.044 1011.24 C 486.338 999.544 502.691 976.182 510.623 964.192 C 533.494 929.676 556.653 895.352 580.096 861.222 z"/>
<path transform="translate(0,0)" fill="rgb(11,148,249)" d="M 835.74 796.665 L 1083.49 796.708 C 1138.39 796.776 1194.43 797.371 1249.26 796.684 C 1261.59 797.279 1277.32 796.813 1289.85 796.804 L 1366.64 796.775 L 1602.19 796.909 L 1602.11 824.971 L 445.859 824.388 L 445.768 797.022 C 575.175 796.468 706.621 798.204 835.74 796.665 z"/>
<path transform="translate(0,0)" fill="rgb(11,148,249)" d="M 473.047 1104.68 L 522.671 1104.72 L 522.902 1421.2 L 523.018 1511.2 C 523.036 1525.83 522.428 1549.31 523.885 1563.12 C 523.873 1563.37 523.871 1567.1 523.078 1567.15 C 506.634 1568.19 489.703 1566.64 472.996 1568 C 474.279 1515.4 473.156 1457.79 473.117 1404.96 L 473.047 1104.68 z"/>
<path transform="translate(0,0)" fill="rgb(11,148,249)" d="M 510.615 437.041 L 559.978 437.059 C 559.898 555.227 558.921 675.216 560.365 793.272 C 543.882 793.011 527.396 792.996 510.913 793.227 L 510.615 437.041 z"/>
<path transform="translate(0,0)" fill="rgb(11,148,249)" d="M 571.258 1015.08 L 645.871 1014.92 C 645.827 1033.47 645.042 1057.19 646.141 1075.33 C 646.004 1077.54 646.153 1078.94 646.303 1081.15 C 646.225 1081.32 645.596 1082.76 645.386 1082.77 C 628.258 1083.79 586.37 1083.27 571.207 1083.44 L 571.258 1015.08 z"/>
<path transform="translate(0,0)" fill="rgb(11,148,249)" d="M 489.498 852.4 C 498.428 852.088 507.363 851.964 516.297 852.029 C 511.134 859.782 506.237 866.183 501.092 873.636 C 497.158 879.199 493.392 884.861 489.329 890.315 C 489.123 878.337 488.933 864.371 489.498 852.4 z"/>
</svg>