<svg version="1.1" xmlns="http://www.w3.org/2000/svg" style="display: block;" viewBox="0 0 2048 2048" width="1024" height="1024" preserveAspectRatio="none" xmlns:c2pa="http://c2pa.org/manifest"><metadata><c2pa:manifest>AAAzs2p1bWIAAAAeanVtZGMycGEAEQAQgAAAqgA4m3EDYzJwYQAAADONanVtYgAAAEdqdW1kYzJtYQARABCAAACqADibcQN1cm46YzJwYTpjNzU2YTlmYS01NDY1LTRkNjgtOTE3OS1kNmNmNDBjNTIzYzgAAAAB4mp1bWIAAAApanVtZGMyYXMAEQAQgAAAqgA4m3EDYzJwYS5hc3NlcnRpb25zAAAAAO1qdW1iAAAAQWp1bWRjYm9yABEAEIAAAKoAOJtxE2MycGEuYWN0aW9ucy52MgAAAAAYYzJzaEib44irkLEfk9LnuqY6+I4AAACkY2JvcqFnYWN0aW9uc4GjZmFjdGlvbmxjMnBhLmNyZWF0ZWRxZGlnaXRhbFNvdXJjZVR5cGV4Rmh0dHA6Ly9jdi5pcHRjLm9yZy9uZXdzY29kZXMvZGlnaXRhbHNvdXJjZXR5cGUvdHJhaW5lZEFsZ29yaXRobWljTWVkaWFrZGVzY3JpcHRpb252Q3JlYXRlZCBieSBSZWNyYWZ0IEFJLgAAAMRqdW1iAAAAQGp1bWRjYm9yABEAEIAAAKoAOJtxE2MycGEuaGFzaC5kYXRhAAAAABhjMnNogL9at4q/QOO3BSEPdYdQewAAAHxjYm9ypWpleGNsdXNpb25zgaJlc3RhcnQY22ZsZW5ndGgZRPBkbmFtZW5qdW1iZiBtYW5pZmVzdGNhbGdmc2hhMjU2ZGhhc2hYIBHMYlSanG08b2vQ2te/vRv4xdgLdSZDA2pywZxVMNtRY3BhZEkAAAAAAAAAAAAAAAI0anVtYgAAACdqdW1kYzJjbAARABCAAACqADibcQNjMnBhLmNsYWltLnYyAAAAAgVjYm9ypmppbnN0YW5jZUlEeCx4bXA6aWlkOmRmYTI1YTEzLTYwMWItNDQxNi1iMDc5LWIxNTBmM2RiMTQzNHRjbGFpbV9nZW5lcmF0b3JfaW5mb6NkbmFtZWpyZWNyYWZ0LmFpZ3ZlcnNpb254KDgxY2U4MmUyYzVjM2NiZmJlOGM2ZmJlMTc5ZDVmOGQ5MWM0MDljZTF3b3JnLmNvbnRlbnRhdXRoLmMycGFfcnNmMC45MC43aXNpZ25hdHVyZXhNc2VsZiNqdW1iZj0vYzJwYS91cm46YzJwYTpjNzU2YTlmYS01NDY1LTRkNjgtOTE3OS1kNmNmNDBjNTIzYzgvYzJwYS5zaWduYXR1cmVyY3JlYXRlZF9hc3NlcnRpb25zgqJjdXJseCpzZWxmI2p1bWJmPWMycGEuYXNzZXJ0aW9ucy9jMnBhLmFjdGlvbnMudjJkaGFzaFggyV1wvvPYaFHPVvmEDGF2u7LwO2PPhYnomRnjNLBE8SOiY3VybHgpc2VsZiNqdW1iZj1jMnBhLmFzc2VydGlvbnMvYzJwYS5oYXNoLmRhdGFkaGFzaFggsEQt2QvCReXA3nY/pLcqtdS72XHPrtpshwVn3SEq07toZGM6dGl0bGV4GlJlY3JhZnQgQUkgR2VuZXJhdGVkIEltYWdlY2FsZ2ZzaGEyNTYAAC8oanVtYgAAAChqdW1kYzJjcwARABCAAACqADibcQNjMnBhLnNpZ25hdHVyZQAAAC74Y2JvctKEWQPsogEmGCGCWQH0MIIB8DCCAZWgAwIBAgIUJcFH1Va4pZJDhzepwEtzPPNj2YMwCgYIKoZIzj0EAwIwQTELMAkGA1UEBhMCVVMxEzARBgNVBAoMClJlY3JhZnQgQUkxHTAbBgNVBAMMFFJlY3JhZnQgQzJQQSBSb290IENBMB4XDTI2MDkxMDE2NTIzNFoXDTI3MDkxMDE2NTIzNFowNzELMAkGA1UEBhMCVVMxEzARBgNVBAoMClJlY3JhZnQgQUkxEzARBgNVBAMMCnJlY3JhZnQuYWkwWTATBgcqhkjOPQIBBggqhkjOPQMBBwNCAASoOPdqG3YmNRdGd+dltfh1ikcE/nkLm8YK10H29taFa8iegusHYB1678yl5Bs18hLaV/Fhd+Ni32xAlnHdbimFo3UwczAMBgNVHRMBAf8EAjAAMA4GA1UdDwEB/wQEAwIGwDATBgNVHSUEDDAKBggrBgEFBQcDBDAdBgNVHQ4EFgQUgVwhvbEXPSSgCubOfUHxCtuoVAQwHwYDVR0jBBgwFoAUc9yF+sfWlRHeWv2Iucaec5jwdAgwCgYIKoZIzj0EAwIDSQAwRgIhAJltDpQN+vbXITLxb+8BNwSL6/5WktO4Sevkb0VXjtfWAiEAqhoz7z/sN32NxdnnZsQVTeu3P7CgGtJdXFx283fp08RZAewwggHoMIIBjaADAgECAhQAydo/NKOQWWu/4V5FktVQHX7jTDAKBggqhkjOPQQDAjBBMQswCQYDVQQGEwJVUzETMBEGA1UECgwKUmVjcmFmdCBBSTEdMBsGA1UEAwwUUmVjcmFmdCBDMlBBIFJvb3QgQ0EwHhcNMjYwOTEwMTY1MjM0WhcNMzYwOTA3MTY1MjM0WjBBMQswCQYDVQQGEwJVUzETMBEGA1UECgwKUmVjcmFmdCBBSTEdMBsGA1UEAwwUUmVjcmFmdCBDMlBBIFJvb3QgQ0EwWTATBgcqhkjOPQIBBggqhkjOPQMBBwNCAAQbQ+eF6fkpnHhTwrMxSBLh/JhROWkzsC8L8jN1r1Rlf8oECvzEFk3WujloPtNs3PLADriqR5rGtd+8giFuiTLno2MwYTAfBgNVHSMEGDAWgBRz3IX6x9aVEd5a/Yi5xp5zmPB0CDAPBgNVHRMBAf8EBTADAQH/MA4GA1UdDwEB/wQEAwIBhjAdBgNVHQ4EFgQUc9yF+sfWlRHeWv2Iucaec5jwdAgwCgYIKoZIzj0EAwIDSQAwRgIhAND2Z+xryBRnMbxk8eAzMcAq8bzl0rfA9Y2z7q5QoEUeAiEA6ZbI3e47h5clRZaARSOOotKXsK/YQMWC3vj91d3bmlOhY3BhZFkqtAAAAAAAAAAAAAAAAAAAAAAAAAAAAAAAAAAAAAAAAAAAAAAAAAAAAAAAAAAAAAAAAAAAAAAAAAAAAAAAAAAAAAAAAAAAAAAAAAAAAAAAAAAAAAAAAAAAAAAAAAAAAAAAAAAAAAAAAAAAAAAAAAAAAAAAAAAAAAAAAAAAAAAAAAAAAAAAAAAAAAAAAAAAAAAAAAAAAAAAAAAAAAAAAAAAAAAAAAAAAAAAAAAAAAAAAAAAAAAAAAAAAAAAAAAAAAAAAAAAAAAAAAAAAAAAAAAAAAAAAAAAAAAAAAAAAAAAAAAAAAAAAAAAAAAAAAAAAAAAAAAAAAAAAAAAAAAAAAAAAAAAAAAAAAAAAAAAAAAAAAAAAAAAAAAAAAAAAAAAAAAAAAAAAAAAAAAAAAAAAAAAAAAAAAAAAAAAAAAAAAAAAAAAAAAAAAAAAAAAAAAAAAAAAAAAAAAAAAAAAAAAAAAAAAAAAAAAAAAAAAAAAAAAAAAAAAAAAAAAAAAAAAAAAAAAAAAAAAAAAAAAAAAAAAAAAAAAAAAAAAAAAAAAAAAAAAAAAAAAAAAAAAAAAAAAAAAAAAAAAAAAAAAAAAAAAAAAAAAAAAAAAAAAAAAAAAAAAAAAAAAAAAAAAAAAAAAAAAAAAAAAAAAAAAAAAAAAAAAAAAAAAAAAAAAAAAAAAAAAAAAAAAAAAAAAAAAAAAAAAAAAAAAAAAAAAAAAAAAAAAAAAAAAAAAAAAAAAAAAAAAAAAAAAAAAAAAAAAAAAAAAAAAAAAAAAAAAAAAAAAAAAAAAAAAAAAAAAAAAAAAAAAAAAAAAAAAAAAAAAAAAAAAAAAAAAAAAAAAAAAAAAAAAAAAAAAAAAAAAAAAAAAAAAAAAAAAAAAAAAAAAAAAAAAAAAAAAAAAAAAAAAAAAAAAAAAAAAAAAAAAAAAAAAAAAAAAAAAAAAAAAAAAAAAAAAAAAAAAAAAAAAAAAAAAAAAAAAAAAAAAAAAAAAAAAAAAAAAAAAAAAAAAAAAAAAAAAAAAAAAAAAAAAAAAAAAAAAAAAAAAAAAAAAAAAAAAAAAAAAAAAAAAAAAAAAAAAAAAAAAAAAAAAAAAAAAAAAAAAAAAAAAAAAAAAAAAAAAAAAAAAAAAAAAAAAAAAAAAAAAAAAAAAAAAAAAAAAAAAAAAAAAAAAAAAAAAAAAAAAAAAAAAAAAAAAAAAAAAAAAAAAAAAAAAAAAAAAAAAAAAAAAAAAAAAAAAAAAAAAAAAAAAAAAAAAAAAAAAAAAAAAAAAAAAAAAAAAAAAAAAAAAAAAAAAAAAAAAAAAAAAAAAAAAAAAAAAAAAAAAAAAAAAAAAAAAAAAAAAAAAAAAAAAAAAAAAAAAAAAAAAAAAAAAAAAAAAAAAAAAAAAAAAAAAAAAAAAAAAAAAAAAAAAAAAAAAAAAAAAAAAAAAAAAAAAAAAAAAAAAAAAAAAAAAAAAAAAAAAAAAAAAAAAAAAAAAAAAAAAAAAAAAAAAAAAAAAAAAAAAAAAAAAAAAAAAAAAAAAAAAAAAAAAAAAAAAAAAAAAAAAAAAAAAAAAAAAAAAAAAAAAAAAAAAAAAAAAAAAAAAAAAAAAAAAAAAAAAAAAAAAAAAAAAAAAAAAAAAAAAAAAAAAAAAAAAAAAAAAAAAAAAAAAAAAAAAAAAAAAAAAAAAAAAAAAAAAAAAAAAAAAAAAAAAAAAAAAAAAAAAAAAAAAAAAAAAAAAAAAAAAAAAAAAAAAAAAAAAAAAAAAAAAAAAAAAAAAAAAAAAAAAAAAAAAAAAAAAAAAAAAAAAAAAAAAAAAAAAAAAAAAAAAAAAAAAAAAAAAAAAAAAAAAAAAAAAAAAAAAAAAAAAAAAAAAAAAAAAAAAAAAAAAAAAAAAAAAAAAAAAAAAAAAAAAAAAAAAAAAAAAAAAAAAAAAAAAAAAAAAAAAAAAAAAAAAAAAAAAAAAAAAAAAAAAAAAAAAAAAAAAAAAAAAAAAAAAAAAAAAAAAAAAAAAAAAAAAAAAAAAAAAAAAAAAAAAAAAAAAAAAAAAAAAAAAAAAAAAAAAAAAAAAAAAAAAAAAAAAAAAAAAAAAAAAAAAAAAAAAAAAAAAAAAAAAAAAAAAAAAAAAAAAAAAAAAAAAAAAAAAAAAAAAAAAAAAAAAAAAAAAAAAAAAAAAAAAAAAAAAAAAAAAAAAAAAAAAAAAAAAAAAAAAAAAAAAAAAAAAAAAAAAAAAAAAAAAAAAAAAAAAAAAAAAAAAAAAAAAAAAAAAAAAAAAAAAAAAAAAAAAAAAAAAAAAAAAAAAAAAAAAAAAAAAAAAAAAAAAAAAAAAAAAAAAAAAAAAAAAAAAAAAAAAAAAAAAAAAAAAAAAAAAAAAAAAAAAAAAAAAAAAAAAAAAAAAAAAAAAAAAAAAAAAAAAAAAAAAAAAAAAAAAAAAAAAAAAAAAAAAAAAAAAAAAAAAAAAAAAAAAAAAAAAAAAAAAAAAAAAAAAAAAAAAAAAAAAAAAAAAAAAAAAAAAAAAAAAAAAAAAAAAAAAAAAAAAAAAAAAAAAAAAAAAAAAAAAAAAAAAAAAAAAAAAAAAAAAAAAAAAAAAAAAAAAAAAAAAAAAAAAAAAAAAAAAAAAAAAAAAAAAAAAAAAAAAAAAAAAAAAAAAAAAAAAAAAAAAAAAAAAAAAAAAAAAAAAAAAAAAAAAAAAAAAAAAAAAAAAAAAAAAAAAAAAAAAAAAAAAAAAAAAAAAAAAAAAAAAAAAAAAAAAAAAAAAAAAAAAAAAAAAAAAAAAAAAAAAAAAAAAAAAAAAAAAAAAAAAAAAAAAAAAAAAAAAAAAAAAAAAAAAAAAAAAAAAAAAAAAAAAAAAAAAAAAAAAAAAAAAAAAAAAAAAAAAAAAAAAAAAAAAAAAAAAAAAAAAAAAAAAAAAAAAAAAAAAAAAAAAAAAAAAAAAAAAAAAAAAAAAAAAAAAAAAAAAAAAAAAAAAAAAAAAAAAAAAAAAAAAAAAAAAAAAAAAAAAAAAAAAAAAAAAAAAAAAAAAAAAAAAAAAAAAAAAAAAAAAAAAAAAAAAAAAAAAAAAAAAAAAAAAAAAAAAAAAAAAAAAAAAAAAAAAAAAAAAAAAAAAAAAAAAAAAAAAAAAAAAAAAAAAAAAAAAAAAAAAAAAAAAAAAAAAAAAAAAAAAAAAAAAAAAAAAAAAAAAAAAAAAAAAAAAAAAAAAAAAAAAAAAAAAAAAAAAAAAAAAAAAAAAAAAAAAAAAAAAAAAAAAAAAAAAAAAAAAAAAAAAAAAAAAAAAAAAAAAAAAAAAAAAAAAAAAAAAAAAAAAAAAAAAAAAAAAAAAAAAAAAAAAAAAAAAAAAAAAAAAAAAAAAAAAAAAAAAAAAAAAAAAAAAAAAAAAAAAAAAAAAAAAAAAAAAAAAAAAAAAAAAAAAAAAAAAAAAAAAAAAAAAAAAAAAAAAAAAAAAAAAAAAAAAAAAAAAAAAAAAAAAAAAAAAAAAAAAAAAAAAAAAAAAAAAAAAAAAAAAAAAAAAAAAAAAAAAAAAAAAAAAAAAAAAAAAAAAAAAAAAAAAAAAAAAAAAAAAAAAAAAAAAAAAAAAAAAAAAAAAAAAAAAAAAAAAAAAAAAAAAAAAAAAAAAAAAAAAAAAAAAAAAAAAAAAAAAAAAAAAAAAAAAAAAAAAAAAAAAAAAAAAAAAAAAAAAAAAAAAAAAAAAAAAAAAAAAAAAAAAAAAAAAAAAAAAAAAAAAAAAAAAAAAAAAAAAAAAAAAAAAAAAAAAAAAAAAAAAAAAAAAAAAAAAAAAAAAAAAAAAAAAAAAAAAAAAAAAAAAAAAAAAAAAAAAAAAAAAAAAAAAAAAAAAAAAAAAAAAAAAAAAAAAAAAAAAAAAAAAAAAAAAAAAAAAAAAAAAAAAAAAAAAAAAAAAAAAAAAAAAAAAAAAAAAAAAAAAAAAAAAAAAAAAAAAAAAAAAAAAAAAAAAAAAAAAAAAAAAAAAAAAAAAAAAAAAAAAAAAAAAAAAAAAAAAAAAAAAAAAAAAAAAAAAAAAAAAAAAAAAAAAAAAAAAAAAAAAAAAAAAAAAAAAAAAAAAAAAAAAAAAAAAAAAAAAAAAAAAAAAAAAAAAAAAAAAAAAAAAAAAAAAAAAAAAAAAAAAAAAAAAAAAAAAAAAAAAAAAAAAAAAAAAAAAAAAAAAAAAAAAAAAAAAAAAAAAAAAAAAAAAAAAAAAAAAAAAAAAAAAAAAAAAAAAAAAAAAAAAAAAAAAAAAAAAAAAAAAAAAAAAAAAAAAAAAAAAAAAAAAAAAAAAAAAAAAAAAAAAAAAAAAAAAAAAAAAAAAAAAAAAAAAAAAAAAAAAAAAAAAAAAAAAAAAAAAAAAAAAAAAAAAAAAAAAAAAAAAAAAAAAAAAAAAAAAAAAAAAAAAAAAAAAAAAAAAAAAAAAAAAAAAAAAAAAAAAAAAAAAAAAAAAAAAAAAAAAAAAAAAAAAAAAAAAAAAAAAAAAAAAAAAAAAAAAAAAAAAAAAAAAAAAAAAAAAAAAAAAAAAAAAAAAAAAAAAAAAAAAAAAAAAAAAAAAAAAAAAAAAAAAAAAAAAAAAAAAAAAAAAAAAAAAAAAAAAAAAAAAAAAAAAAAAAAAAAAAAAAAAAAAAAAAAAAAAAAAAAAAAAAAAAAAAAAAAAAAAAAAAAAAAAAAAAAAAAAAAAAAAAAAAAAAAAAAAAAAAAAAAAAAAAAAAAAAAAAAAAAAAAAAAAAAAAAAAAAAAAAAAAAAAAAAAAAAAAAAAAAAAAAAAAAAAAAAAAAAAAAAAAAAAAAAAAAAAAAAAAAAAAAAAAAAAAAAAAAAAAAAAAAAAAAAAAAAAAAAAAAAAAAAAAAAAAAAAAAAAAAAAAAAAAAAAAAAAAAAAAAAAAAAAAAAAAAAAAAAAAAAAAAAAAAAAAAAAAAAAAAAAAAAAAAAAAAAAAAAAAAAAAAAAAAAAAAAAAAAAAAAAAAAAAAAAAAAAAAAAAAAAAAAAAAAAAAAAAAAAAAAAAAAAAAAAAAAAAAAAAAAAAAAAAAAAAAAAAAAAAAAAAAAAAAAAAAAAAAAAAAAAAAAAAAAAAAAAAAAAAAAAAAAAAAAAAAAAAAAAAAAAAAAAAAAAAAAAAAAAAAAAAAAAAAAAAAAAAAAAAAAAAAAAAAAAAAAAAAAAAAAAAAAAAAAAAAAAAAAAAAAAAAAAAAAAAAAAAAAAAAAAAAAAAAAAAAAAAAAAAAAAAAAAAAAAAAAAAAAAAAAAAAAAAAAAAAAAAAAAAAAAAAAAAAAAAAAAAAAAAAAAAAAAAAAAAAAAAAAAAAAAAAAAAAAAAAAAAAAAAAAAAAAAAAAAAAAAAAAAAAAAAAAAAAAAAAAAAAAAAAAAAAAAAAAAAAAAAAAAAAAAAAAAAAAAAAAAAAAAAAAAAAAAAAAAAAAAAAAAAAAAAAAAAAAAAAAAAAAAAAAAAAAAAAAAAAAAAAAAAAAAAAAAAAAAAAAAAAAAAAAAAAAAAAAAAAAAAAAAAAAAAAAAAAAAAAAAAAAAAAAAAAAAAAAAAAAAAAAAAAAAAAAAAAAAAAAAAAAAAAAAAAAAAAAAAAAAAAAAAAAAAAAAAAAAAAAAAAAAAAAAAAAAAAAAAAAAAAAAAAAAAAAAAAAAAAAAAAAAAAAAAAAAAAAAAAAAAAAAAAAAAAAAAAAAAAAAAAAAAAAAAAAAAAAAAAAAAAAAAAAAAAAAAAAAAAAAAAAAAAAAAAAAAAAAAAAAAAAAAAAAAAAAAAAAAAAAAAAAAAAAAAAAAAAAAAAAAAAAAAAAAAAAAAAAAAAAAAAAAAAAAAAAAAAAAAAAAAAAAAAAAAAAAAAAAAAAAAAAAAAAAAAAAAAAAAAAAAAAAAAAAAAAAAAAAAAAAAAAAAAAAAAAAAAAAAAAAAAAAAAAAAAAAAAAAAAAAAAAAAAAAAAAAAAAAAAAAAAAAAAAAAAAAAAAAAAAAAAAAAAAAAAAAAAAAAAAAAAAAAAAAAAAAAAAAAAAAAAAAAAAAAAAAAAAAAAAAAAAAAAAAAAAAAAAAAAAAAAAAAAAAAAAAAAAAAAAAAAAAAAAAAAAAAAAAAAAAAAAAAAAAAAAAAAAAAAAAAAAAAAAAAAAAAAAAAAAAAAAAAAAAAAAAAAAAAAAAAAAAAAAAAAAAAAAAAAAAAAAAAAAAAAAAAAAAAAAAAAAAAAAAAAAAAAAAAAAAAAAAAAAAAAAAAAAAAAAAAAAAAAAAAAAAAAAAAAAAAAAAAAAAAAAAAAAAAAAAAAAAAAAAAAAAAAAAAAAAAAAAAAAAAAAAAAAAAAAAAAAAAAAAAAAAAAAAAAAAAAAAAAAAAAAAAAAAAAAAAAAAAAAAAAAAAAAAAAAAAAAAAAAAAAAAAAAAAAAAAAAAAAAAAAAAAAAAAAAAAAAAAAAAAAAAAAAAAAAAAAAAAAAAAAAAAAAAAAAAAAAAAAAAAAAAAAAAAAAAAAAAAAAAAAAAAAAAAAAAAAAAAAAAAAAAAAAAAAAAAAAAAAAAAAAAAAAAAAAAAAAAAAAAAAAAAAAAAAAAAAAAAAAAAAAAAAAAAAAAAAAAAAAAAAAAAAAAAAAAAAAAAAAAAAAAAAAAAAAAAAAAAAAAAAAAAAAAAAAAAAAAAAAAAAAAAAAAAAAAAAAAAAAAAAAAAAAAAAAAAAAAAAAAAAAAAAAAAAAAAAAAAAAAAAAAAAAAAAAAAAAAAAAAAAAAAAAAAAAAAAAAAAAAAAAAAAAAAAAAAAAAAAAAAAAAAAAAAAAAAAAAAAAAAAAAAAAAAAAAAAAAAAAAAAAAAAAAAAAAAAAAAAAAAAAAAAAAAAAAAAAAAAAAAAAAAAAAAAAAAAAAAAAAAAAAAAAAAAAAAAAAAAAAAAAAAAAAAAAAAAAAAAAAAAAAAAAAAAAAAAAAAAAAAAAAAAAAAAAAAAAAAAAAAAAAAAAAAAAAAAAAAAAAAAAAAAAAAAAAAAAAAAAAAAAAAAAAAAAAAAAAAAAAAAAAAAAAAAAAAAAAAAAAAAAAAAAAAAAAAAAAAAAAAAAAAAAAAAAAAAAAAAAAAAAAAAAAAAAAAAAAAAAAAAAAAAAAAAAAAAAAAAAAAAAAAAAAAAAAAAAAAAAAAAAAAAAAAAAAAAAAAAAAAAAAAAAAAAAAAAAAAAAAAAAAAAAAAAAAAAAAAAAAAAAAAAAAAAAAAAAAAAAAAAAAAAAAAAAAAAAAAAAAAAAAAAAAAAAAAAAAAAAAAAAAAAAAAAAAAAAAAAAAAAAAAAAAAAAAAAAAAAAAAAAAAAAAAAAAAAAAAAAAAAAAAAAAAAAAAAAAAAAAAAAAAAAAAAAAAAAAAAAAAAAAAAAAAAAAAAAAAAAAAAAAAAAAAAAAAAAAAAAAAAAAAAAAAAAAAAAAAAAAAAAAAAAAAAAAAAAAAAAAAAAAAAAAAAAAAAAAAAAAAAAAAAAAAAAAAAAAAAAAAAAAAAAAAAAAAAAAAAAAAAAAAAAAAAAAAAAAAAAAAAAAAAAAAAAAAAAAAAAAAAAAAAAAAAAAAAAAAAAAAAAAAAAAAAAAAAAAAAAAAAAAAAAAAAAAAAAAAAAAAAAAAAAAAAAAAAAAAAAAAAAAAAAAAAAAAAAAAAAAAAAAAAAAAAAAAAAAAAAAAAAAAAAAAAAAAAAAAAAAAAAAAAAAAAAAAAAAAAAAAAAAAAAAAAAAAAAAAAAAAAAAAAAAAAAAAAAAAAAAAAAAAAAAAAAAAAAAAAAAAAAAAAAAAAAAAAAAAAAAAAAAAAAAAAAAAAAAAAAAAAAAAAAAAAAAAAAAAAAAAAAAAAAAAAAAAAAAAAAAAAAAAAAAAAAAAAAAAAAAAAAAAAAAAAAAAAAAAAAAAAAAAAAAAAAAAAAAAAAAAAAAAAAAAAAAAAAAAAAAAAAAAAAAAAAAAAAAAAAAAAAAAAAAAAAAAAAAAAAAAAAAAAAAAAAAAAAAAAAAAAAAAAAAAAAAAAAAAAAAAAAAAAAAAAAAAAAAAAAAAAAAAAAAAAAAAAAAAAAAAAAAAAAAAAAAAAAAAAAAAAAAAAAAAAAAAAAAAAAAAAAAAAAAAAAAAAAAAAAAAAAAAAAAAAAAAAAAAAAAAAAAAAAAAAAAAAAAAAAAAAAAAAAAAAAAAAAAAAAAAAAAAAAAAAAAAAAAAAAAAAAAAAAAAAAAAAAAAAAAAAAAAAAAAAAAAAAAAAAAAAAAAAAAAAAAAAAAAAAAAAAAAAAAAAAAAAAAAAAAAAAAAAAAAAAAAAAAAAAAAAAAAAAAAAAAAAAAAAAAAAAAAAAAAAAAAAAAAAAAAAAAAAAAAAAAAAAAAAAAAAAAAAAAAAAAAAAAAAAAAAAAAAAAAAAAAAAAAAAAAAAAAAAAAAAAAAAAAAAAAAAAAAAAAAAAAAAAAAAAAAAAAAAAAAAAAAAAAAAAAAAAAAAAAAAAAAAAAAAAAAAAAAAAAAAAAAAAAAAAAAAAAAAAAAAAAAAAAAAAAAAAAAAAAAAAAAAAAAAAAAAAAAAAAAAAAAAAAAAAAAAAAAAAAAAAAAAAAAAAAAAAAAAAAAAAAAAAAAAAAAAAAAAAAAAAAAAAAAAAAAAAAAAAAAAAAAAAAAAAAAAAAAAAAAAAAAAAAAAAAAAAAAAAAAAAAAAAAAAAAAAAAAAAAAAAAAAAAAAAAAAAAAAAAAAAAAAAAAAAAAAAAAAAAAAAAAAAAAAAAAAAAAAAAAAAAAAAAAAAAAAAAAAAAAAAAAAAAAAAAAAAAAAAAAAAAAAAAAAAAAAAAAAAAAAAAAAAAAAAAAAAAAAAAAAAAAAAAAAAAAAAAAAAAAAAAAAAAAAAAAAAAAAAAAAAAAAAAAAAAAAAAAAAAAAAAAAAAAAAAAAAAAAAAAAAAAAAAAAAAAAAAAAAAAAAAAAAAAAAAAAAAAAAAAAAAAAAAAAAAAAAAAAAAAAAAAAAAAAAAAAAAAAAAAAAAAAAAAAAAAAAAAAAAAAAAAAAAAAAAAAAAAAAAAAAAAAAAAAAAAAAAAAAAAAAAAAAAAAAAAAAAAAAAAAAAAAAAAAAAAAAAAAAAAAAAAAAAAAAAAAAAAAAAAAAAAAAAAAAAAAAAAAAAAAAAAAAAAAAAAAAAAAAAAAAAAAAAAAAAAAAAAAAAAAAAAAAAAAAAAAAAAAAAAAAAAAAAAAAAAAAAAAAAAAAAAAAAAAAAAAAAAAAAAAAAAAAAAAAAAAAAAAAAAAAAAAAAAAAAAAAAAAAAAAAAAAAAAAAAAAAAAAAAAAAAAAAAAAAAAAAAAAAAAAAAAAAAAAAAAAAAAAAAAAAAAAAAAAAAAAAAAAAAAAAAAAAAAAAAAAAAAAAAAAAAAAAAAAAAAAAAAAAAAAAAAAAAAAAAAAAAAAAAAAAAAAAAAAAAAAAAAAAAAAAAAAAAAAAAAAAAAAAAAAAAAAAAAAAAAAAAAAAAAAAAAAAAAAAAAAAAAAAAAAAAAAAAAAAAAAAAAAAAAAAAAAAAAAAAAAAAAAAAAAAAAAAAAAAAAAAAAAAAAAAAAAAAAAAAAAAAAAAAAAAAAAAAAAAAAAAAAAAAAAAAAAAAAAAAAAAAAAAAAAAAAAAAAAAAAAAAAAAAAAAAAAAAAAAAAAAAAAAAAAAAAAAAAAAAAAAAAAAAAAAAAAAAAAAAAAAAAAAAAAAAAAAAAAAAAAAAAAAAAAAAAAAAAAAAAAAAAAAAAAAAAAAAAAAAAAAAAAAAAAAAAAAAAAAAAAAAAAAAAAAAAAAAAAAAAAAAAAAAAAAAAAAAAAAAAAAAAAAAAAAAAAAAAAAAAAAAAAAAAAAAAAAAAAAAAAAAAAAAAAAAAAAAAAAAAAAAAAAAAAAAAAAAAAAAAAAAAAAAAAAAAAAAAAAAAAAAAAAAAAAAAAAAAAAAAAAAAAAAAAAAAAAAAAAAAAAAAAAAAAAAAAAAAAAAAAAAAAAAAAAAAAAAAAAAAAAAAAAAAAAAAAAAAAAAAAAAAAAAAAAAAAAAAAAAAAAAAAAAAAAAAAAAAAAAAAAAAAAAAAAAAAAAAAAAAAAAAAAAAAAAAAAAAAAAAAAAAAAAAAAAAAAAAAAAAAAAAAAAAAAAAAAAAAAAAAAAAAAAAAAAAAAAAAAAAAAAAAAAAAAAAAAAAAAAAAAAAAAAAAAAAAAAAAAAAAAAAAAAAAAAAAAAAAAAAAAAAAAAAAAAAAAAAAAAAAAAAAAAAAAAAAAAAAAAAAAAAAAAAAAAAAAAAAAAAAAAAAAAAAAAAAAAAAAAAAAAAAAAAAAAAAAAAAAAAAAAAAAAAAAAAAAAAAAAAAAAAAAAAAAAAAAAAAAAAAAAAAAAAAAAAAAAAAAAAAAAAAAAAAAAAAAAAAAAAAAAAAAAAAAAAAAAAAAAAAAAAAAAAAAAAAAAAAAAAAAAAAAAAAAAAAAAAAAAAAAAAAAAAAAAAAAAAAAAAAAAAAAAAAAAAAAAAAAAAAAAAAAAAAAAAAAAAAAAAAAAAAAAAAAAAAAAAAAAAAAAAAAAAAAAAAAAAAAAAAAAAAAAAAAAAAAAAAAAAAAAAAAAAAAAAAAAAAAAAAAAAAAAAAAAAAAAAAAAAAAAAAAAAAAAAAAAAAAAAAAAAAAAAAAAAAAAAAAAAAAAAAAAAAAAAAAAAAAAAAAAAAAAAAAAAAAAAAAAAAAAAAAAAAAAAAAAAAAAAAAAAAAAAAAAAAAAAAAAAAAAAAAAAAAAAAAAAAAAAAAAAAAAAAAAAAAAAAAAAAAAAAAAAAAAAAAAAAAAAAAAAAAAAAAAAAAAAAAAAAAAAAAAAAAAAAAAAAAAAAAAAAAAAAAAAAAAAAAAAAAAAAAAAAAAAAAAAAAAAAAAAAAAAAAAAAAAAAAAAAAAAAAAAAAAAAAAAAAAAAAAAAAAAAAAAAAAAAAAAAAAAAAAAAAAAAAAAAAAAAAAAAAAAAAAAAAAAAAAAAAAAAAAAAAAAAAAAAAAAAAAAAAAAAAAAAAAAAAAAAAAAAAAAAAAAAAAAAAAAAAAAAAAAAAAAAAAAAAAAAAAAAAAAAAAAAAAAAAAAAAAAAAAAAAAAAAAAAAAAAAAAAAAAAAAAAAAAAAAAAAAAAAAAAAAAAAAAAAAAAAAAAAAAAAAAAAAAAAAAAAAAAAAAAAAAAAAAAAAAAAAAAAAAAAAAAAAAAAAAAAAAAAAAAAAAAAAAAAAAAAAAAAAAAAAAAAAAAAAAAAAAAAAAAAAAAAAAAAAAAAAAAAAAAAAAAAAAAAAAAAAAAAAAAAAAAAAAAAAAAAAAAAAAAAAAAAAAAAAAAAAAAAAAAAAAAAAAAAAAAAAAAAAAAAAAAAAAAAAAAAAAAAAAAAAAAAAAAAAAAAAAAAAAAAAAAAAAAAAAAAAAAAAAAAAAAAAAAAAAAAAAAAAAAAAAAAAAAAAAAAAAAAAAAAAAAAAAAAAAAAAAAAAAAAAAAAAAAAAAAAAAAAAAAAAAAAAAAAAAAAAAAAAAAAAAAAAAAAAAAAAAAAAAAAAAAAAAAAAAAAAAAAAAAAAAAAAAAAAAAAAAAAAAAAAAAAAAAAAAAAAAAAAAAAAAAAAAAAAAAAAAAAAAAAAAAAAAAAAAAAAAAAAAAAAAAAAAAAAAAAAAAAAAAAAAAAAAAAAAAAAAAAAAAAAAAAAAAAAAAAAAAAAAAAAAAAAAAAAAAAAAAAAAAAAAAAAAAAAAAAAAAAAAAAAAAAAAAAAAAAAAAAAAAAAAAAAAAAAAAAAAAAAAAAAAAAAAAAAAAAAAAAAAAAAAAAAAAAAAAAAAAAAAAAAAAAAAAAAAAAAAAAAAAAAAAAAAAAAAAAAAAAAAAAAAAAAAAAAAAAAAAAAAAAAAAAAAAAAAAAAAAAAAAAAAAAAAAAAAAAAAAAAAAAAAAAAAAAAAAAAAAAAAAAAAAAAAAAAAAAAAAAAAAAAAAAAAAAAAAAAAAAAAAAAAAAAAAAAAAAAAAAAAAAAAAAAAAAAAAAAAAAAAAAAAAAAAAAAAAAAAAAAAAAAAAAAAAAAAAAAAAAAAAAAAAAAAAAAAAAAAAAAAAAAAAAAAAAAAAAAAAAAAAAAAAAAAAAAAAAAAAAAAAAAAAAAAAAAAAAAAAAAAAAAAAAAAAAAAAAAAAAAAAAAAAAAAAAAAAAAAAAAAAAAAAAAAAAAAAAAAAAAAAAAAAAAAAAAAAAAAAAAAAAAAAAAAAAAAAAAAAAAAAAAAAAAAAAAAAAAAAAAAAAAAAAAAAAAAAAAAAAAAAAAAAAAAAAAAAAAAAAAAAAAAAAAAAAAAAAAAAAAAAAAAAAAAAAAAAAAAAAAAAAAAAAAAAAAAAAAAAAAAAAAAAAAAAAAAAAAAAAAAAAAAAAAAAAAAAAAAAAAAAAAAAAAAAAAAAAAAAAAAAAAAAAAAAAAAAAAAAAAAAAAAAAAAAAAAAAAAAAAAAAAAAAAAAAAAAAAAAAAAAAAAAAAAAAAAAAAAAAAAAAAAAAAAAAAAAAAAAAAAAAAAAAAAAAAAAAAAAAAAAAAAAAAAAAAAAAAAAAAAAAAAAAAAAAAAAAAAAAAAAAAAAAAAAAAAAAAAAAAAAAAAAAAAAAAAAAAAAAAAAAAAAAAAAAAAAAAAAAAAAAAAAAAAAAAAAAAAAAAAAAAAAAAAAAAAAAAAAAAAAAAAAAAAAAAAAAAAAAAAAAAAAAAAAAAAAAAAAAAAAAAAAAAAAAAAAAAAAAAAAAAAAAAAAAAAAAAAAAAAAAAAAAAAAAAAAAAAAAAAAAAAAAAAAAAAAAAAAAAAAAAAAAAAAAAAAAAAAAAAAAAAAAAAAAAAAAAAAAAAAAAAAAAAAAAAAAAAAAAAAAAAAAAAAAAAAAAAAAAAAAAAAAAAAAAAAAAAAAAAAAAAAAAAAAAAAAAAAAAAAAAAAAAAAAAAAAAAAAAAAAAAAAAAAAAAAAAAAAAAAAAAAAAAAAAAAAAAAAAAAAAAAAAAAAAAAAAAAAAAAAAAAAAAAAAAAAAAAAAAAAAAAAAAAAAAAAAAAAAAAAAAAAAAAAAAAAAAAAAAAAAAAAAAAAAAAAAAAAAAAAAAAAAAAAAAAAAAAAAAAAAAAAAAAAAAAAAAAAAAAAAAAAAAAAAAAAAAAAAAAAAAAAAAAAAAAAAAAAAAAAAAAAAAAAAAAAAAAAAAAAAAAAAAAAAAAAAAAAAAAAAAAAAAAAAAAAAAAAAAAAAAAAAAAAAAAAAAAAAAAAAAAAAAAAAAAAAAAAAAAAAAAAAAAAAAAAAAAAAAAAAAAAAAAAAAAAAAAAAAAAAAAAAAAAAAAAAAAAAAAAAAAAAAAAAAAAAAAAAAAAAAAAAAAAAAAAAAAAAAAAAAAAAAAAAAAAAAAAAAAAAAAAAAAAAAAAAAAAAAAAAAAAAAAAAAAAAAAAAAAAAAAAAAAAAAAAAAAAAAAAAAAAAAAAAAAAAAAAAAAAAAAAAAAAAAAAAAAAAAAAAAAAAAAAAAAAAAAAAAAAAAAAAAAAAAAAAAAAAAAAAAAAAAAAAAAAAAAAAAAAAAAAAAAAAAAAAAAAAAAAAAAAAAAAAAAAAAAAAAAAAAAAAAAAAAAAAAAAAAAAAAAAAAAAAAAAAAAAAAAAAAAAAAAAAAAAAAAAAAAAAAAAAAAAAAAAAAAAAAAAAAAAAAAAAAAAAAAAAAAAAAAAAAAAAAAAAAAAAAAAAAAAAAAAAAAAAAAAAAAAAAAAAAAAAAAAAAAAAAAAAAAAAAAAAAAAAAAAAAAAAAAAAAAAAAAAAAAAAAAAAAAAAAAAAAAAAAAAAAAAAAAAAAAAAAAAAAAAAAAAAAAAAAAAAAAAAAAAAAAAAAAAAAAAAAAAAAAAAAAAAAAAAAAAAAAAAAAAAAAAAAAAAAAAAAAAAAAAAAAAAAAAAAAAAAAAAAAAAAAAAAAAAAAAAAAAAAAAAAAAAAAAAAAAAAAAAAAAAAAAAAAAAAAAAAAAAAAAAAAAAAAAAAAAAAAAAAAAAAAAAAAAAAAAAAAAAAAAAAAAAAAAAAAAAAAAAAAAAAAAAAAAAAAAAAAAAAAAAAAAAAAAAAAAAAAAAAAAAAAAAAAAAAAAAAAAAAAAAAAAAAAAAAAAAAAAAAAAAAAAAAAAAAAAAAAAAAAAAAAAAAAAAAAAAAAAAAAAAAAAAAAAAAAAAAAAAAAAAAAAAAAAAAAAAAAAAAAAAAAAAAAAAAAAAAAAAAAAAAAAAAAAAAAAAAAAAAAAAAAAAAAAAAAAAAAAAAAAAAAAAAAAAAAAAAAAAAAAAAAAAAAAAAAAAAAAAAAAAAAAAAAAAAAAAAAAAAAAAAAAAAAAAAAAAAAAAAAAAAAAAAAAAAAAAAAAAAAAAAAAAAAAAAAAAAAAAAAAAAAAAAAAAAAAAAAAAAAAAAAAAAAAAAAAAAAAAAAAAAAAAAAAAAAAAAAAAAAAAAAAAAAAAAAAAAAAAAAAAAAAAAAAAAAAAAAAAAAAAAAAAAAAAAAAAAAAAAAAAAAAAAAAAAAAAAAAAAAAAAAAAAAAAAAAAAAAAAAAAAAAAAAAAAAAAAAAAAAAAAAAAAAAAAAAAAAAAAAAAAAAAAAAAAAAAAAAAAAAAAAAAAAAAAAAAAAAAAAAAAAAAAAAAAAAAAAAAAAAAAAAAAAAAAAAAAAAAAAAAAAAAAAAAAAAAAAAAAAAAAAAAAAAAAAAAAAAAAAAAAAAAAAAPZYQO4DHNG3XjTBVBxriMRZQa/tQ/vft26AAs1BfFdxdakoJuJwvJcPPmd8/p5lx1SXS9JBiGkztJl6tceQEdpnchw=</c2pa:manifest></metadata>
<defs>
	<linearGradient id="Gradient1" gradientUnits="userSpaceOnUse" x1="1128.08" y1="1282.03" x2="924.743" y2="1176.03">
		<stop class="stop0" offset="0" stop-opacity="1" stop-color="rgb(15,12,17)"/>
		<stop class="stop1" offset="1" stop-opacity="1" stop-color="rgb(22,20,43)"/>
	</linearGradient>
</defs>
<path transform="translate(0,0)" fill="rgb(21,18,33)" d="M 0 0 L 2048 0 L 2048 2048 L 0 2048 L 0 0 z"/>
<path transform="translate(0,0)" fill="rgb(6,123,245)" d="M 1592.8 370.243 C 1605.25 373.835 1615.28 377.078 1626.94 382.923 C 1662.79 400.888 1685.25 437.629 1686.69 477.481 C 1687.4 497.164 1687.06 517.037 1687.04 536.765 L 1686.99 639.914 L 1687.02 962.906 L 1687.01 1393.4 L 1687.01 1501.56 C 1687.02 1535.25 1691.38 1581.69 1677.25 1612.02 C 1648.32 1579.61 1618.86 1542 1589.82 1510.7 C 1587.37 1509.96 1585.63 1507.63 1582.88 1507.64 C 1556.64 1507.67 1530.44 1508.42 1504.21 1507.28 C 1493.6 1506.82 1481.84 1507.85 1471.45 1506.35 C 1471.46 1506.35 1469.08 1505.83 1469.55 1505.09 C 1470.87 1503.03 1475.51 1491.32 1476.11 1489.68 C 1479.29 1480.98 1481.16 1473.71 1480.87 1464.57 C 1479.23 1458.47 1479.44 1347.14 1480.88 1340.43 C 1480.99 1336.58 1481.07 1332.73 1481.12 1328.88 C 1491.27 1323.88 1496 1318.81 1500.08 1308.13 C 1511.61 1277.97 1481.68 1273.69 1461.42 1264.62 L 1404.37 1238.5 C 1393.92 1233.71 1379.82 1227.74 1369.84 1222.49 C 1375.64 1213.76 1381.36 1205.13 1386.63 1196.1 C 1413.21 1150.53 1427.53 1095.84 1409.22 1044.57 C 1407.42 1039.54 1404.25 1034.39 1403.49 1029.07 C 1402.39 1016.05 1402.92 1002.45 1402.99 989.371 L 1402.98 930.602 L 1402.9 712.265 C 1402.93 680.126 1405.24 633.535 1399.8 603.407 C 1393.98 571.202 1358.02 537.207 1325.28 534.754 C 1304.2 532.199 1282.07 533.123 1260.88 533.105 L 1147.11 533.037 C 1136.36 533.005 1119.91 533.564 1109.75 532.658 C 1101.32 531.907 1083.29 522.135 1073.93 518.633 L 1267.76 518.863 L 1328.78 518.941 C 1356.65 519.009 1383.45 521.133 1407.71 504.531 C 1427.67 490.866 1447.09 476.576 1466.67 462.375 C 1508.94 431.975 1550.98 401.263 1592.8 370.243 z"/>
<path transform="translate(0,0)" fill="rgb(6,123,245)" d="M 1480.87 1464.57 C 1479.23 1458.47 1479.44 1347.14 1480.88 1340.43 C 1481.12 1353.87 1481.24 1367.3 1481.22 1380.73 C 1501.86 1406.24 1522.91 1431.41 1544.35 1456.24 C 1558.43 1472.75 1577.02 1493.59 1589.82 1510.7 C 1587.37 1509.96 1585.63 1507.63 1582.88 1507.64 C 1556.64 1507.67 1530.44 1508.42 1504.21 1507.28 C 1493.6 1506.82 1481.84 1507.85 1471.45 1506.35 C 1471.46 1506.35 1469.08 1505.83 1469.55 1505.09 C 1470.87 1503.03 1475.51 1491.32 1476.11 1489.68 C 1479.29 1480.98 1481.16 1473.71 1480.87 1464.57 z"/>
<path transform="translate(0,0)" fill="rgb(14,12,25)" d="M 1480.87 1464.57 C 1479.23 1458.47 1479.44 1347.14 1480.88 1340.43 C 1481.12 1353.87 1481.24 1367.3 1481.22 1380.73 C 1501.86 1406.24 1522.91 1431.41 1544.35 1456.24 C 1558.43 1472.75 1577.02 1493.59 1589.82 1510.7 C 1587.37 1509.96 1585.63 1507.63 1582.88 1507.64 C 1556.64 1507.67 1530.44 1508.42 1504.21 1507.28 C 1493.6 1506.82 1481.84 1507.85 1471.45 1506.35 C 1484.34 1505.44 1499.72 1505.88 1512.87 1505.89 L 1580.2 1505.96 C 1548.9 1470.3 1509.69 1425.05 1481.21 1388.19 C 1480.8 1413.57 1481.65 1439.15 1480.87 1464.57 z"/>
<path transform="translate(0,0)" fill="rgb(21,18,33)" d="M 1448.4 872.781 C 1456.18 872.947 1503.19 896.189 1513.29 900.708 L 1578.09 930.407 C 1593.18 937.365 1612.56 944.425 1625.35 955.162 C 1627.09 957.917 1627.99 965.219 1627.98 967.986 C 1627.94 1004.57 1627.77 1041.13 1628.11 1077.71 C 1628.18 1085.02 1626.27 1087.85 1620.85 1092.39 C 1619.57 1092.39 1618.86 1092.42 1617.53 1092.21 C 1611.79 1091.28 1466.94 1015.21 1453.34 1006.9 C 1448.35 1003.85 1444.83 1000.76 1441.15 996.161 C 1440.44 986.164 1440.78 974.74 1440.87 964.619 C 1441.13 937.487 1439.95 910.283 1440.82 883.182 C 1441 877.441 1444.21 876.048 1448.4 872.781 z"/>
<path transform="translate(0,0)" fill="rgb(252,242,231)" d="M 1584.64 1038.34 C 1574.14 1026.63 1566.96 994.272 1579.84 982.832 C 1582.21 980.755 1585.35 979.773 1588.49 980.124 C 1608.4 982.212 1620.07 1030.46 1602.44 1042.91 C 1596.78 1046.9 1589.97 1043.22 1585.54 1039.28 C 1584.93 1038.78 1585.09 1038.92 1584.64 1038.34 z"/>
<path transform="translate(0,0)" fill="rgb(5,5,8)" d="M 1584.92 982.985 C 1608.08 984.702 1616.62 1027.67 1599.31 1041.23 C 1577.79 1040.9 1575.24 1015.04 1576.09 997.996 C 1576.44 991.019 1579.82 987.27 1584.92 982.985 z"/>
<path transform="translate(0,0)" fill="rgb(254,125,30)" d="M 1585.88 986.66 C 1605.73 990.268 1613.84 1025.92 1598.31 1038.4 C 1594.16 1038 1591.72 1038.17 1588.5 1035.01 C 1578.4 1025.05 1573.24 998.275 1584.64 987.824 L 1585.88 986.66 z"/>
<path transform="translate(0,0)" fill="rgb(252,242,231)" d="M 1501.23 935.851 C 1519.75 935.874 1524.72 955.596 1526.97 971 C 1528.78 983.371 1528.1 992.499 1517.05 999.916 C 1508.39 1000.41 1506.45 1000.34 1500.08 993.138 C 1489.12 980.755 1483.65 946.944 1499.71 936.837 L 1501.23 935.851 z"/>
<path transform="translate(0,0)" fill="rgb(5,5,8)" d="M 1502.93 938.77 C 1515.32 940.527 1519.76 949.3 1522.74 960.641 C 1526.43 974.67 1528.82 989.369 1514.81 997.664 C 1490.26 993.005 1483.72 950.076 1502.93 938.77 z"/>
<path transform="translate(0,0)" fill="rgb(254,168,28)" d="M 1501.76 941.821 C 1519.95 943.083 1521.91 962.837 1522.91 978.005 C 1523.34 984.579 1519.6 989.95 1514.97 994.338 C 1493.71 991.161 1486.99 954.886 1501.76 941.821 z"/>
<path transform="translate(0,0)" fill="rgb(252,242,231)" d="M 1541.72 957.869 C 1564.99 960.331 1571.19 988.572 1567.91 1008 C 1566.59 1015.79 1564.02 1018.83 1557.86 1023.41 C 1533.96 1022.99 1520.96 975.229 1541.72 957.869 z"/>
<path transform="translate(0,0)" fill="rgb(5,5,8)" d="M 1542.25 961.927 C 1566.7 961.941 1573.52 1004.05 1557.84 1019.87 L 1555.81 1019.95 C 1537.92 1020.5 1524.34 977.882 1542.25 961.927 z"/>
<path transform="translate(0,0)" fill="rgb(254,168,28)" d="M 1543.15 964.871 C 1565.14 965.984 1568.74 1002.23 1556.45 1017 C 1538.13 1018.39 1531.22 979.488 1542.07 966.231 L 1543.15 964.871 z"/>
<path transform="translate(0,0)" fill="rgb(252,242,231)" d="M 1459.06 914.847 C 1463.35 914.731 1467.22 914.224 1470.75 916.815 C 1483.27 925.991 1487.54 943.788 1485.82 958.497 C 1484.91 966.253 1483.26 972.541 1477.02 976.899 L 1475.69 977.854 C 1448.19 980.17 1441.72 930.339 1457.81 915.99 L 1459.06 914.847 z"/>
<path transform="translate(0,0)" fill="rgb(5,5,8)" d="M 1460.76 917.915 C 1480.88 918.636 1484.5 941.434 1483.88 958.004 C 1483.6 965.495 1480.17 970.007 1474.53 974.55 C 1450.37 977.512 1444.24 930.112 1460.76 917.915 z"/>
<path transform="translate(0,0)" fill="rgb(254,168,28)" d="M 1463.05 920.767 C 1480.5 924.826 1483.26 946.416 1480.92 961.51 C 1480.15 966.524 1476.81 969.111 1472.83 971.707 C 1452.04 971.567 1447.73 931.254 1461.97 921.526 L 1463.05 920.767 z"/>
<path transform="translate(0,0)" fill="rgb(6,123,245)" d="M 454.528 371.106 C 466.653 370.445 625.451 499.972 659.987 513.101 C 685.162 522.671 749.831 518.905 778.676 518.817 C 817.514 518.464 856.355 518.569 895.191 519.132 C 888.679 522.113 871.559 531.026 865.578 532.171 C 853.264 534.599 839.811 532.407 827.51 533.252 C 772.012 537.066 716.887 518.027 674.856 563.538 C 663.126 576.358 655.3 592.261 652.3 609.377 C 650.146 621.2 650.693 642.448 650.711 655.045 L 650.762 720.333 L 650.757 852.118 C 650.762 877.531 650.273 904.924 651.126 930.096 C 621.414 973.679 603.828 1024.38 600.172 1077 C 595.693 1144.79 612.14 1184.18 655.499 1233.65 C 657.641 1245.83 659.604 1253.12 663.462 1264.85 C 639.889 1289.69 617.642 1320.67 592.916 1345.55 C 591.797 1300.75 592.957 1251.38 592.889 1206.25 L 592.829 906.368 L 592.983 800.118 C 593.028 764.82 598.611 709.663 565.268 686.802 C 549.812 681.117 514.709 677.062 497.237 672.578 C 488.324 670.482 480.853 671.859 473.56 677.466 C 444.75 699.617 447.407 736.85 447.474 768.525 L 447.637 834.612 L 447.374 1045.91 L 447.564 1335.9 L 447.715 1427.49 C 447.772 1454.15 443.218 1484.75 459.984 1506.54 C 441.962 1527.69 424.115 1548.99 406.445 1570.43 C 395.161 1584.19 382.791 1600.15 370.95 1613.22 C 356.717 1579.88 360.25 1545.11 360.258 1509.52 L 360.306 1402.3 L 360.557 991.764 L 360.807 642.424 L 360.735 534.1 C 360.714 514.476 359.72 493.588 361.115 474.12 C 365.141 417.921 402.948 383.847 454.528 371.106 z"/>
<path transform="translate(0,0)" fill="rgb(45,48,190)" d="M 792.513 858.511 C 906.165 940.935 1068.34 991.314 1187.2 887.881 C 1234.8 934.797 1263.17 979.662 1281.92 1043.72 C 1261.45 1075.3 1246.65 1103.76 1233.93 1139.05 C 1232.93 1141.81 1232.31 1141.41 1229.81 1142.26 C 1231.99 1143.84 1232.73 1145.02 1230.8 1147.34 C 1232.41 1151.38 1225.65 1176.41 1225.96 1183.03 C 1226.13 1186.79 1222.92 1186.69 1220.36 1187.19 C 1221.23 1187.86 1222.02 1188.46 1222.87 1189.17 C 1221.68 1191.88 1221.41 1192.59 1219.74 1195.14 L 1220.19 1196.54 L 1221.6 1196.83 L 1224.93 1200.84 C 1224 1205.66 1224.86 1205.63 1219.78 1207.75 C 1225.64 1207.2 1226.81 1205.49 1226.44 1211.01 C 1226.23 1214.16 1231.69 1226.14 1233.07 1230.62 C 1224 1237.21 1217.71 1238.92 1211.29 1248.03 L 1212.16 1248.6 C 1223.42 1242.53 1242.41 1249.51 1253.66 1254.04 C 1256.79 1253.69 1255.28 1253.44 1258.24 1255.25 C 1251.57 1262.2 1242.29 1270.54 1242.14 1280.5 C 1242.07 1284.84 1242.32 1288.38 1241.34 1292.61 C 1238.83 1299.51 1241.28 1304.69 1239.92 1311.33 L 1240.31 1314.51 C 1238.28 1316.31 1236.05 1316.82 1233.47 1317.73 C 1238.12 1317.5 1254.39 1315.63 1258.48 1314.48 C 1252.05 1313.91 1246.69 1316 1241.52 1314.55 L 1242.71 1314.32 C 1242.9 1308.94 1242.91 1303.51 1243 1298.12 C 1249.24 1301.69 1258.31 1306.96 1264.3 1311.03 L 1264.82 1310.59 L 1265.72 1310.93 C 1265.05 1311.97 1264.4 1313.02 1263.77 1314.08 C 1273.15 1312.54 1313.46 1305.51 1319.52 1307.75 C 1325.17 1308.1 1335.06 1305.57 1339.99 1305.48 C 1361.42 1305.06 1483.33 1278.59 1493.11 1284.28 C 1495.69 1287.44 1496.2 1290.78 1496.05 1294.81 C 1495.74 1303.03 1494.3 1313.36 1487.8 1319.03 C 1484.04 1322.31 1478.39 1324.71 1473.61 1325.44 C 1447.58 1329.42 1421.28 1332.9 1395.27 1336.9 L 1234.25 1362.16 L 1155.25 1374.16 C 1098.82 1382.72 1100.45 1386.74 1051.62 1357.51 L 1004.65 1329.78 C 971.885 1310.25 938.971 1290.92 906.013 1271.71 C 891.783 1263.42 892.873 1254.2 894.6 1239.37 C 892.814 1237.94 893.583 1238.17 892.981 1234.72 C 889.112 1240.57 887.391 1251.18 889.098 1258.03 C 892.095 1270.08 899.69 1274.33 909.686 1280.09 C 910.21 1312.72 909.325 1345.81 909.68 1378.45 C 909.945 1402.92 907.765 1426.73 913.282 1450.46 C 870.045 1448.96 817.038 1431.88 780.21 1409.79 C 733.417 1381.73 696.193 1340.01 676.071 1288.94 C 670.17 1273.97 665.842 1255.24 661.843 1239.54 C 738.258 1291.47 837.522 1265.62 901.321 1205.73 C 902.936 1200.26 910.35 1197.69 909.872 1193.63 L 909.742 1192.21 C 911.168 1190.39 913.011 1188.71 914.67 1187.06 C 917.297 1187.11 917.31 1187.08 919.75 1188.23 C 932.611 1177.98 945.22 1182 959.429 1185.52 C 987.513 1192.47 1015.63 1200.39 1043.69 1207.28 C 1046.07 1190.95 1056.63 1152.98 1061.07 1136.04 L 1092.82 1014.89 C 1084.35 1013.21 1075.7 1011.31 1067.32 1009.2 C 1028.65 999.45 988.733 992.069 950.394 981.301 C 946.028 994.334 939.656 1017.66 937.217 1030.78 C 900.204 1032.2 870.934 1051.45 835.706 1059.95 C 812.543 1065.53 788.209 1074.32 765.791 1082.37 C 815.692 1016.13 845.755 932.027 792.513 858.511 z"/>
<path transform="translate(0,0)" fill="rgb(5,5,8)" d="M 1157.49 1137.73 C 1172.52 1133.2 1188.98 1128.56 1203.61 1123.24 C 1204.98 1128.01 1206.13 1131.6 1206.82 1136.56 C 1206.24 1145.11 1205.72 1141.32 1209.21 1148.79 C 1211.13 1152.9 1208.41 1152.4 1212.81 1159.37 C 1211.92 1154.32 1210.06 1152.63 1214.99 1151.3 C 1220.23 1149.85 1225.5 1148.53 1230.8 1147.34 C 1232.41 1151.38 1225.65 1176.41 1225.96 1183.03 C 1226.13 1186.79 1222.92 1186.69 1220.36 1187.19 C 1221.23 1187.86 1222.02 1188.46 1222.87 1189.17 C 1221.68 1191.88 1221.41 1192.59 1219.74 1195.14 L 1220.19 1196.54 L 1221.6 1196.83 L 1224.93 1200.84 C 1224 1205.66 1224.86 1205.63 1219.78 1207.75 C 1225.64 1207.2 1226.81 1205.49 1226.44 1211.01 C 1226.23 1214.16 1231.69 1226.14 1233.07 1230.62 C 1224 1237.21 1217.71 1238.92 1211.29 1248.03 L 1212.16 1248.6 C 1223.42 1242.53 1242.41 1249.51 1253.66 1254.04 C 1256.79 1253.69 1255.28 1253.44 1258.24 1255.25 C 1251.57 1262.2 1242.29 1270.54 1242.14 1280.5 C 1242.07 1284.84 1242.32 1288.38 1241.34 1292.61 C 1238.83 1299.51 1241.28 1304.69 1239.92 1311.33 L 1240.31 1314.51 C 1238.28 1316.31 1236.05 1316.82 1233.47 1317.73 C 1238.12 1317.5 1254.39 1315.63 1258.48 1314.48 C 1252.05 1313.91 1246.69 1316 1241.52 1314.55 L 1242.71 1314.32 C 1242.9 1308.94 1242.91 1303.51 1243 1298.12 C 1249.24 1301.69 1258.31 1306.96 1264.3 1311.03 L 1264.82 1310.59 L 1265.72 1310.93 C 1265.05 1311.97 1264.4 1313.02 1263.77 1314.08 C 1273.15 1312.54 1313.46 1305.51 1319.52 1307.75 C 1325.17 1308.1 1335.06 1305.57 1339.99 1305.48 C 1361.42 1305.06 1483.33 1278.59 1493.11 1284.28 C 1495.69 1287.44 1496.2 1290.78 1496.05 1294.81 C 1495.74 1303.03 1494.3 1313.36 1487.8 1319.03 C 1484.04 1322.31 1478.39 1324.71 1473.61 1325.44 C 1447.58 1329.42 1421.28 1332.9 1395.27 1336.9 L 1234.25 1362.16 L 1155.25 1374.16 C 1098.82 1382.72 1100.45 1386.74 1051.62 1357.51 L 1004.65 1329.78 C 971.885 1310.25 938.971 1290.92 906.013 1271.71 C 891.783 1263.42 892.873 1254.2 894.6 1239.37 C 892.814 1237.94 893.583 1238.17 892.981 1234.72 C 894.857 1232.34 897.399 1230.27 900.36 1229.63 C 915.681 1226.31 933.249 1224.64 948.806 1222.67 C 979.665 1218.92 1010.49 1214.89 1041.28 1210.59 C 1058.36 1208.11 1076.44 1205.79 1093.05 1201.44 L 1102.21 1197.27 C 1106.01 1190.06 1110.48 1176.19 1114.65 1167.32 C 1129.77 1173.36 1145.6 1181.69 1160.93 1187.4 C 1163.67 1188.42 1164.91 1187.7 1166.86 1186.53 C 1169.38 1179.68 1159.7 1146.71 1157.49 1137.73 z"/>
<path transform="translate(0,0)" fill="rgb(6,123,245)" d="M 894.6 1239.37 C 897.474 1236.29 900.346 1232.93 904.97 1233.01 C 918.231 1233.24 1004.52 1288.74 1022.97 1298.56 C 1035.01 1304.55 1046.56 1311.6 1058.06 1318.57 C 1077 1330.06 1097.67 1344.25 1121.05 1336.7 C 1121.92 1332 1123.61 1336.21 1125.49 1334.72 C 1124.95 1334.12 1123.24 1334.6 1122.3 1333.79 C 1122.14 1332.47 1123.14 1332.12 1124.25 1331.5 C 1127.31 1331.51 1129.99 1331 1133.43 1330.98 L 1134.88 1330.42 C 1149.36 1328.32 1163.25 1326.35 1177.68 1323.8 L 1178.6 1323.64 C 1178.48 1326.82 1176.97 1325.73 1178.75 1328.46 C 1185.57 1327.76 1190.59 1326.99 1197.34 1325.74 C 1190.76 1322.53 1190.02 1325.94 1183.46 1323.63 L 1184.59 1323.31 C 1186.15 1322.85 1187.37 1322.46 1189 1322.21 L 1201.51 1320.22 L 1227.01 1316.19 C 1233 1315.27 1237.8 1316.65 1239.2 1311.35 L 1239.92 1311.33 L 1240.31 1314.51 C 1238.28 1316.31 1236.05 1316.82 1233.47 1317.73 C 1238.12 1317.5 1254.39 1315.63 1258.48 1314.48 C 1252.05 1313.91 1246.69 1316 1241.52 1314.55 L 1242.71 1314.32 C 1242.9 1308.94 1242.91 1303.51 1243 1298.12 C 1249.24 1301.69 1258.31 1306.96 1264.3 1311.03 L 1264.82 1310.59 L 1265.72 1310.93 C 1265.05 1311.97 1264.4 1313.02 1263.77 1314.08 C 1273.15 1312.54 1313.46 1305.51 1319.52 1307.75 C 1325.17 1308.1 1335.06 1305.57 1339.99 1305.48 C 1361.42 1305.06 1483.33 1278.59 1493.11 1284.28 C 1495.69 1287.44 1496.2 1290.78 1496.05 1294.81 C 1495.74 1303.03 1494.3 1313.36 1487.8 1319.03 C 1484.04 1322.31 1478.39 1324.71 1473.61 1325.44 C 1447.58 1329.42 1421.28 1332.9 1395.27 1336.9 L 1234.25 1362.16 L 1155.25 1374.16 C 1098.82 1382.72 1100.45 1386.74 1051.62 1357.51 L 1004.65 1329.78 C 971.885 1310.25 938.971 1290.92 906.013 1271.71 C 891.783 1263.42 892.873 1254.2 894.6 1239.37 z"/>
<path transform="translate(0,0)" fill="rgb(14,12,25)" d="M 1243 1298.12 C 1249.24 1301.69 1258.31 1306.96 1264.3 1311.03 L 1264.82 1310.59 L 1265.72 1310.93 C 1265.05 1311.97 1264.4 1313.02 1263.77 1314.08 C 1273.15 1312.54 1313.46 1305.51 1319.52 1307.75 C 1284.25 1313.73 1248.31 1317.34 1213.01 1323.34 C 1208.12 1324.17 1202.24 1325.3 1197.34 1325.74 C 1190.76 1322.53 1190.02 1325.94 1183.46 1323.63 L 1184.59 1323.31 C 1186.15 1322.85 1187.37 1322.46 1189 1322.21 L 1201.51 1320.22 L 1227.01 1316.19 C 1233 1315.27 1237.8 1316.65 1239.2 1311.35 L 1239.92 1311.33 L 1240.31 1314.51 C 1238.28 1316.31 1236.05 1316.82 1233.47 1317.73 C 1238.12 1317.5 1254.39 1315.63 1258.48 1314.48 C 1252.05 1313.91 1246.69 1316 1241.52 1314.55 L 1242.71 1314.32 C 1242.9 1308.94 1242.91 1303.51 1243 1298.12 z"/>
<path transform="translate(0,0)" fill="rgb(254,125,30)" d="M 1243 1298.12 C 1249.24 1301.69 1258.31 1306.96 1264.3 1311.03 C 1257.16 1312.22 1249.65 1312.46 1242.71 1314.32 C 1242.9 1308.94 1242.91 1303.51 1243 1298.12 z"/>
<path transform="translate(0,0)" fill="rgb(14,12,25)" d="M 1134.88 1330.42 C 1149.36 1328.32 1163.25 1326.35 1177.68 1323.8 L 1178.6 1323.64 C 1178.48 1326.82 1176.97 1325.73 1178.75 1328.46 C 1173.52 1330.58 1152.45 1332.59 1145.92 1333.62 C 1139.78 1330.73 1140.49 1331.47 1133.43 1330.98 L 1134.88 1330.42 z"/>
<path transform="translate(0,0)" fill="rgb(21,18,33)" d="M 1121.05 1336.7 C 1121.92 1332 1123.61 1336.21 1125.49 1334.72 C 1124.95 1334.12 1123.24 1334.6 1122.3 1333.79 C 1122.14 1332.47 1123.14 1332.12 1124.25 1331.5 C 1127.31 1331.51 1129.99 1331 1133.43 1330.98 C 1140.49 1331.47 1139.78 1330.73 1145.92 1333.62 C 1139.7 1334.39 1126.71 1336.87 1121.05 1336.7 z"/>
<path transform="translate(0,0)" fill="url(#Gradient1)" d="M 1102.65 1199.72 C 1103.72 1197.49 1104.51 1196.09 1105.78 1193.96 L 1107.06 1194.23 C 1109.59 1196.64 1108.15 1196.86 1111.22 1198.78 L 1112.45 1196.87 C 1114.28 1202.23 1122.95 1223.57 1128.3 1225.08 L 1130.91 1226.76 C 1132.77 1230.32 1134.41 1231.39 1136.33 1234.37 C 1139.58 1237.94 1143.32 1240.96 1146.21 1244.13 C 1145.82 1244.95 1144.96 1245.94 1144.47 1246.58 C 1142.1 1248.07 1142.16 1248.23 1140.38 1250.45 C 1136.42 1258.74 1138.57 1253.47 1139.49 1263.98 L 1136.27 1266.6 C 1135.66 1262.85 1134.35 1259.23 1133.37 1255.57 C 1126.78 1257.7 1120.01 1259.8 1113.52 1262.23 C 1105.51 1265.23 1103.69 1262.89 1105.72 1271.12 L 1104.2 1274.39 L 1102.46 1274.63 C 1089.57 1275.83 1079.18 1275.65 1066.5 1275.9 L 1068.81 1280.04 C 1064.09 1280.08 1062.05 1279.53 1057.93 1279.32 C 1050.34 1285.08 1041.6 1291.93 1034.07 1297.88 C 1032.75 1297.15 1031.92 1296.06 1030.79 1294.91 C 1029.39 1295.5 1028.75 1295.53 1027.24 1295.8 L 1022.97 1298.56 C 1004.52 1288.74 918.231 1233.24 904.97 1233.01 C 900.346 1232.93 897.474 1236.29 894.6 1239.37 C 892.814 1237.94 893.583 1238.17 892.981 1234.72 C 894.857 1232.34 897.399 1230.27 900.36 1229.63 C 915.681 1226.31 933.249 1224.64 948.806 1222.67 C 979.665 1218.92 1010.49 1214.89 1041.28 1210.59 C 1058.36 1208.11 1076.44 1205.79 1093.05 1201.44 L 1094.16 1202.66 L 1102.65 1199.72 z"/>
<path transform="translate(0,0)" fill="rgb(254,125,30)" d="M 1068.11 1217.41 C 1081.38 1211.81 1095.17 1205.24 1108.74 1200.87 C 1116.53 1217.81 1126.25 1232.4 1133.38 1249.79 C 1129.06 1251.58 1096.65 1262.5 1096.32 1264.24 C 1096.47 1264.52 1097.14 1265.11 1097.35 1265.23 C 1100.76 1267.13 1100.95 1270.64 1102.46 1274.63 C 1089.57 1275.83 1079.18 1275.65 1066.5 1275.9 C 1065.91 1275.72 1064.5 1275.24 1064.53 1274.94 C 1065.79 1261.31 1068.12 1229.28 1068.11 1217.41 z"/>
<path transform="translate(0,0)" fill="rgb(254,125,30)" d="M 1020.69 1231.33 C 1032.53 1245.35 1043.96 1260.89 1055.27 1275.52 C 1050.02 1279.27 1035.35 1290.48 1030.79 1294.91 C 1029.39 1295.5 1028.75 1295.53 1027.24 1295.8 C 1015.71 1285.88 1011.68 1279.22 1002.81 1267.08 C 999.155 1262.17 995.6 1257.2 992.142 1252.15 C 1001.48 1245.41 1011.97 1238.55 1020.69 1231.33 z"/>
<path transform="translate(0,0)" fill="rgb(14,12,25)" d="M 1136.33 1234.37 C 1139.58 1237.94 1143.32 1240.96 1146.21 1244.13 C 1145.82 1244.95 1144.96 1245.94 1144.47 1246.58 C 1142.1 1248.07 1142.16 1248.23 1140.38 1250.45 C 1139.86 1248.67 1139.31 1247.03 1138.34 1245.44 L 1137.45 1243.89 C 1137.52 1240.57 1137.13 1240.47 1134.6 1238.32 C 1135.2 1236.99 1135.79 1235.72 1136.33 1234.37 z"/>
<path transform="translate(0,0)" fill="rgb(183,123,88)" d="M 1134.6 1238.32 C 1137.13 1240.47 1137.52 1240.57 1137.45 1243.89 C 1135.06 1243.26 1134.44 1240.53 1134.6 1238.32 z"/>
<path transform="translate(0,0)" fill="rgb(254,125,30)" d="M 1062.93 1224.11 C 1064.89 1226.35 1061.09 1266.07 1059.5 1267.51 C 1058.2 1267.01 1056.53 1260.34 1056.18 1259.26 C 1053.71 1252.26 1049.32 1243.01 1046.21 1235.97 C 1051.51 1231.64 1057.09 1227.68 1062.93 1224.11 z"/>
<path transform="translate(0,0)" fill="rgb(254,125,30)" d="M 1068.81 1280.04 C 1080.9 1279.92 1092.23 1279.23 1104.19 1279 C 1106.4 1285.92 1108.45 1291.95 1110.55 1299.01 C 1102.92 1308.94 1096.53 1319.76 1091.53 1331.23 C 1078 1324.56 1045.62 1306.58 1034.07 1297.88 C 1041.6 1291.93 1050.34 1285.08 1057.93 1279.32 C 1062.05 1279.53 1064.09 1280.08 1068.81 1280.04 z"/>
<path transform="translate(0,0)" fill="rgb(254,125,30)" d="M 1190.37 1173.26 C 1202.59 1186.21 1209.66 1191.56 1221.98 1203.13 C 1214.3 1204.49 1188.12 1207.64 1182.59 1212.15 C 1172.65 1220.27 1163.41 1238.26 1153.48 1246.89 C 1152.87 1247.43 1147.55 1244.76 1146.21 1244.13 C 1143.32 1240.96 1139.58 1237.94 1136.33 1234.37 C 1134.41 1231.39 1132.77 1230.32 1130.91 1226.76 C 1150.22 1208.56 1170.63 1191.69 1190.37 1173.26 z"/>
<path transform="translate(0,0)" fill="rgb(254,125,30)" d="M 1172.9 1277.67 C 1192.89 1276.97 1218.01 1276.76 1238.22 1276.64 C 1238.2 1286.98 1238.36 1300.95 1239.2 1311.35 C 1237.8 1316.65 1233 1315.27 1227.01 1316.19 L 1201.51 1320.22 L 1189 1322.21 C 1187.37 1322.46 1186.15 1322.85 1184.59 1323.31 L 1183.46 1323.63 C 1180.08 1314.33 1186.46 1306.73 1190.21 1297.43 C 1184.54 1290.37 1179.31 1284.16 1172.9 1277.67 z"/>
<path transform="translate(0,0)" fill="rgb(254,125,30)" d="M 1116.58 1172.72 L 1118.25 1173.53 C 1134.16 1181.38 1146.17 1186.51 1162.74 1192.92 C 1154.76 1199.73 1134.04 1217.63 1128.3 1225.08 C 1122.95 1223.57 1114.28 1202.23 1112.45 1196.87 C 1111.61 1196.46 1109 1195.31 1108.49 1194.55 C 1108.73 1192.55 1115.54 1175.35 1116.58 1172.72 z"/>
<path transform="translate(0,0)" fill="rgb(254,125,30)" d="M 1105.72 1271.12 C 1103.69 1262.89 1105.51 1265.23 1113.52 1262.23 C 1120.01 1259.8 1126.78 1257.7 1133.37 1255.57 C 1134.35 1259.23 1135.66 1262.85 1136.27 1266.6 C 1138.72 1274.88 1141.27 1282.92 1143.91 1291.13 C 1142.78 1291.47 1141.65 1291.81 1140.52 1292.15 C 1131.94 1294.76 1123.59 1298.08 1115.57 1302.07 C 1113.21 1292.3 1110.06 1280.16 1105.72 1271.12 z"/>
<path transform="translate(0,0)" fill="rgb(254,125,30)" d="M 1219.78 1207.75 C 1225.64 1207.2 1226.81 1205.49 1226.44 1211.01 C 1226.23 1214.16 1231.69 1226.14 1233.07 1230.62 C 1224 1237.21 1217.71 1238.92 1211.29 1248.03 C 1203.61 1237.66 1193.33 1226.63 1184.95 1215.69 C 1192.23 1213.26 1216.84 1209.43 1219.78 1207.75 z"/>
<path transform="translate(0,0)" fill="rgb(254,125,30)" d="M 1212.16 1248.6 C 1223.42 1242.53 1242.41 1249.51 1253.66 1254.04 C 1248.14 1260.45 1242.66 1267.27 1236.92 1273.4 L 1235.88 1272.5 C 1228.04 1265.74 1219.49 1256.09 1212.16 1248.6 z"/>
<path transform="translate(0,0)" fill="rgb(254,125,30)" d="M 1230.8 1147.34 C 1232.41 1151.38 1225.65 1176.41 1225.96 1183.03 C 1226.13 1186.79 1222.92 1186.69 1220.36 1187.19 C 1219.28 1182.07 1215.06 1163.28 1212.81 1159.37 C 1211.92 1154.32 1210.06 1152.63 1214.99 1151.3 C 1220.23 1149.85 1225.5 1148.53 1230.8 1147.34 z"/>
<path transform="translate(0,0)" fill="rgb(254,125,30)" d="M 1132.5 1327.08 C 1142.74 1321.39 1154.47 1314.34 1164.89 1309.43 L 1165.98 1310.35 C 1171.9 1315.24 1173 1317.46 1178 1322.99 L 1178.6 1323.64 L 1177.68 1323.8 C 1163.25 1326.35 1149.36 1328.32 1134.88 1330.42 L 1132.5 1327.08 z"/>
<path transform="translate(0,0)" fill="rgb(254,125,30)" d="M 1140.38 1250.45 C 1142.16 1248.23 1142.1 1248.07 1144.47 1246.58 L 1145.31 1247.21 C 1146.64 1248.19 1149.97 1249.89 1150.73 1251.15 C 1150.64 1252.39 1142.49 1269.67 1141.95 1269.86 C 1141.19 1269.47 1139.86 1264.95 1139.49 1263.98 C 1138.57 1253.47 1136.42 1258.74 1140.38 1250.45 z"/>
<path transform="translate(0,0)" fill="rgb(228,127,31)" d="M 1132.5 1327.08 L 1134.88 1330.42 L 1133.43 1330.98 C 1129.99 1331 1127.31 1331.51 1124.25 1331.5 L 1132.5 1327.08 z"/>
<path transform="translate(0,0)" fill="rgb(254,125,30)" d="M 1199.9 1129.3 C 1201.05 1130.6 1216.02 1187.44 1217.64 1193.83 C 1208.39 1185.57 1199.56 1176.49 1190.61 1168.62 C 1184.46 1173.46 1178.88 1178.91 1173.08 1184.19 C 1172.26 1180.47 1171.55 1176.73 1170.76 1173.01 L 1168.78 1164.01 L 1167.39 1157.98 C 1166.03 1152.1 1164.63 1146.22 1163.1 1140.38 C 1175.04 1136.53 1187.85 1132.97 1199.9 1129.3 z"/>
<path transform="translate(0,0)" fill="rgb(254,125,30)" d="M 1181.55 1219.62 C 1184.91 1221.73 1204.42 1247.48 1209.51 1252.9 C 1215.36 1259.12 1223.06 1266.53 1229.14 1272.67 C 1224.47 1272.9 1219.8 1273.03 1215.13 1273.07 C 1200.87 1273.02 1186.62 1273.11 1172.36 1273.34 C 1171.27 1262.67 1169.13 1248.76 1166.71 1238.25 L 1176.18 1226.09 C 1178.15 1223.56 1179.41 1222.04 1181.55 1219.62 z"/>
<path transform="translate(0,0)" fill="rgb(254,125,30)" d="M 1145.47 1294.91 C 1151.39 1294.13 1155.29 1301.01 1159.32 1305.27 C 1148.12 1313.84 1135.12 1321.25 1122.56 1327.7 L 1120.85 1328.6 C 1115.46 1331.4 1113.46 1331.57 1107.97 1333.05 C 1111.86 1323.71 1116.29 1314.87 1118.22 1304.94 C 1127.18 1301.38 1136.41 1298.27 1145.47 1294.91 z"/>
<path transform="translate(0,0)" fill="rgb(254,125,30)" d="M 1161.68 1244.7 C 1165.08 1247.92 1166.51 1263.4 1167.18 1268.5 C 1168.59 1279.2 1165.51 1292.37 1163.37 1302.95 L 1163.15 1302.75 C 1161.11 1300.82 1160.01 1299.76 1158.25 1297.58 L 1157.95 1297.21 C 1153.7 1291.77 1153.73 1292.67 1148.29 1289.28 C 1146.95 1284.69 1145.37 1280.21 1144.08 1275.73 C 1149.39 1262.9 1152.41 1254.93 1161.68 1244.7 z"/>
<path transform="translate(0,0)" fill="rgb(254,125,30)" d="M 1172.42 1284.54 C 1176.43 1287.49 1182.04 1294.35 1185.23 1298.39 C 1182.99 1303.97 1180.75 1309.05 1178.9 1314.78 C 1176.5 1316.94 1171.39 1309.05 1167.94 1305.98 L 1168.57 1302.42 C 1169.6 1296.41 1170.88 1290.44 1172.42 1284.54 z"/>
<path transform="translate(0,0)" fill="rgb(254,125,30)" d="M 1111.6 1304.67 C 1115.63 1308.48 1111 1316.42 1108.92 1320.49 C 1103.68 1330.78 1107.93 1332.35 1097.76 1334 C 1097.47 1333.63 1095.76 1331.56 1095.85 1331.33 C 1099.36 1323.2 1106.66 1311.93 1111.6 1304.67 z"/>
<path transform="translate(0,0)" fill="rgb(14,12,25)" d="M 1206.82 1136.56 L 1208.17 1140.46 C 1209.01 1142.89 1209.67 1145.71 1210.4 1148.22 C 1216.96 1145.79 1223.17 1144.27 1229.81 1142.26 C 1231.99 1143.84 1232.73 1145.02 1230.8 1147.34 C 1225.5 1148.53 1220.23 1149.85 1214.99 1151.3 C 1210.06 1152.63 1211.92 1154.32 1212.81 1159.37 C 1208.41 1152.4 1211.13 1152.9 1209.21 1148.79 C 1205.72 1141.32 1206.24 1145.11 1206.82 1136.56 z"/>
<path transform="translate(0,0)" fill="rgb(14,12,25)" d="M 914.67 1187.06 C 917.297 1187.11 917.31 1187.08 919.75 1188.23 C 915.014 1193.27 906.587 1201.4 901.321 1205.73 C 902.936 1200.26 910.35 1197.69 909.872 1193.63 L 909.742 1192.21 C 911.168 1190.39 913.011 1188.71 914.67 1187.06 z"/>
<path transform="translate(0,0)" fill="rgb(45,48,190)" d="M 914.041 1282.37 C 923.614 1287.05 944.151 1300.19 954.111 1306.08 L 1038.42 1356 C 1051.14 1363.56 1063.31 1371.09 1076.44 1377.92 C 1098.23 1389.24 1119.97 1384.36 1143.08 1381 C 1160.25 1378.51 1177.56 1375.54 1194.75 1372.7 C 1198.9 1400.46 1192.94 1435.91 1214.9 1455.22 C 1224.11 1463.43 1236.8 1467.97 1249.37 1465.88 C 1289.97 1459.14 1332.41 1455.49 1372.19 1445.23 C 1379.14 1442.51 1387.87 1435.57 1392.4 1429.88 C 1410.43 1407.23 1402.34 1368.3 1400.36 1341.36 C 1425.55 1337.85 1450.98 1333.69 1476.15 1330.55 L 1476.24 1423.75 C 1476.57 1455.38 1480.91 1488.11 1456.87 1512.8 C 1437.79 1532.38 1410.72 1533 1384.94 1537.01 L 1301.18 1549.73 L 1181.69 1568.15 C 1159.31 1571.55 1133.92 1576.19 1111.5 1577.21 C 1095.43 1577.94 1068.81 1559.35 1055.31 1550.84 L 1001.05 1516.35 C 978.963 1502.35 951.819 1487.44 931.794 1471.27 C 910.864 1454.38 914.902 1409.13 914.743 1385.2 L 914.041 1282.37 z"/>
<path transform="translate(0,0)" fill="rgb(6,123,245)" d="M 647.091 1510.77 L 760.277 1510.88 C 786.567 1510.79 814.256 1510.19 840.405 1510.93 C 826.767 1565.6 811.102 1623.01 799.105 1677.99 L 744.478 1677.23 L 549.939 1677.66 C 581.774 1622.57 616.091 1565.89 647.091 1510.77 z"/>
<path transform="translate(0,0)" fill="rgb(45,48,190)" d="M 970.208 1510.51 L 981.741 1510.25 C 995.432 1518.46 1007.89 1527.19 1022.17 1535.43 C 1021.74 1582.93 1019.83 1630.13 1019.77 1677.64 C 965.933 1676.87 911.549 1678.12 857.5 1677.66 C 839.618 1677.55 821.736 1677.57 803.855 1677.72 L 845.275 1510.78 C 886.203 1511.01 929.458 1511.77 970.208 1510.51 z"/>
<path transform="translate(0,0)" fill="rgb(6,123,245)" d="M 659.087 1230 C 657.649 1202.15 661.027 1182.26 676.288 1158.48 C 707.304 1110.14 751.052 1089.88 804.011 1074.69 C 820.188 1070.05 835.284 1064.79 851.908 1060.83 C 837.218 1092.41 837.788 1124.9 856.339 1155.29 C 869.025 1176.07 889.537 1185.07 913.118 1186.69 C 913.636 1186.81 914.153 1186.94 914.67 1187.06 C 913.011 1188.71 911.168 1190.39 909.742 1192.21 C 896.823 1203.91 881.358 1216.84 866.86 1226.48 C 807.156 1266.21 716.882 1280.41 659.087 1230 z"/>
<path transform="translate(0,0)" fill="rgb(45,48,190)" d="M 462.438 1510.85 C 521.357 1510.69 582.216 1509.86 640.983 1510.98 C 611.356 1564.2 577.369 1620.34 546.458 1673.64 L 544.56 1676.52 C 539.984 1678.78 472.469 1678.08 463.137 1677.31 C 456.018 1676.77 448.968 1675.54 442.086 1673.64 C 411.141 1664.96 388.898 1645.8 373.317 1618.15 C 400.832 1582.82 433.598 1545.77 462.438 1510.85 z"/>
<path transform="translate(0,0)" fill="rgb(45,48,190)" d="M 1465.64 1511.04 C 1504.04 1510.23 1545.17 1510.97 1583.78 1511.03 C 1610.41 1543.19 1651.25 1586.06 1674.28 1618.54 C 1658.89 1644.11 1647.72 1655.01 1620.91 1668.28 C 1588.84 1682.06 1534.19 1677.93 1497.32 1677.92 C 1477.26 1642.5 1458.21 1606.34 1438.35 1570.78 C 1432.15 1559.68 1425.92 1548.47 1420.47 1536.98 C 1441.64 1532.61 1451.54 1527.12 1465.64 1511.04 z"/>
<path transform="translate(0,0)" fill="rgb(6,123,245)" d="M 1410.29 1538.38 L 1413.01 1537.95 C 1413.65 1538.19 1414.3 1538.42 1414.94 1538.66 C 1437.41 1579.95 1469.41 1637.95 1491.81 1677.58 C 1429.79 1677.09 1367.77 1677.04 1305.75 1677.43 L 1246.47 1677.81 C 1240.4 1641.34 1229.99 1603.21 1224.47 1567.29 C 1241.94 1563.27 1273.06 1559.42 1291.61 1556.6 L 1410.29 1538.38 z"/>
<path transform="translate(0,0)" fill="rgb(6,123,245)" d="M 767.342 843.717 C 768.352 844.032 770.387 844.992 771.24 845.645 C 792.151 861.639 806.527 885.352 812.206 910.609 C 824.249 964.169 803.092 1015.66 775.613 1060.3 C 744.118 1021.66 701.07 1011.51 654.793 1029 C 632.667 1038.09 620.018 1051.37 605.41 1069.65 C 621.13 957.515 667.729 894.588 767.342 843.717 z"/>
<path transform="translate(0,0)" fill="rgb(6,123,245)" d="M 968.156 509.419 C 971.263 509.205 974.375 509.059 977.488 508.983 C 1048.26 507.412 1124.19 538.021 1175.29 586.704 C 1142.57 614.111 1105.22 624.566 1063.82 628.885 C 985.158 632.112 908.031 605.675 855.709 544.854 C 885.006 523.855 932.538 512.297 968.156 509.419 z"/>
<path transform="translate(0,0)" fill="rgb(6,123,245)" d="M 595.324 1350.85 C 632.036 1351.05 668.75 1351.06 705.462 1350.87 C 711.461 1358.2 715.932 1363.35 722.549 1370.1 C 701.48 1402.38 683.801 1438.47 663.824 1471.56 C 657.275 1482.4 649.984 1494.72 644.567 1506.06 C 627.73 1505.83 610.891 1505.71 594.052 1505.69 C 551.608 1505.97 509.162 1506 466.718 1505.77 C 508.524 1453.65 553.351 1402.99 595.324 1350.85 z"/>
<path transform="translate(0,0)" fill="rgb(45,48,190)" d="M 1027.14 1539.5 C 1045.65 1549.26 1063.8 1563.82 1082.79 1573.85 C 1108.81 1587.58 1127.85 1581.43 1155.4 1577.32 L 1219.4 1567.63 L 1239.28 1666.25 C 1240.03 1669.86 1241 1673.04 1240.38 1676.64 C 1234.74 1677.69 1191.24 1677.36 1181.94 1677.41 L 1024.41 1677.64 C 1024.14 1634.44 1025.57 1582.89 1027.14 1539.5 z"/>
<path transform="translate(0,0)" fill="rgb(6,123,245)" d="M 799.524 589.599 C 803.47 592.747 806.716 596.325 810.227 599.918 C 860.834 651.715 867.195 732.512 822.561 790.172 C 811.094 804.987 799.769 814.592 785.004 825.805 L 774.649 832.727 C 771.766 830.447 765.18 825.161 762.673 822.613 C 743.335 802.966 737.886 760.646 737.476 734.891 C 736.641 682.344 762.383 626.342 799.524 589.599 z"/>
<path transform="translate(0,0)" fill="rgb(45,48,190)" d="M 1200.26 614.361 C 1235.9 658.146 1254.84 718.483 1245.21 774.599 C 1241.35 797.086 1230.87 830.264 1217.47 849.053 C 1200.06 829.57 1185.82 804.428 1179.87 778.9 C 1159.16 796.264 1128.66 795.103 1109.33 776.215 C 1089.99 757.327 1088.12 726.862 1105 705.753 C 1121.88 684.644 1152.01 679.765 1174.69 694.467 C 1179.22 661.03 1184.39 644.485 1200.26 614.361 z"/>
<path transform="translate(0,0)" fill="rgb(254,125,30)" d="M 1179.87 778.9 C 1159.16 796.264 1128.66 795.103 1109.33 776.215 C 1089.99 757.327 1088.12 726.862 1105 705.753 C 1121.88 684.644 1152.01 679.765 1174.69 694.467 C 1188.69 703.544 1197.55 718.724 1198.57 735.378 C 1199.6 752.031 1192.65 768.181 1179.87 778.9 z"/>
<path transform="translate(0,0)" fill="rgb(45,48,190)" d="M 725.636 1373.67 C 765.066 1411.96 804.171 1432.34 856.608 1446.67 L 841.722 1505.65 C 821.398 1505.49 801.074 1505.51 780.75 1505.69 L 650.006 1505.99 L 725.636 1373.67 z"/>
<path transform="translate(0,0)" fill="rgb(252,242,231)" d="M 953.129 986.758 C 996.613 998.305 1042.86 1007.86 1087.07 1019.18 C 1070.21 1078.84 1055.53 1141.2 1039.72 1201.36 C 1031.4 1198.73 1018.32 1195.75 1009.55 1193.5 C 990.733 1189.19 967.513 1183.57 949.12 1178.12 C 980.228 1162.71 1019.96 1137.51 1016.94 1097.08 C 1015.94 1083.55 1009.61 1070.96 999.338 1062.09 C 980.468 1045.82 959.863 1046.22 936.661 1048.06 C 941.816 1027.54 947.306 1007.1 953.129 986.758 z"/>
<path transform="translate(0,0)" fill="rgb(5,5,8)" d="M 959.891 1022.09 C 970.415 1021.54 997.173 1029.78 1008.56 1032.7 L 1018.99 1035.31 C 1024.52 1036.77 1025.52 1035.55 1027.58 1040.31 C 1020.79 1041.73 1015.65 1039.06 1008.82 1037.41 C 993.388 1033.7 978.071 1029.33 962.525 1026.12 C 961.137 1025.83 960.373 1023.23 959.891 1022.09 z"/>
<path transform="translate(0,0)" fill="rgb(5,5,8)" d="M 955.045 1036.14 C 962.886 1036.26 970.831 1038.96 978.522 1040.75 L 989.463 1043.28 C 994.403 1044.43 1003.58 1045.51 1006.18 1049.71 C 998.318 1053.11 980.688 1046.36 971.018 1043.8 L 967.015 1042.76 C 962.912 1041.68 956.992 1041.65 955.611 1037.62 L 955.045 1036.14 z"/>
<path transform="translate(0,0)" fill="rgb(6,123,245)" d="M 1344.17 999.14 C 1403.3 994.912 1417.01 1072.17 1410.62 1116.48 C 1405.97 1148.64 1391.33 1180.83 1374.15 1208.17 C 1380.74 1180.97 1384.2 1160.87 1373.72 1134.3 C 1369.76 1126.16 1366.55 1120.8 1360.46 1113.94 C 1347.17 1098.78 1328.33 1089.6 1308.2 1088.47 C 1283.13 1087.16 1267.76 1096.98 1249.99 1112.94 C 1256.78 1096.69 1264.78 1080.96 1273.92 1065.9 C 1291.69 1036.41 1309 1007.82 1344.17 999.14 z"/>
<path transform="translate(0,0)" fill="rgb(252,242,231)" d="M 961.104 809.04 C 971.642 808.251 978.844 811.301 988.716 814.69 C 1021.21 825.848 1055.4 831.012 1089.48 824.841 C 1099.5 823.026 1111.18 819.293 1121.06 818.876 C 1131.53 818.434 1137.2 832.534 1135.74 841.19 C 1134.05 859.34 1122.82 871.031 1110.11 882.282 C 1107.01 884.652 1102.72 887.607 1099.35 889.579 C 1073.45 904.413 1042.7 908.304 1013.91 900.389 C 984.46 892.33 940.802 862.58 947.914 823.352 C 949.135 816.615 955.093 812.05 961.104 809.04 z"/>
<path transform="translate(0,0)" fill="rgb(21,18,33)" d="M 961.713 816.128 C 975.679 815.728 986.131 822.757 999.36 826.074 C 1028.77 833.445 1059.38 837.316 1089.53 832.612 C 1101.39 830.762 1128.03 816.468 1128.8 838.229 C 1129.24 850.518 1117.77 864.894 1109.29 873.089 C 1024.01 942.394 925.09 845.603 961.713 816.128 z"/>
<path transform="translate(0,0)" fill="rgb(6,123,245)" d="M 1394.07 1342.5 C 1395.47 1344.47 1396.01 1348.74 1396.01 1351.23 C 1396.02 1377.71 1406.14 1405.29 1387.22 1427.65 C 1382.37 1433.38 1376.19 1437.82 1369.21 1440.59 C 1363.78 1442.74 1354.89 1444.63 1349.1 1445.5 C 1315.38 1450.56 1281.76 1456.59 1248 1461.18 C 1238.02 1462.53 1225.8 1458.47 1218.24 1451.75 C 1202.99 1438.2 1203.07 1417.66 1201.76 1398.75 L 1199.78 1372.27 C 1208.29 1371.38 1218.19 1369.65 1226.92 1368.57 C 1230.53 1388.66 1224.2 1432.88 1254.13 1431.96 C 1275.64 1431.31 1302.47 1422.91 1323.51 1421.26 C 1381.85 1416.67 1371.3 1390.86 1367.72 1346.34 C 1375.77 1345.73 1385.93 1343.81 1394.07 1342.5 z"/>
<path transform="translate(0,0)" fill="rgb(254,125,30)" d="M 957.823 679.771 C 986.483 675.777 1012.96 695.747 1017 724.401 C 1021.04 753.054 1001.11 779.566 972.465 783.65 C 943.754 787.742 917.171 767.76 913.123 739.043 C 909.076 710.325 929.1 683.773 957.823 679.771 z"/>
<path transform="translate(0,0)" fill="rgb(45,48,190)" d="M 1361.02 1347.42 C 1361.58 1347.8 1362.14 1348.17 1362.7 1348.54 C 1364 1369.76 1375.96 1406.9 1344.63 1412.38 C 1320.72 1416.5 1296.71 1420.21 1272.79 1424.47 C 1262.53 1426.29 1252.34 1428.86 1242.98 1423.54 C 1232.8 1412.71 1233.79 1383.71 1232.65 1367.4 C 1275.48 1361.01 1318.27 1354.35 1361.02 1347.42 z"/>
<path transform="translate(0,0)" fill="rgb(6,123,245)" d="M 1212.88 860.259 C 1244.14 868.888 1316.77 919.725 1337.34 945.176 C 1318.12 949.14 1308.12 953.344 1291.53 963.475 C 1279.53 972.409 1275.81 976.256 1266.09 987.796 C 1246.94 945.915 1223.64 916.364 1190.77 884.578 C 1199.34 876.238 1205.28 869.313 1212.88 860.259 z"/>
<path transform="translate(0,0)" fill="rgb(6,123,245)" d="M 861.188 1447.67 C 879.819 1452.49 895.625 1454.78 914.812 1454.97 C 926.621 1479.96 951.62 1491.21 975.05 1505.74 L 961.25 1505.84 C 923.376 1506.35 884.497 1505.91 846.53 1505.89 C 851.837 1486.6 856.724 1467.18 861.188 1447.67 z"/>
<path transform="translate(0,0)" fill="rgb(45,48,190)" d="M 663.814 1270.91 C 664.729 1272.06 665.317 1273.1 665.719 1274.56 C 673.581 1303.11 686.209 1321.68 701.792 1345.88 C 681.279 1346.1 660.764 1346.2 640.25 1346.17 C 626.58 1346.28 612.909 1346.28 599.24 1346.16 C 621.172 1321.43 642.7 1296.34 663.814 1270.91 z"/>
<path transform="translate(0,0)" fill="rgb(254,125,30)" d="M 1258.24 1255.25 C 1263.33 1253.6 1290.36 1278.24 1295.43 1282.92 C 1293.98 1293.78 1293.9 1294.95 1294.13 1306.1 L 1280.51 1308.19 C 1276.67 1308.76 1274.08 1309.05 1270.18 1309.45 C 1259.4 1304.29 1251.51 1297.62 1241.34 1292.61 C 1242.32 1288.38 1242.07 1284.84 1242.14 1280.5 C 1242.29 1270.54 1251.57 1262.2 1258.24 1255.25 z"/>
<path transform="translate(0,0)" fill="rgb(252,242,231)" d="M 769.743 556.594 C 772.915 556.792 772.826 556.566 775.26 558.522 C 776.26 564.619 766.983 570.519 762.503 574.77 C 756.668 580.403 751.267 586.471 746.349 592.92 C 722.836 623.261 707.17 660.595 700.246 698.312 C 698.37 708.534 699.621 723.304 696.505 732.64 C 691.518 731.739 692.841 732.716 689.88 729.542 C 688.127 724.216 689.475 718.134 689.982 712.537 C 695.331 653.435 723.582 594.421 769.743 556.594 z"/>
<path transform="translate(0,0)" fill="rgb(254,125,30)" d="M 1293.88 1205.78 C 1294.88 1211.03 1293.9 1230.62 1294.1 1237.84 C 1279.48 1242.23 1245.88 1257.93 1236.97 1237.94 C 1236.98 1237.52 1236.13 1220.17 1235.26 1222.26 L 1235.44 1222.25 C 1236.5 1222.8 1238.24 1224.88 1239.25 1225.73 C 1245.56 1231.03 1252.88 1233.13 1261 1231.96 C 1276.13 1229.79 1285.55 1217.06 1293.88 1205.78 z"/>
<path transform="translate(0,0)" fill="rgb(254,125,30)" d="M 1349.38 1244.01 C 1353.94 1251.53 1358.01 1257.41 1363.02 1264.51 L 1363.68 1267.28 C 1360.24 1267.98 1359.12 1268.32 1355.86 1269.83 C 1357.92 1274.52 1358.84 1277.05 1361.32 1281.51 C 1358.91 1284.08 1357.71 1284.46 1355.58 1281.02 C 1340.17 1281.26 1327.62 1282.22 1311.55 1281.94 C 1323.58 1265.06 1334.98 1259.93 1349.38 1244.01 z"/>
<path transform="translate(0,0)" fill="rgb(5,5,8)" d="M 1351.59 1267.79 C 1355.45 1266.82 1359.21 1265.65 1363.02 1264.51 L 1363.68 1267.28 C 1360.24 1267.98 1359.12 1268.32 1355.86 1269.83 C 1357.92 1274.52 1358.84 1277.05 1361.32 1281.51 C 1358.91 1284.08 1357.71 1284.46 1355.58 1281.02 C 1354.79 1278.64 1353.78 1275.89 1353.13 1273.48 L 1351.59 1267.79 z"/>
<path transform="translate(0,0)" fill="rgb(254,125,30)" d="M 1324.09 1286.5 C 1335.5 1285.51 1350.96 1285.65 1362.6 1285.62 C 1363.35 1289.18 1363.77 1292.94 1364.21 1296.56 C 1353.85 1298.12 1343.61 1299.29 1333.23 1300.62 C 1321.76 1302.35 1309.53 1304.03 1298.02 1305.41 C 1298.02 1279.13 1299.63 1288.85 1324.09 1286.5 z"/>
<path transform="translate(0,0)" fill="rgb(254,125,30)" d="M 1379.41 1261.97 C 1383.65 1272.11 1387.53 1281.52 1391.42 1291.8 C 1383.63 1293.53 1376.03 1294.58 1368.24 1296.09 C 1367.7 1287.34 1370.76 1279.87 1361.32 1281.51 C 1358.84 1277.05 1357.92 1274.52 1355.86 1269.83 C 1359.12 1268.32 1360.24 1267.98 1363.68 1267.28 C 1370.02 1266.57 1373.64 1264.64 1379.41 1261.97 z"/>
<path transform="translate(0,0)" fill="rgb(252,242,231)" d="M 1272.97 672.588 C 1287.04 678.535 1299.13 734.175 1293.6 745.381 L 1292.77 747.212 C 1282.35 744.95 1286.2 743.707 1285.4 731.984 C 1284.49 718.416 1282.08 708.408 1277.65 695.613 C 1275.52 689.48 1267.1 679.177 1271.5 674.3 C 1271.99 673.729 1272.48 673.158 1272.97 672.588 z"/>
<path transform="translate(0,0)" fill="rgb(252,242,231)" d="M 1283.07 768.13 C 1285.03 768.486 1287.45 768.623 1289.03 769.858 C 1289.88 770.525 1290.43 771.501 1290.56 772.574 C 1291.22 778.344 1281.13 798.913 1277.05 804.615 C 1275.93 804.566 1275.06 804.583 1274.01 804.246 C 1272.57 803.786 1271.43 802.855 1270.81 801.457 C 1270.4 800.504 1281.59 772.19 1283.07 768.13 z"/>
<path transform="translate(0,0)" fill="rgb(254,125,30)" d="M 1282.03 1246.15 C 1281.65 1245.77 1289.64 1266.07 1290.74 1268.33 C 1287.04 1266.24 1284.48 1264.63 1280.97 1262.23 C 1276.3 1258.34 1272.02 1255.11 1267.29 1251 C 1272.35 1249.43 1276.84 1247.61 1282.03 1246.15 z"/>
<path transform="translate(0,0)" fill="rgb(254,125,30)" d="M 1302.67 1265.76 C 1302.03 1264.73 1301.14 1263.7 1301.13 1262.58 C 1301.76 1261.68 1306.72 1264.69 1308.49 1265.1 C 1312.23 1265.96 1314.83 1265.91 1318.56 1266.37 C 1315.93 1269.41 1313.01 1273.02 1310.29 1275.9 C 1308.1 1277.93 1309.24 1278.7 1309.31 1281.84 C 1299.01 1281.89 1302.7 1279.9 1300.86 1268.61 C 1301.46 1267.66 1302.07 1266.71 1302.67 1265.76 z"/>
<path transform="translate(0,0)" fill="rgb(254,125,30)" d="M 1302.67 1265.76 C 1302.03 1264.73 1301.14 1263.7 1301.13 1262.58 C 1301.76 1261.68 1306.72 1264.69 1308.49 1265.1 C 1312.23 1265.96 1314.83 1265.91 1318.56 1266.37 C 1315.93 1269.41 1313.01 1273.02 1310.29 1275.9 C 1307.81 1272.11 1305.79 1269.07 1302.67 1265.76 z"/>
<path transform="translate(0,0)" fill="rgb(14,12,25)" d="M 1302.67 1265.76 C 1305.79 1269.07 1307.81 1272.11 1310.29 1275.9 C 1308.1 1277.93 1309.24 1278.7 1309.31 1281.84 L 1308.81 1280.6 C 1306.77 1275.41 1304.4 1272.98 1300.86 1268.61 C 1301.46 1267.66 1302.07 1266.71 1302.67 1265.76 z"/>
<path transform="translate(0,0)" fill="rgb(228,127,31)" d="M 1221.6 1196.83 C 1223.12 1187.12 1228.75 1192.18 1224.93 1200.84 L 1221.6 1196.83 z"/>
</svg>